<svg xmlns="http://www.w3.org/2000/svg" class="thumb" viewBox="0 0 1527 467" width="1527" height="467" xmlns:xlink="http://www.w3.org/1999/xlink" xmlns:inkscape="http://www.inkscape.org/namespaces/inkscape" xmlns:sodipodi="http://sodipodi.sourceforge.net/DTD/sodipodi-0.dtd" xmlns:ns1="http://www.inkscape.org/namespaces/inkscape" xmlns:sketch="http://www.bohemiancoding.com/sketch/ns"><defs /><g><g transform="matrix(3, 0, 0, 3, 259.211, 140.58)"><svg viewBox="16.0753 -2.50024 57.8491 95.0012" width="57.8491" height="95.0012"><defs><linearGradient id="linearGradientSjrx980712hs" x1="0" y1="0.5" x2="1" y2="0.5"><stop stop-color="rgb(101, 13, 136)" offset="0%" /><stop stop-color="rgb(101, 13, 136)" offset="100%" /></linearGradient></defs><path fill="url(#linearGradientSjrx980712hs)" d="M 24.229 29.205 c 0.67 0.255 1.806 0.361 1.603 1.399 s 0.203 3.453 0.79 3.702 c 0.586 0.248 0.79 0.022 0.88 0.654 s 0.293 1.354 0.903 0.925 s 0.812 -1.219 1.219 -0.293 s 0.158 3.047 0.812 3.634 s 1.986 0.158 2.347 0.812 c 0.361 0.654 1.851 1.805 1.851 3.024 s -0.248 6.139 -1.106 8.261 c -0.857 2.121 -7.154 15.233 -5.936 36.178 h 40.172 c 0 0 3.25 -4.514 -1.128 -9.885 c -0.681 -0.835 -9.344 -11.42 -12.955 -20.223 c -0.497 -1.214 -2.347 -4.378 -2.572 -4.829 s -0.271 -0.406 0 -1.399 c 0.271 -0.993 1.58 -4.604 2.076 -5.281 c 0.496 -0.677 1.715 -4.198 1.94 -5.101 c 0.227 -0.903 1.174 -2.347 2.393 -2.438 s 6.139 -0.105 6.695 -0.09 s 3.145 -0.497 2.303 -3.416 c -0.062 -0.21 -0.512 -2.091 0.105 -2.377 c 0.616 -0.286 0.963 -1.174 0.21 -2.031 c -0.203 -0.232 -0.963 0.045 -0.346 -0.437 s 1.113 -1.429 0.466 -2.046 c -0.646 -0.617 -0.827 -1.128 -0.271 -1.64 s 2.498 -2.031 0.843 -3.37 c -0.405 -0.328 -3.551 -2.212 -4.288 -4.469 C 63.06 17.931 63.16 12.15 58.48 7.982 c -0.238 -0.212 -1.459 -0.917 -0.895 -1.73 c 0.563 -0.812 0.157 -3.092 -3.656 -3.273 c -0.654 -0.031 -15.256 -3.092 -22.501 6.658 c -0.362 0.487 -2.596 3.16 -3.002 6.455 c -0.105 0.852 0.09 2.189 -0.79 1.467 c -0.88 -0.722 -4.875 -0.248 -6.297 4.04 C 20.956 22.758 20.438 27.76 24.229 29.205 Z" /></svg></g><g transform="matrix(1.5524, 0, 0, 1.5524, 493.774, 258.057)"><svg style="overflow: visible;" width="499.5" height="185"><defs><linearGradient id="linearGradientSjrx980712v7" x1="0" y1="0.5" x2="1" y2="0.5"><stop stop-color="rgb(214, 28, 214)" offset="0%" /><stop stop-color="rgb(214, 28, 214)" offset="100%" /></linearGradient></defs><g><path fill="url(#linearGradientSjrx980712v7)" transform="translate(333 93.75)" d="M -215.874 -66.31 L -215.874 -66.31 L -214.694 -66.31 Q -209.814 -66.31 -196.724 -65.04 L -196.724 -65.04 L -185.894 -64.75 L -185.594 -64.75 Q -178.174 -64.75 -174.754 -65.43 L -174.754 -65.43 Q -173.584 -61.04 -173.584 -54.88 L -173.584 -54.88 L -173.584 -54.39 Q -173.584 -51.76 -174.754 -51.76 L -174.754 -51.76 L -175.144 -51.37 Q -175.144 -50.98 -173.974 -50.49 L -173.974 -50.49 L -173.784 -50.49 L -173.784 -50.1 Q -174.364 -49.22 -177.194 -49.02 L -177.194 -49.02 Q -179.544 -49.02 -179.544 -50.59 L -179.544 -50.59 L -179.644 -52.93 L -179.544 -57.42 Q -179.544 -58.3 -185.304 -58.3 L -185.304 -58.3 L -191.164 -58.3 L -194.484 -58.4 Q -195.364 -58.4 -195.854 -42.38 L -195.854 -42.38 Q -196.434 -29.2 -196.434 -24.51 L -196.434 -24.51 L -196.434 -21.58 Q -196.434 -20.31 -197.314 -18.95 L -197.314 -18.95 L -197.314 -18.85 Q -196.534 -18.85 -196.434 -16.8 L -196.434 -16.8 L -196.724 -15.33 L -196.924 -15.33 L -196.924 -15.43 L -196.924 -16.02 L -197.124 -8.4 Q -197.124 -7.23 -187.454 -6.35 L -187.454 -6.35 Q -185.594 -5.66 -185.594 -4.49 L -185.594 -4.49 Q -186.374 -2.73 -186.374 -0.1 L -186.374 -0.1 Q -186.674 -0.1 -186.674 0.88 L -186.674 0.88 L -187.064 1.27 Q -197.514 0.68 -206.304 0.68 L -206.304 0.68 L -208.544 0.68 Q -213.034 0.68 -215.474 1.07 L -215.474 1.07 Q -215.674 0.68 -216.264 -5.37 L -216.264 -5.37 L -216.164 -5.37 L -214.794 -4.79 L -214.694 -4.79 L -214.304 -5.08 L -214.304 -5.18 Q -214.504 -5.66 -215.284 -5.66 L -215.284 -5.66 L -215.574 -5.96 L -215.574 -6.15 Q -215.574 -6.45 -211.284 -7.23 L -211.284 -7.23 Q -211.284 -7.52 -204.444 -7.62 L -204.444 -7.62 Q -203.664 -7.62 -203.374 -13.96 L -203.374 -13.96 L -202.884 -20.21 Q -203.764 -28.32 -203.764 -30.27 L -203.764 -30.27 L -204.834 -49.61 L -204.834 -52.15 L -204.644 -55.76 L -204.834 -57.03 L -204.444 -57.81 L -204.444 -58.3 Q -204.444 -59.18 -212.154 -59.28 L -212.154 -59.28 Q -217.724 -58.98 -217.724 -58.5 L -217.724 -58.5 Q -218.604 -56.25 -219.484 -51.76 L -219.484 -51.76 L -220.164 -51.17 L -220.364 -51.27 L -221.044 -51.27 Q -221.434 -50.88 -221.924 -50.88 L -221.924 -50.88 L -224.654 -50.68 Q -224.654 -52.54 -224.614 -54.54 Q -224.564 -56.54 -224.514 -57.62 Q -224.464 -58.69 -224.464 -59.18 L -224.464 -59.18 L -224.954 -62.89 Q -224.954 -64.06 -223.484 -64.26 L -223.484 -64.26 L -222.314 -65.43 L -221.824 -65.43 L -220.944 -64.26 L -220.754 -64.26 Q -219.094 -66.31 -215.874 -66.31 Z M -193.704 -62.6 L -193.994 -62.6 L -194.284 -62.3 Q -194.284 -61.82 -191.164 -61.62 L -191.164 -61.62 Q -189.504 -61.82 -189.504 -62.01 L -189.504 -62.01 L -189.504 -62.21 Q -190.674 -62.6 -193.704 -62.6 L -193.704 -62.6 Z M -180.814 -59.47 L -181.204 -59.86 L -182.174 -59.86 L -182.174 -59.77 Q -181.984 -59.28 -181.394 -59.28 L -181.394 -59.28 L -180.814 -59.28 L -180.814 -59.47 Z M -178.764 -59.77 L -178.764 -59.86 L -179.244 -59.86 L -179.244 -59.47 L -178.954 -59.47 L -178.764 -59.77 Z M -199.854 -57.42 L -199.854 -57.42 L -199.854 -57.32 L -199.564 -57.03 Q -198.584 -57.03 -197.604 -58.3 L -197.604 -58.3 L -197.604 -58.5 L -198.094 -58.59 Q -198.974 -58.59 -199.854 -57.42 Z M -220.464 -58.3 L -220.554 -58.3 L -221.044 -57.81 L -221.044 -57.03 L -220.754 -56.64 L -220.554 -56.64 L -220.064 -57.13 L -220.064 -57.81 L -220.464 -58.3 Z M -202.884 -57.52 L -202.884 -57.52 L -202.884 -57.03 Q -202.584 -55.57 -202.294 -55.57 L -202.294 -55.57 Q -201.804 -55.57 -201.514 -56.64 L -201.514 -56.64 L -201.514 -57.32 Q -201.514 -57.91 -202.194 -58.3 L -202.194 -58.3 Q -202.884 -58.3 -202.884 -57.52 Z M -176.904 -57.42 L -177.194 -57.81 L -177.394 -57.81 L -177.684 -56.54 L -177.194 -56.35 L -176.904 -56.64 L -176.904 -57.42 Z M -198.874 -52.93 L -198.874 -54.3 L -198.974 -54.3 L -199.174 -53.13 L -199.174 -51.56 L -198.974 -51.56 L -198.874 -52.93 Z M -177.684 -51.56 L -177.784 -51.56 L -177.974 -51.37 L -177.974 -50.88 L -177.784 -50.88 L -177.394 -51.27 L -177.394 -51.37 L -177.684 -51.56 Z M -197.414 -38.48 L -197.994 -45.51 L -198.194 -45.51 L -198.394 -41.99 L -198.394 -39.65 Q -198.394 -37.21 -197.904 -37.21 L -197.904 -37.21 L -197.704 -37.21 L -197.414 -38.48 Z M -202.194 -42.09 L -202.194 -42.58 L -202.394 -42.29 L -202.294 -42.09 L -202.194 -42.09 Z M -200.834 -32.42 L -201.124 -35.25 L -201.414 -35.25 Q -202.004 -32.81 -202.004 -29.98 L -202.004 -29.98 L -202.004 -28.81 Q -202.004 -24.12 -201.124 -24.12 L -201.124 -24.12 Q -200.834 -24.12 -200.734 -25.68 L -200.734 -25.68 L -201.314 -30.27 L -200.834 -32.42 Z M -200.344 -21.58 L -200.344 -21.58 L -200.734 -21.58 L -200.734 -19.92 L -199.854 -18.46 L -199.854 -18.95 Q -199.854 -21.58 -200.344 -21.58 Z M -209.034 -6.15 L -209.524 -6.15 L -210.014 -5.66 L -210.014 -5.18 Q -210.014 -4.98 -209.624 -4.98 L -209.624 -4.98 L -207.564 -5.18 L -207.564 -5.47 Q -207.964 -6.15 -209.034 -6.15 L -209.034 -6.15 Z M -211.474 -5.47 L -211.864 -5.76 L -212.154 -5.76 L -212.354 -5.47 L -212.064 -5.18 L -211.674 -5.18 L -211.474 -5.47 Z M -191.164 -4.39 L -191.164 -4.39 Q -189.694 -4 -187.744 -4 L -187.744 -4 L -187.554 -4.2 L -187.554 -4.49 L -188.524 -4.79 L -190.474 -4.79 Q -191.164 -4.69 -191.164 -4.39 Z M -192.434 -3.13 L -193.014 -3.13 L -193.404 -2.73 Q -193.114 -2.05 -192.434 -2.05 L -192.434 -2.05 L -191.844 -2.05 Q -191.264 -2.05 -191.064 -2.34 L -191.064 -2.34 L -191.064 -2.54 Q -191.064 -2.93 -192.434 -3.13 L -192.434 -3.13 Z M -201.804 -2.93 L -202.394 -2.93 L -203.274 -2.73 L -203.274 -2.34 L -202.394 -2.25 L -201.024 -2.25 Q -200.444 -2.25 -200.344 -2.64 L -200.344 -2.64 Q -200.834 -2.93 -201.804 -2.93 L -201.804 -2.93 Z M -207.274 -2.54 L -209.224 -2.54 L -209.714 -2.34 L -209.714 -2.05 L -208.154 -1.76 L -206.884 -2.05 L -206.884 -2.15 L -207.274 -2.54 Z M -213.624 -0.68 L -213.624 -0.68 L -213.624 -0.49 L -213.334 -0.29 L -213.134 -0.29 Q -212.454 -0.68 -212.454 -1.66 L -212.454 -1.66 L -212.454 -1.76 L -212.744 -2.05 L -212.844 -2.05 Q -213.624 -1.56 -213.624 -0.68 Z M -187.554 -1.56 L -187.844 -1.76 L -188.234 -1.37 L -188.234 -1.07 L -187.844 -0.88 L -187.554 -1.27 L -187.554 -1.56 Z M -177.388 -71.48 L -177.388 -71.48 L -175.438 -71.58 Q -162.938 -71.09 -162.938 -69.34 L -162.938 -69.34 L -162.258 -54.98 Q -162.258 -53.03 -164.408 -45.12 L -164.408 -45.12 Q -164.888 -41.99 -164.888 -41.02 L -164.888 -41.02 L -164.888 -40.43 L -164.598 -40.43 Q -158.058 -45.51 -149.658 -45.51 L -149.658 -45.51 Q -147.218 -45.51 -140.678 -42.68 L -140.678 -42.68 Q -139.408 -41.7 -137.448 -38.67 L -137.448 -38.67 Q -136.768 -38.28 -136.568 -37.4 L -136.568 -37.4 L -136.668 -36.43 Q -133.938 -34.28 -133.938 -28.71 L -133.938 -28.71 Q -133.638 -28.71 -133.448 -19.14 L -133.448 -19.14 L -133.448 -18.95 Q -133.448 -17.19 -135.008 -8.2 L -135.008 -8.2 L -135.398 -6.35 L -133.348 -6.35 Q -130.128 -6.25 -130.128 -5.47 L -130.128 -5.47 Q -130.128 -5.08 -133.248 -4.79 L -133.248 -4.79 Q -133.248 -4.39 -131.008 -3.91 L -131.008 -3.91 L -130.618 -3.32 L -130.618 -3.13 Q -132.468 -2.83 -132.468 -2.64 L -132.468 -2.64 Q -130.618 -2.25 -130.618 -1.37 L -130.618 -1.37 Q -130.618 3.22 -133.248 3.22 L -133.248 3.22 L -134.028 3.32 Q -137.838 3.32 -137.838 2.25 L -137.838 2.25 Q -137.838 1.95 -141.848 1.76 L -141.848 1.76 Q -143.608 0.78 -144.678 0.49 L -144.678 0.49 L -144.778 0.1 Q -144.778 -4.2 -143.508 -12.4 L -143.508 -12.4 Q -143.018 -17.19 -141.748 -22.56 L -141.748 -22.56 L -141.948 -25.98 L -141.648 -26.46 Q -142.918 -27.44 -142.918 -29.3 L -142.918 -29.3 Q -144.088 -31.35 -144.868 -32.52 L -144.868 -32.52 Q -148.288 -33.98 -148.978 -33.98 L -148.978 -33.98 Q -153.958 -35.64 -158.738 -33.59 L -158.738 -33.59 Q -165.088 -29.3 -165.088 -27.25 L -165.088 -27.25 L -165.678 -20.9 L -165.478 -14.36 Q -166.068 -7.13 -166.948 -7.13 L -166.948 -7.13 L -167.038 -6.64 L -166.648 -6.54 L -166.258 -6.54 L -164.598 -7.23 Q -162.258 -6.84 -162.258 -5.66 L -162.258 -5.66 L -162.938 -5.08 L -162.938 -4.69 Q -162.838 -4.39 -161.668 -4 L -161.668 -4 L -161.478 -3.52 Q -162.058 1.56 -162.938 1.56 L -162.938 1.56 L -163.228 1.56 Q -164.498 0.68 -173.678 0.2 L -173.678 0.2 Q -180.228 -0.39 -180.228 -1.76 L -180.228 -1.76 L -180.228 -3.32 Q -180.318 -3.71 -179.638 -4.79 L -179.638 -4.79 L -179.638 -5.37 Q -180.808 -7.03 -180.808 -7.32 L -180.808 -7.32 Q -180.318 -7.71 -176.118 -7.81 L -176.118 -7.81 Q -175.438 -7.81 -175.148 -11.62 L -175.148 -11.62 Q -174.458 -12.01 -173.978 -14.65 L -173.978 -14.65 Q -173.388 -15.43 -173.388 -16.31 L -173.388 -16.31 L -173.388 -16.41 Q -173.388 -17.97 -174.368 -19.53 L -174.368 -19.53 L -173.388 -21.88 Q -172.708 -21.88 -172.608 -43.26 L -172.608 -43.26 L -171.238 -57.62 L -171.238 -61.91 Q -171.238 -64.06 -172.608 -64.06 L -172.608 -64.06 L -175.828 -64.16 L -177.878 -63.57 Q -178.368 -63.57 -178.568 -66.21 L -178.568 -66.21 L -178.568 -67.19 Q -178.568 -71.48 -177.388 -71.48 Z M -177.588 -1.95 L -177.588 -1.95 L -177.588 -1.76 L -177.388 -1.76 Q -176.118 -1.76 -172.608 -0.49 L -172.608 -0.49 Q -167.238 -0.39 -164.108 0.2 L -164.108 0.2 L -163.818 0.2 L -163.528 -0.2 L -163.528 -0.29 Q -163.528 -1.27 -172.798 -1.27 L -172.798 -1.27 Q -174.368 -2.25 -176.708 -2.25 L -176.708 -2.25 Q -177.588 -2.15 -177.588 -1.95 Z M -137.158 -10.74 L -137.158 -10.74 L -136.868 -10.74 Q -136.178 -10.74 -135.008 -18.07 L -135.008 -18.07 Q -135.008 -19.14 -135.698 -19.43 L -135.698 -19.43 L -136.088 -19.43 Q -136.668 -19.43 -137.158 -10.74 Z M -140.478 -31.45 L -140.088 -31.05 L -139.498 -32.62 Q -139.108 -31.84 -139.018 -31.45 L -139.018 -31.45 Q -138.618 -30.76 -138.228 -30.76 L -138.228 -30.76 L -138.228 -31.54 Q -138.228 -33.5 -140.968 -36.13 L -140.968 -36.13 L -141.458 -36.23 L -141.848 -36.23 L -141.848 -35.84 Q -140.478 -34.47 -139.598 -32.91 L -139.598 -32.91 L -140.478 -31.45 Z M -169.088 -54.39 L -169.088 -54.39 Q -169.388 -53.81 -169.388 -50.88 L -169.388 -50.88 Q -168.208 -50.88 -168.208 -49.12 L -168.208 -49.12 L -168.118 -49.12 Q -167.818 -49.71 -167.818 -51.17 L -167.818 -51.17 L -167.818 -52.44 L -167.918 -52.44 L -168.308 -51.37 L -168.698 -51.37 L -168.798 -51.95 Q -168.608 -52.73 -168.408 -52.73 L -168.408 -52.73 L -167.818 -52.54 Q -168.018 -53.13 -169.088 -54.39 Z M -174.068 -8.11 L -174.068 -8.11 Q -174.068 -7.42 -170.848 -7.13 L -170.848 -7.13 L -170.658 -7.13 L -170.358 -7.32 L -170.358 -8.11 Q -170.558 -8.4 -171.138 -8.4 L -171.138 -8.4 L -173.098 -8.4 Q -174.068 -8.4 -174.068 -8.11 Z M -143.118 -3.13 L -143.118 -3.13 L -142.918 -3.13 L -141.948 -3.03 L -138.918 -3.13 L -138.818 -3.22 L -138.818 -3.32 Q -139.798 -4 -141.948 -4 L -141.948 -4 Q -142.818 -4 -143.118 -3.13 Z M -178.658 -5.08 L -178.658 -5.08 L -178.658 -4.79 L -177.978 -4.79 L -174.558 -4.79 Q -174.558 -5.57 -177.588 -5.66 L -177.588 -5.66 Q -178.568 -5.66 -178.658 -5.08 Z M -150.828 -37.3 L -150.828 -37.3 L -151.518 -37.21 L -151.518 -36.72 Q -149.368 -35.64 -148.778 -35.64 L -148.778 -35.64 L -148.388 -36.13 Q -148.388 -36.72 -150.828 -37.3 Z M -175.248 -70.12 L -175.248 -70.12 L -175.248 -69.82 Q -174.068 -68.95 -171.928 -68.95 L -171.928 -68.95 L -171.728 -69.34 Q -173.778 -70.12 -175.248 -70.12 Z M -166.948 -31.15 L -166.948 -31.15 L -166.948 -30.37 L -166.648 -30.37 Q -165.678 -30.37 -165.378 -32.13 L -165.378 -32.13 L -165.278 -32.23 L -165.278 -32.71 L -165.378 -32.71 Q -166.068 -32.32 -166.948 -31.15 Z M -164.888 -69.63 L -165.968 -69.63 L -166.358 -69.14 Q -166.068 -68.65 -165.478 -68.36 L -165.478 -68.36 L -165.378 -68.36 Q -164.698 -68.36 -164.498 -68.85 L -164.498 -68.85 L -164.498 -69.04 L -164.888 -69.63 Z M -142.628 -0.68 L -142.628 -0.68 L -143.698 -0.68 L -143.698 -0.39 Q -143.608 0.2 -142.428 0.2 L -142.428 0.2 L -141.458 0.2 L -141.458 -0.1 Q -141.458 -0.39 -142.628 -0.68 Z M -164.598 -4.79 L -165.278 -4.79 L -165.478 -4.69 L -165.478 -4.2 L -164.888 -3.71 L -164.408 -3.71 L -163.918 -4.1 L -163.918 -4.2 L -164.598 -4.79 Z M -172.318 -66.6 L -173.288 -66.6 L -173.778 -66.5 L -173.778 -66.31 Q -173.678 -66.02 -173.098 -66.02 L -173.098 -66.02 L -172.318 -66.02 L -171.728 -66.21 L -171.728 -66.5 L -172.318 -66.6 Z M -141.068 -6.54 L -141.068 -6.54 L -141.068 -6.15 L -140.278 -6.15 L -139.988 -6.35 L -139.988 -6.84 L -140.278 -7.13 Q -140.868 -7.13 -141.068 -6.54 Z M -165.868 -29.39 L -165.868 -29.39 L -165.578 -29.1 L -164.888 -29.1 Q -164.308 -29.1 -164.208 -29.39 L -164.208 -29.39 L -164.498 -29.69 L -164.888 -29.69 Q -165.678 -29.69 -165.868 -29.39 Z M -143.508 -42.29 L -143.508 -42.29 L -143.508 -41.99 Q -143.118 -41.31 -142.038 -41.31 L -142.038 -41.31 L -142.038 -41.6 Q -142.428 -42.29 -143.508 -42.29 Z M -145.268 -34.86 L -145.268 -34.86 L -145.268 -34.67 Q -145.268 -33.79 -144.288 -33.79 L -144.288 -33.79 L -144.288 -33.89 Q -144.388 -34.86 -145.268 -34.86 Z M -167.728 -59.86 L -168.118 -60.25 L -168.308 -59.96 L -168.308 -59.28 L -168.118 -58.98 L -167.728 -59.28 L -167.728 -59.86 Z M -172.998 -68.07 L -174.068 -68.16 L -174.368 -68.16 L -174.368 -68.07 L -174.268 -67.68 L -172.998 -67.68 L -172.998 -68.07 Z M -162.058 -36.43 L -162.058 -36.43 L -161.768 -36.43 Q -160.698 -37.21 -160.698 -37.4 L -160.698 -37.4 L -160.988 -37.4 Q -161.958 -36.91 -162.058 -36.43 Z M -135.888 -33.69 L -136.088 -33.69 L -136.378 -33.4 L -136.378 -33.2 L -135.788 -32.81 L -135.598 -32.81 L -135.398 -33.01 L -135.888 -33.69 Z M -148.678 -44.43 L -148.678 -44.43 L -148.778 -44.43 L -148.778 -44.34 Q -148.778 -44.04 -147.508 -43.75 L -147.508 -43.75 L -147.508 -43.85 Q -147.508 -44.34 -148.678 -44.43 Z M -168.118 -57.32 L -168.208 -57.32 L -168.408 -57.03 L -168.408 -56.74 L -168.118 -56.45 L -167.728 -56.54 L -167.728 -56.84 L -168.118 -57.32 Z M -153.078 -38.87 L -153.368 -39.16 L -154.048 -39.16 L -154.048 -38.96 L -153.758 -38.67 L -153.078 -38.67 L -153.078 -38.87 Z M -157.568 -34.67 L -157.858 -34.67 L -158.248 -34.28 L -158.248 -33.98 L -157.958 -33.98 L -157.568 -34.38 L -157.568 -34.67 Z M -142.628 -1.76 L -142.918 -2.05 L -143.208 -1.76 L -143.208 -1.66 L -142.918 -1.37 L -142.728 -1.37 L -142.628 -1.76 Z M -176.418 -68.65 L -176.708 -68.85 L -176.808 -68.85 L -176.808 -68.07 L -176.708 -68.07 L -176.418 -68.36 L -176.418 -68.65 Z M -135.208 -20.9 L -135.398 -21.09 L -135.698 -20.9 L -135.398 -20.61 L -135.208 -20.61 L -135.208 -20.9 Z M -164.498 -5.66 L -164.498 -5.96 L -164.888 -5.96 L -164.888 -5.66 L -164.498 -5.66 Z M -152.388 -36.23 L -152.588 -36.23 L -152.778 -36.04 L -152.388 -36.04 L -152.388 -36.23 Z M -139.408 -33.01 L -139.408 -32.91 L -139.498 -32.71 Q -139.698 -32.71 -139.498 -32.91 L -139.498 -32.91 L -139.408 -33.01 Z M -103.857 -49.02 L -103.857 -49.02 Q -99.7574 -49.02 -93.8974 -45.51 L -93.8974 -45.51 Q -88.9174 -41.8 -88.9174 -40.43 L -88.9174 -40.43 Q -85.0074 -32.23 -85.0074 -30.57 L -85.0074 -30.57 L -84.9074 -29.79 Q -86.3774 -26.37 -86.3774 -25.1 L -86.3774 -25.1 L -86.9674 -25 L -95.2674 -25 Q -96.4374 -25 -98.0974 -24.71 L -98.0974 -24.71 Q -112.157 -25.88 -117.817 -25.88 L -117.817 -25.88 L -119.877 -25.88 Q -121.047 -24.12 -121.047 -23.34 L -121.047 -23.34 Q -120.357 -22.27 -120.357 -19.92 L -120.357 -19.92 Q -120.357 -16.21 -119.187 -15.53 L -119.187 -15.53 L -119.087 -15.04 L -119.087 -14.94 L -119.677 -15.23 L -119.677 -14.94 L -118.797 -13.96 Q -118.797 -12.7 -117.037 -10.74 L -117.037 -10.74 Q -113.817 -5.08 -110.007 -3.71 L -110.007 -3.71 Q -106.787 -2.64 -102.687 -2.64 L -102.687 -2.64 Q -101.997 -2.64 -99.8574 -3.91 L -99.8574 -3.91 Q -98.0974 -4.3 -92.4274 -10.25 L -92.4274 -10.25 L -92.4274 -10.55 Q -92.4274 -10.74 -93.7974 -10.94 L -93.7974 -10.94 L -93.9974 -11.43 Q -91.7474 -15.72 -88.6274 -17.09 L -88.6274 -17.09 Q -87.7474 -16.21 -85.0074 -14.36 L -85.0074 -14.36 Q -82.8574 -11.04 -79.2474 -6.54 L -79.2474 -6.54 L -79.2474 -6.15 Q -82.3774 -2.05 -83.7374 -2.05 L -83.7374 -2.05 L -84.1274 -2.05 Q -84.1274 -4.2 -86.7674 -4.49 L -86.7674 -4.49 Q -87.2574 -4.49 -91.0674 -1.27 L -91.0674 -1.27 Q -93.3074 0.49 -98.7774 2.05 L -98.7774 2.05 Q -105.127 3.32 -107.767 3.32 L -107.767 3.32 L -113.327 1.37 Q -118.017 1.37 -121.927 -3.71 L -121.927 -3.71 Q -123.587 -5.47 -124.657 -7.91 L -124.657 -7.91 Q -124.657 -8.69 -126.807 -16.02 L -126.807 -16.02 Q -127.487 -18.85 -127.487 -21.48 L -127.487 -21.48 L -127.487 -21.58 Q -127.487 -34.57 -119.677 -44.34 L -119.677 -44.34 Q -118.697 -46.78 -115.187 -47.95 L -115.187 -47.95 Q -112.837 -48.63 -109.517 -49.02 L -109.517 -49.02 Q -108.647 -49.41 -103.857 -49.02 Z M -112.647 -47.17 L -112.837 -46.97 L -112.837 -46.88 L -112.647 -46.88 Q -111.087 -46.88 -106.787 -47.95 L -106.787 -47.95 Q -105.907 -48.05 -105.907 -48.44 L -105.907 -48.44 L -106.197 -48.73 L -106.297 -48.73 Q -109.127 -48.73 -112.647 -47.17 L -112.647 -47.17 Z M -116.747 -45.31 L -116.747 -45.31 L -116.747 -45.21 L -116.457 -45.02 L -116.357 -45.02 Q -114.407 -45.51 -114.407 -46 L -114.407 -46 L -114.407 -46.58 L -114.797 -46.97 L -114.987 -46.97 Q -116.747 -46.39 -116.747 -45.31 Z M -101.707 -46.29 L -101.707 -46.29 L -104.637 -46.29 L -104.637 -46.09 Q -104.637 -45.7 -100.637 -45.51 L -100.637 -45.51 L -100.537 -45.51 L -100.537 -45.9 Q -100.537 -46.09 -101.707 -46.29 Z M -108.647 -44.82 L -108.647 -44.82 L -108.647 -44.73 Q -108.647 -44.34 -104.637 -43.75 L -104.637 -43.75 L -104.447 -43.85 L -104.447 -44.24 Q -105.227 -45.31 -107.077 -45.31 L -107.077 -45.31 L -107.377 -45.31 Q -108.647 -45.21 -108.647 -44.82 Z M -102.687 -44.24 L -102.687 -44.24 L -102.687 -44.14 Q -97.1174 -40.92 -96.7274 -40.92 L -96.7274 -40.92 L -96.6274 -40.92 L -95.6574 -41.31 L -95.0674 -41.11 L -94.9674 -41.31 L -94.9674 -41.41 Q -95.3574 -41.7 -96.6274 -41.99 L -96.6274 -41.99 L -98.5874 -42.87 Q -99.3674 -44.53 -101.707 -44.53 L -101.707 -44.53 L -101.997 -44.53 Q -102.687 -44.43 -102.687 -44.24 Z M -114.307 -41.41 L -114.307 -41.41 Q -113.327 -42.19 -110.397 -43.07 L -110.397 -43.07 L -110.397 -43.26 L -110.497 -43.46 L -111.477 -43.46 Q -114.307 -42.68 -114.307 -41.41 Z M -119.477 -34.96 L -119.477 -34.96 L -119.477 -34.67 Q -119.477 -33.59 -101.707 -32.23 L -101.707 -32.23 L -100.727 -31.93 L -99.4674 -32.03 Q -95.5574 -30.76 -94.1874 -30.76 L -94.1874 -30.76 Q -94.1874 -30.47 -93.6074 -30.27 L -93.6074 -30.27 Q -93.0174 -31.15 -93.0174 -31.93 L -93.0174 -31.93 L -93.0174 -33.79 Q -93.0174 -35.06 -97.8974 -39.45 L -97.8974 -39.45 Q -100.147 -41.7 -102.977 -41.99 L -102.977 -41.99 L -106.297 -42.58 Q -114.407 -40.92 -116.947 -38.57 L -116.947 -38.57 Q -118.017 -36.52 -119.477 -34.96 Z M -118.407 -40.82 L -118.407 -40.82 L -118.407 -40.63 L -118.217 -40.63 Q -116.947 -40.92 -116.947 -41.31 L -116.947 -41.31 L -116.947 -41.41 L -117.427 -41.41 Q -117.917 -41.41 -118.407 -40.82 Z M -95.0674 -39.45 L -95.0674 -39.45 Q -94.8774 -38.67 -94.1874 -38.67 L -94.1874 -38.67 L -93.9974 -38.67 L -93.7974 -38.96 L -93.7974 -39.55 L -94.1874 -40.04 Q -95.0674 -40.04 -95.0674 -39.45 Z M -119.877 -38.96 L -120.267 -38.96 L -120.457 -38.67 L -120.457 -38.57 L -120.267 -38.57 L -119.877 -38.87 L -119.877 -38.96 Z M -92.4274 -37.99 L -92.6274 -38.18 L -93.0174 -38.18 Q -91.9474 -34.96 -91.4574 -34.67 L -91.4574 -34.67 L -91.0674 -34.67 L -90.7674 -34.86 Q -91.5574 -37.99 -92.4274 -37.99 L -92.4274 -37.99 Z M -119.387 -36.43 L -119.387 -36.43 Q -118.797 -36.52 -118.797 -37.21 L -118.797 -37.21 L -118.797 -37.3 Q -119.387 -37.11 -119.387 -36.43 Z M -89.0174 -33.79 L -89.3074 -33.79 L -89.5974 -33.59 L -89.5974 -32.91 L -89.3074 -32.52 Q -88.9174 -32.62 -88.9174 -33.2 L -88.9174 -33.2 L -88.9174 -33.59 L -89.0174 -33.79 Z M -120.457 -32.42 L -120.457 -32.42 L -120.457 -32.03 L -120.267 -31.84 L -120.067 -31.84 Q -119.387 -32.13 -118.897 -32.91 L -118.897 -32.91 L -118.897 -33.2 L -119.387 -33.2 Q -119.967 -33.2 -120.457 -32.42 Z M -124.467 -33.01 L -124.467 -33.01 Q -125.247 -32.23 -125.827 -29.1 L -125.827 -29.1 L -125.637 -29.1 Q -125.047 -29.1 -123.877 -32.52 L -123.877 -32.52 Q -124.067 -33.01 -124.467 -33.01 Z M -114.497 -31.84 L -114.497 -31.84 L -114.497 -31.54 Q -112.647 -30.27 -107.767 -30.27 L -107.767 -30.27 L -106.887 -30.27 L -105.617 -30.37 L -105.617 -30.76 Q -109.617 -31.64 -114.497 -31.84 Z M -96.6274 -29 L -96.6274 -29.3 L -96.9274 -29.3 L -96.9274 -29 L -96.6274 -29 Z M -115.477 -28.52 L -115.477 -28.52 L -115.477 -28.32 Q -113.527 -27.83 -105.127 -27.34 L -105.127 -27.34 L -105.127 -27.25 L -105.127 -27.15 L -107.177 -26.86 Q -107.177 -26.56 -104.637 -26.56 L -104.637 -26.56 Q -100.537 -26.56 -100.537 -26.95 L -100.537 -26.95 Q -100.537 -27.93 -115.477 -28.52 Z M -124.947 -27.64 L -125.337 -27.83 L -125.827 -27.83 L -125.827 -27.25 Q -125.827 -26.66 -125.537 -26.66 L -125.537 -26.66 Q -125.047 -26.66 -124.947 -27.64 L -124.947 -27.64 Z M -117.427 -27.54 L -117.427 -27.64 L -117.917 -27.54 L -117.917 -26.95 L -117.427 -26.95 L -117.427 -27.34 L -117.427 -27.54 Z M -120.557 -26.86 L -120.557 -26.86 L -120.557 -26.76 L -120.457 -26.76 L -118.797 -26.95 L -118.797 -27.15 L -119.087 -27.54 L -119.387 -27.54 Q -120.267 -27.54 -120.557 -26.86 Z M -96.8274 -26.66 L -96.8274 -26.66 Q -96.8274 -26.27 -95.0674 -26.27 L -95.0674 -26.27 L -94.1874 -26.37 L -94.1874 -26.56 Q -94.1874 -26.95 -96.0474 -26.95 L -96.0474 -26.95 Q -96.8274 -26.76 -96.8274 -26.66 Z M -125.827 -24.12 L -125.827 -24.12 L -125.827 -23.83 L -125.827 -23.73 Q -125.927 -23.44 -125.927 -22.36 L -125.927 -22.36 L -125.927 -21.97 Q -125.927 -20.21 -124.947 -18.85 L -124.947 -18.85 L -124.857 -18.85 Q -124.857 -23.54 -125.827 -24.12 Z M -123.877 -15.43 L -124.067 -15.63 L -124.367 -15.63 L -124.367 -15.43 L -124.067 -15.23 L -123.877 -15.23 L -123.877 -15.43 Z M -123.387 -13.96 L -123.387 -13.96 L -123.487 -13.87 L -123.487 -13.67 Q -123.097 -12.11 -122.317 -12.11 L -122.317 -12.11 L -122.317 -12.21 L -122.317 -12.4 Q -122.317 -13.18 -123.387 -13.96 Z M -91.5574 -13.09 L -91.5574 -13.09 L -91.3574 -12.79 L -90.8674 -12.79 Q -90.2874 -12.79 -90.1874 -13.18 L -90.1874 -13.18 L -90.5774 -13.57 L -90.6774 -13.57 Q -91.3574 -13.57 -91.5574 -13.09 Z M -93.7974 -7.42 L -93.7974 -7.42 L -93.6074 -7.32 L -93.5074 -7.32 Q -92.4274 -7.32 -92.1374 -8.59 L -92.1374 -8.59 L -92.1374 -8.79 Q -93.2174 -8.79 -93.7974 -7.42 Z M -86.9674 -7.62 L -86.9674 -7.62 L -86.8674 -7.52 L -86.5674 -7.52 Q -85.9874 -7.91 -85.9874 -8.59 L -85.9874 -8.59 L -86.2774 -8.59 Q -86.9674 -8.2 -86.9674 -7.62 Z M -83.5474 -8.59 L -83.5474 -8.59 L -83.6474 -8.59 L -83.6474 -8.4 Q -83.3474 -7.23 -82.7674 -7.23 L -82.7674 -7.23 L -82.6674 -7.23 L -82.4674 -7.42 L -82.4674 -7.52 Q -82.6674 -8.59 -83.5474 -8.59 Z M -89.2074 -6.54 L -89.2074 -6.54 L -88.9174 -6.35 Q -87.4474 -6.84 -87.4474 -7.62 L -87.4474 -7.62 L -87.4474 -7.81 L -87.5474 -7.81 Q -88.9174 -7.81 -89.2074 -6.54 Z M -96.8274 -4.39 L -96.8274 -4.39 L -96.6274 -4.39 Q -95.8474 -4.69 -95.7474 -5.37 L -95.7474 -5.37 L -95.8474 -5.47 Q -96.8274 -4.88 -96.8274 -4.39 Z M -91.0674 -3.91 L -91.0674 -3.91 L -90.6774 -3.91 Q -89.6974 -4.79 -89.6974 -5.18 L -89.6974 -5.18 L -89.7974 -5.18 Q -91.0674 -4.79 -91.0674 -3.91 Z M -118.797 -3.03 L -118.797 -3.03 L -119.087 -3.03 L -119.087 -2.64 Q -118.897 -2.15 -117.427 -1.56 L -117.427 -1.56 L -117.037 -1.27 Q -118.117 -2.93 -118.797 -3.03 Z M -111.967 -2.64 L -111.967 -2.64 L -112.057 -2.64 L -112.057 -2.54 Q -112.057 -2.15 -110.007 -1.66 L -110.007 -1.66 L -109.907 -1.76 L -109.907 -1.95 Q -111.177 -2.64 -111.967 -2.64 Z M -106.197 -1.27 L -106.197 -1.56 L -106.497 -1.56 L -106.497 -1.27 L -106.197 -1.27 Z M -96.0474 -0.1 L -96.0474 -0.1 Q -95.0674 -0.1 -94.4774 -1.56 L -94.4774 -1.56 L -94.7774 -1.56 Q -96.0474 -0.88 -96.0474 -0.1 Z M -102.877 0.88 L -102.877 0.88 L -104.927 0.68 L -105.317 0.68 Q -106.197 0.68 -106.297 1.07 L -106.297 1.07 L -106.297 1.27 L -105.907 1.56 L -104.147 1.56 Q -101.127 1.56 -97.0174 0.49 L -97.0174 0.49 Q -97.2174 -0.1 -98.1974 -0.1 L -98.1974 -0.1 L -98.6774 -0.1 Q -101.027 -0.1 -102.877 0.88 Z M -70.3591 -60.94 L -70.3591 -60.94 L -66.5491 -61.43 Q -61.1791 -60.45 -61.1791 -59.47 L -61.1791 -59.47 Q -59.9091 -58.89 -58.8391 -56.93 L -58.8391 -56.93 Q -56.2991 -54.98 -52.9791 -46.48 L -52.9791 -46.48 L -49.9491 -40.92 Q -48.1891 -34.57 -47.3191 -34.57 L -47.3191 -34.57 Q -46.1391 -34.57 -43.4091 -40.82 L -43.4091 -40.82 Q -40.0891 -47.66 -33.8391 -57.52 L -33.8391 -57.52 Q -31.9791 -58.2 -31.9791 -58.98 L -31.9791 -58.98 Q -31.3991 -60.35 -30.4191 -60.74 L -30.4191 -60.74 L -29.1491 -60.64 Q -27.6891 -61.13 -26.1191 -61.33 L -26.1191 -61.33 Q -19.4791 -60.45 -19.4791 -59.28 L -19.4791 -59.28 L -19.4791 -59.18 L -19.2891 -36.33 L -19.4791 -29.98 Q -18.9891 -25.98 -17.8191 -9.38 L -17.8191 -9.38 L -18.0191 -8.3 Q -17.2391 -7.81 -15.5791 -7.81 L -15.5791 -7.81 Q -13.5291 -7.52 -13.5291 -5.96 L -13.5291 -5.96 L -13.5291 -5.37 Q -13.5291 1.07 -14.3091 1.07 L -14.3091 1.07 L -14.4991 1.07 Q -16.0691 0.29 -17.7291 0.29 L -17.7291 0.29 L -23.4891 0.29 Q -32.4691 0.29 -32.4691 -1.56 L -32.4691 -1.56 L -32.1791 -4 L -32.1791 -4.39 Q -32.1791 -4.79 -32.8591 -5.76 L -32.8591 -5.76 L -32.8591 -6.35 Q -32.8591 -6.84 -29.6391 -7.42 L -29.6391 -7.42 L -29.0491 -8.11 L -29.3491 -8.69 L -29.3491 -10.16 Q -29.3491 -11.62 -28.3691 -14.94 L -28.3691 -14.94 L -27.9791 -15.43 Q -28.6591 -16.21 -28.6591 -23.44 L -28.6591 -23.44 L -28.6591 -29.39 L -28.5691 -32.32 Q -28.9591 -33.4 -28.9591 -35.16 L -28.9591 -35.16 L -28.9591 -36.62 Q -28.9591 -38.77 -28.3691 -42.58 L -28.3691 -42.58 Q -28.3691 -43.75 -27.3891 -45.7 L -27.3891 -45.7 L -27.2991 -46.29 Q -27.9791 -49.61 -27.9791 -51.07 L -27.9791 -51.07 L -28.2691 -51.07 Q -29.9291 -49.41 -33.5491 -43.75 L -33.5491 -43.75 Q -37.6491 -36.04 -40.9691 -31.45 L -40.9691 -31.45 L -44.8691 -25.88 Q -45.4591 -25 -46.5291 -25 L -46.5291 -25 L -47.7091 -25.49 Q -48.6791 -25.29 -49.1691 -25 L -49.1691 -25 Q -50.3391 -25 -50.5391 -27.25 L -50.5391 -27.25 Q -51.6091 -29.49 -53.5691 -31.74 L -53.5691 -31.74 Q -55.1291 -33.59 -59.5191 -42.87 L -59.5191 -42.87 L -60.5991 -44.82 L -61.8691 -47.07 L -61.7691 -47.17 L -61.1791 -47.17 Q -60.6891 -47.17 -60.3991 -45.9 L -60.3991 -45.9 L -60.2991 -45.7 L -60.0091 -45.7 L -60.0091 -46.09 Q -60.0091 -49.02 -62.7391 -51.37 L -62.7391 -51.37 L -63.0391 -51.37 L -63.0391 -50.88 L -63.8191 -50.88 L -63.8191 -50.29 L -63.9191 -49.32 L -63.9191 -48.34 Q -62.3491 -26.86 -62.3491 -11.43 L -62.3491 -11.43 Q -62.5491 -10.94 -63.0391 -10.94 L -63.0391 -10.94 Q -63.4291 -10.94 -63.4291 -12.01 L -63.4291 -12.01 L -63.6191 -12.11 L -63.8191 -12.11 L -64.1091 -10.06 Q -62.8391 -9.38 -62.8391 -8.4 L -62.8391 -8.4 L -63.0391 -7.23 Q -64.5991 -7.23 -64.5991 -7.91 L -64.5991 -7.91 L -64.8891 -7.91 L -65.1891 -7.42 L -65.1891 -6.93 Q -65.1891 -6.54 -61.2791 -5.66 L -61.2791 -5.66 L -60.8891 -5.66 Q -60.2091 -5.66 -59.4191 -5.96 L -59.4191 -5.96 Q -55.4191 -5.18 -55.4191 -4.49 L -55.4191 -4.49 L -55.4191 -4.1 L -56.0091 -4 Q -56.6891 -4 -58.0591 -5.08 L -58.0591 -5.08 L -58.5491 -5.08 Q -60.8891 -4.79 -60.8891 -4.3 L -60.8891 -4.3 Q -60.7891 -3.91 -60.2091 -3.91 L -60.2091 -3.91 L -58.8391 -3.91 Q -55.9091 -3.61 -55.9091 -2.83 L -55.9091 -2.83 L -55.7091 -1.86 L -55.7091 -1.27 Q -55.7091 0 -57.7591 0.2 L -57.7591 0.2 Q -59.2291 -0.49 -60.7891 -0.49 L -60.7891 -0.49 L -60.7891 -0.39 Q -60.7891 -0.1 -59.8191 -0.1 L -59.8191 -0.1 Q -58.5491 0.2 -58.5491 0.49 L -58.5491 0.49 L -59.6191 0.59 Q -62.5491 0.59 -71.3391 -0.49 L -71.3391 -0.49 L -73.7791 0.2 Q -75.5391 -0.2 -75.5391 -1.27 L -75.5391 -1.27 L -75.5391 -1.86 Q -76.7091 -1.86 -77.0991 -4.3 L -77.0991 -4.3 L -77.1991 -4.49 L -77.1991 -4.98 Q -76.1191 -6.93 -73.2891 -6.93 L -73.2891 -6.93 Q -70.8491 -7.52 -70.8491 -7.81 L -70.8491 -7.81 L -70.8491 -7.91 L -72.5091 -53.13 L -72.3191 -57.32 L -72.7091 -58.89 Q -72.7091 -60.94 -70.3591 -60.94 Z M -63.4291 -54.98 L -63.4291 -54.98 Q -62.2591 -52.83 -59.6191 -49.9 L -59.6191 -49.9 L -56.0091 -42.68 L -55.7091 -42.68 Q -55.7091 -44.34 -59.5191 -52.54 L -59.5191 -52.54 Q -59.5191 -53.22 -61.4791 -54.98 L -61.4791 -54.98 L -61.6691 -55.57 L -62.2591 -55.57 Q -63.4291 -55.47 -63.4291 -54.98 Z M -65.0891 -24.32 L -65.0891 -24.32 Q -65.2791 -23.73 -65.2791 -23.05 L -65.2791 -23.05 L -65.2791 -17.58 L -65.1891 -12.4 L -65.0891 -12.21 L -64.8891 -12.21 Q -63.9191 -12.21 -63.6191 -13.57 L -63.6191 -13.57 L -63.6191 -14.16 Q -64.0091 -14.16 -64.2091 -15.23 L -64.2091 -15.23 L -64.1091 -16.99 L -64.1091 -17.09 Q -64.1091 -19.43 -64.5991 -20.61 L -64.5991 -20.61 L -64.3091 -21.97 Q -64.4091 -24.12 -65.0891 -24.32 Z M -40.4791 -40.63 L -40.4791 -40.63 L -40.2791 -40.43 Q -39.4991 -40.92 -38.2291 -43.85 L -38.2291 -43.85 Q -37.3491 -44.73 -36.6691 -47.27 L -36.6691 -47.27 L -36.6691 -47.46 L -37.0591 -47.66 Q -38.4291 -47.66 -40.4791 -40.63 Z M -21.7291 -40.63 L -21.7291 -40.63 Q -21.5291 -34.28 -20.8491 -33.98 L -20.8491 -33.98 L -20.6591 -34.18 L -20.6591 -37.3 Q -20.6591 -41.02 -20.9491 -42.87 L -20.9491 -42.87 L -21.2391 -42.87 Q -21.7291 -42.87 -21.7291 -40.63 Z M -65.4791 -36.33 L -65.4791 -36.33 Q -65.2791 -31.15 -64.7991 -31.15 L -64.7991 -31.15 L -64.5991 -31.15 L -64.5991 -32.42 Q -64.5991 -35.45 -64.7991 -38.57 L -64.7991 -38.57 L -64.8891 -38.57 Q -65.2791 -38.57 -65.4791 -36.33 Z M -66.9391 -51.07 L -66.9391 -51.07 L -67.4291 -51.07 L -67.5291 -50.49 L -67.5291 -47.07 Q -67.5291 -45.31 -67.0391 -45.31 Q -66.5491 -45.31 -66.5491 -47.85 L -66.5491 -47.85 Q -66.5491 -49.9 -66.9391 -51.07 Z M -20.6591 -15.43 L -20.6591 -15.43 Q -21.2391 -14.84 -21.2391 -13.18 L -21.2391 -13.18 L -21.2391 -11.72 L -20.8491 -11.13 L -20.2591 -11.13 Q -19.9691 -11.13 -19.8691 -12.11 L -19.8691 -12.11 Q -20.2591 -15.43 -20.6591 -15.43 Z M -69.1891 -20.7 L -69.1891 -20.7 L -69.0891 -20.61 Q -68.2091 -20.61 -68.2091 -23.54 L -68.2091 -23.54 L -68.2091 -26.66 L -68.3091 -27.25 Q -68.7991 -27.25 -69.1891 -20.7 Z M -70.6591 -56.15 L -70.6591 -56.15 L -70.7491 -56.05 L -70.7491 -55.96 Q -70.3591 -51.46 -69.8691 -51.46 L -69.8691 -51.46 Q -69.4791 -52.15 -69.4791 -53.22 L -69.4791 -53.22 L -69.4791 -54 Q -69.4791 -56.05 -70.6591 -56.15 Z M -74.7591 -5.76 L -75.5391 -5.76 L -75.9291 -5.47 L -75.9291 -4.98 Q -75.9291 -4.3 -74.7591 -3.32 L -74.7591 -3.32 L -74.5591 -3.32 Q -74.2691 -3.32 -74.1691 -4 L -74.1691 -4 Q -74.2691 -5.76 -74.7591 -5.76 L -74.7591 -5.76 Z M -23.8791 -16.8 L -23.8791 -16.99 L -24.2691 -16.99 Q -24.9491 -15.23 -24.9491 -13.87 L -24.9491 -13.87 Q -24.6591 -12.7 -24.2691 -12.7 L -24.2691 -12.7 L -24.0691 -12.7 L -23.8791 -16.8 Z M -68.2091 -57.32 L -68.2091 -57.32 L -68.3091 -57.32 L -68.3091 -56.74 Q -67.6291 -53.13 -66.9391 -53.13 L -66.9391 -53.13 L -66.6491 -53.13 L -66.6491 -53.52 L -67.3291 -55.18 Q -67.3291 -56.64 -68.2091 -57.32 Z M -69.0891 -13.57 L -69.0891 -13.57 L -69.0891 -12.01 L -68.6991 -11.82 L -68.5091 -11.82 L -68.2091 -13.96 L -68.3091 -14.65 L -68.5091 -14.65 Q -68.8991 -14.65 -69.0891 -13.57 Z M -65.2791 -1.27 L -67.6291 -1.37 L -68.2091 -1.07 Q -67.5291 -0.68 -66.5491 -0.68 L -66.5491 -0.68 L -66.2591 -0.68 L -65.2791 -0.88 L -65.2791 -1.27 Z M -30.1291 -57.03 L -30.1291 -57.03 L -30.0291 -56.93 Q -29.7391 -56.93 -28.6591 -58.3 L -28.6591 -58.3 L -28.6591 -58.89 L -28.9591 -58.89 Q -29.7391 -58.4 -30.1291 -57.03 Z M -68.5091 -30.57 L -68.5091 -30.57 L -68.6991 -30.57 L -68.6991 -29.69 L -68.6991 -29.59 Q -68.6991 -28.13 -68.3091 -28.13 L -68.3091 -28.13 L -68.0191 -29.1 Q -68.2091 -30.57 -68.5091 -30.57 Z M -29.6391 -4.69 L -30.2291 -4.69 L -30.5191 -4.3 L -30.5191 -3.91 L -30.3191 -3.71 L -28.9591 -4 L -28.9591 -4.3 Q -29.0491 -4.69 -29.6391 -4.69 L -29.6391 -4.69 Z M -69.4791 -41.89 L -69.6791 -42.68 L -70.0691 -42.68 L -70.0691 -40.23 L -69.7791 -40.04 L -69.6791 -40.04 L -69.4791 -41.6 L -69.4791 -41.89 Z M -45.1691 -32.03 L -45.1691 -32.32 L -45.4591 -32.32 Q -46.0491 -31.45 -46.0491 -30.96 L -46.0491 -30.96 L -46.0491 -30.76 L -45.7491 -30.76 Q -45.2591 -30.76 -45.1691 -32.03 L -45.1691 -32.03 Z M -61.7691 -0.68 L -63.8191 -0.88 L -64.4991 -0.88 L -64.4991 -0.68 L -63.3291 -0.39 L -61.7691 -0.39 L -61.7691 -0.68 Z M -65.1891 -58.4 L -65.6691 -58.4 L -66.2591 -58.3 L -66.2591 -58.01 Q -66.2591 -57.81 -65.4791 -57.62 L -65.4791 -57.62 Q -64.8891 -57.81 -64.8891 -58.01 L -64.8891 -58.01 L -64.8891 -58.2 L -65.1891 -58.4 Z M -31.2991 -54.98 L -31.2991 -54.98 L -31.0991 -54.98 L -31.0091 -54.98 Q -30.4191 -55.66 -30.4191 -56.15 L -30.4191 -56.15 L -30.4191 -56.35 L -30.5191 -56.35 Q -31.2991 -55.86 -31.2991 -54.98 Z M -29.6391 -1.86 L -29.6391 -1.86 L -30.3191 -1.66 L -30.3191 -1.37 L -30.0291 -1.27 L -28.9591 -1.27 L -28.9591 -1.37 Q -29.1491 -1.86 -29.6391 -1.86 Z M -19.9691 -9.96 L -20.2591 -10.16 L -21.1391 -10.16 L -21.1391 -9.96 L -20.6591 -9.38 L -20.4591 -9.38 L -19.9691 -9.77 L -19.9691 -9.96 Z M -62.3491 -57.62 L -62.3491 -57.62 L -62.3491 -57.52 L -61.2791 -57.52 L -61.1791 -57.62 L -61.1791 -57.81 L -61.2791 -58.01 Q -62.2591 -58.01 -62.3491 -57.62 Z M -24.9491 -42.58 L -24.9491 -42.58 L -24.9491 -42.29 L -24.7591 -41.99 Q -24.3691 -42.09 -24.3691 -42.68 L -24.3691 -42.68 L -24.3691 -43.26 L -24.5591 -43.26 Q -24.9491 -43.16 -24.9491 -42.58 Z M -65.2791 -27.93 L -65.2791 -27.93 L -65.2791 -27.54 L -65.1891 -26.27 L -64.8891 -26.27 L -64.8891 -26.95 Q -64.8891 -27.93 -65.2791 -27.93 Z M -63.8191 -9.18 L -64.2091 -9.18 L -64.4991 -8.98 L -64.2091 -8.69 L -63.8191 -8.69 L -63.6191 -8.98 L -63.8191 -9.18 Z M -26.9091 -9.67 L -26.9091 -10.16 L -27.1991 -10.16 L -27.2991 -9.57 L -27.2991 -9.38 L -26.9991 -9.38 L -26.9091 -9.67 Z M -22.6091 -8.69 L -22.9991 -9.08 L -23.3891 -8.69 L -23.1891 -8.4 L -22.6091 -8.4 L -22.6091 -8.69 Z M -24.7591 -39.55 L -24.9491 -39.84 L -25.1491 -39.84 L -25.1491 -39.45 L -24.9491 -38.87 L -24.7591 -38.87 L -24.7591 -39.55 Z M -24.5591 -44.34 L -24.5591 -44.34 L -24.3691 -44.34 Q -24.0691 -44.53 -24.0691 -45.21 L -24.0691 -45.21 Q -24.5591 -45.02 -24.5591 -44.34 Z M -23.3891 -21.48 L -23.5791 -21.68 L -23.8791 -21.68 L -23.9791 -21.39 L -23.5791 -21.09 L -23.3891 -21.39 L -23.3891 -21.48 Z M -23.6791 -11.04 L -23.6791 -11.13 L -24.2691 -11.13 L -24.2691 -10.74 L -23.9791 -10.74 L -23.6791 -11.04 Z M -74.0691 -1.56 L -74.1691 -1.95 L -74.5591 -1.95 L -74.5591 -1.66 L -74.3691 -1.37 L -74.1691 -1.56 L -74.0691 -1.56 Z M -70.8491 -57.81 L -70.8491 -58.3 L -71.1391 -58.3 L -71.1391 -58.01 L -70.9491 -57.81 L -70.8491 -57.81 Z M -69.0891 -9.57 L -69.1891 -9.77 L -69.3891 -9.77 L -69.3891 -9.28 L -69.0891 -9.28 L -69.0891 -9.57 Z M -7.86414 -61.72 L -7.86414 -61.72 L -6.69414 -61.33 Q -1.70414 -61.72 16.2559 -61.72 L 16.2559 -61.72 L 20.9459 -60.25 Q 25.4359 -59.67 27.0059 -58.4 L 27.0059 -58.4 Q 34.2259 -52.05 34.2259 -47.46 L 34.2259 -47.46 Q 33.7359 -44.92 32.1759 -39.45 L 32.1759 -39.45 Q 28.7559 -35.94 25.7359 -33.69 L 25.7359 -33.69 Q 25.7359 -32.81 27.5859 -32.13 L 27.5859 -32.13 Q 28.5659 -31.45 30.7159 -30.57 L 30.7159 -30.57 Q 31.8859 -29.39 34.5259 -25.88 L 34.5259 -25.88 Q 38.0359 -22.36 38.6259 -17.38 L 38.6259 -17.38 L 38.7159 -16.31 Q 38.7159 -15.33 38.0359 -15.33 L 38.0359 -15.33 L 38.0359 -15.23 Q 38.0359 -14.65 39.1159 -12.7 L 39.1159 -12.7 L 39.1159 -11.82 Q 39.1159 -10.94 37.7459 -7.91 L 37.7459 -7.91 Q 37.7459 -6.64 35.5959 -6.25 L 35.5959 -6.25 Q 34.3259 -6.25 33.0559 -4.49 L 33.0559 -4.49 L 33.0559 -4.3 Q 33.0559 -4.1 33.8359 -3.91 L 33.8359 -3.91 L 33.8359 -3.81 Q 33.6459 -3.32 33.1559 -3.32 L 33.1559 -3.32 Q 33.1559 -3.91 32.8659 -3.91 L 32.8659 -3.91 Q 32.6659 -3.91 32.4659 -3.13 L 32.4659 -3.13 Q 30.7159 -3.13 28.2759 -1.56 L 28.2759 -1.56 L 28.2759 -1.37 L 28.5659 -1.37 Q 29.1459 -1.37 31.3959 -2.34 L 31.3959 -2.34 L 31.3959 -2.25 Q 29.9359 -0.88 25.4359 0.1 L 25.4359 0.1 Q 19.1859 2.93 0.245859 2.93 L 0.245859 2.93 L 0.245859 2.73 L 0.145859 2.25 Q -4.34414 2.25 -8.05414 4 L -8.05414 4 Q -9.61414 4 -9.61414 -1.37 L -9.61414 -1.37 Q -9.61414 -2.15 -3.76414 -3.81 L -3.76414 -3.81 Q 0.535859 -4.3 0.535859 -4.69 L 0.535859 -4.69 L 0.535859 -4.79 Q -0.0441406 -4.79 -0.834141 -12.99 L -0.834141 -12.99 Q -1.02414 -16.21 -1.41414 -17.38 L -1.41414 -17.38 Q -1.41414 -18.46 -0.634141 -20.21 L -0.634141 -20.21 Q -0.834141 -27.25 -1.70414 -27.25 L -1.70414 -27.25 Q -2.29414 -27.25 -2.68414 -43.16 L -2.68414 -43.16 L -2.68414 -53.13 Q -4.83414 -54 -5.51414 -54 L -5.51414 -54 L -6.20414 -54 Q -6.88414 -54 -7.08414 -53.52 L -7.08414 -53.52 L -7.08414 -53.32 L -6.98414 -52.54 Q -6.98414 -52.34 -8.35414 -49.32 L -8.35414 -49.32 L -8.35414 -49.12 L -9.91414 -49.02 Q -10.2041 -49.51 -11.7641 -49.61 L -11.7641 -49.61 Q -12.6441 -49.61 -12.9441 -55.37 L -12.9441 -55.37 Q -13.2341 -57.03 -14.0141 -59.18 L -14.0141 -59.18 Q -12.5441 -61.23 -10.7941 -61.23 L -10.7941 -61.23 Q -10.7941 -61.43 -7.86414 -61.72 Z M 1.21586 -58.5 L 1.21586 -58.5 L 1.41586 -58.4 L 4.14586 -58.4 Q 7.86586 -58.4 7.86586 -59.18 L 7.86586 -59.18 L 7.86586 -59.28 Q 7.86586 -59.38 7.27586 -59.57 L 7.27586 -59.57 Q 1.51586 -59.28 1.21586 -58.5 Z M -3.17414 -58.79 L -3.17414 -58.79 L -0.634141 -58.01 L -0.444141 -58.01 Q 0.145859 -58.01 0.535859 -58.59 L 0.535859 -58.59 Q 0.535859 -59.08 -1.70414 -59.28 L -1.70414 -59.28 Q -3.17414 -59.18 -3.17414 -58.79 Z M 10.4959 -58.98 L 10.4959 -59.28 L 10.0059 -59.28 L 10.0059 -58.98 L 10.4959 -58.98 Z M 26.8059 -56.93 L 26.3159 -56.93 L 26.0259 -56.64 L 26.0259 -56.54 L 26.4159 -56.05 L 27.0059 -56.05 L 27.1959 -56.35 L 27.1959 -56.45 L 26.8059 -56.93 Z M 2.97586 -55.57 L 2.97586 -55.57 L 2.97586 -55.37 L 3.27586 -54.98 L 3.66586 -54.98 Q 8.64586 -55.47 9.03586 -56.15 L 9.03586 -56.15 L 8.83586 -56.35 Q 2.97586 -56.05 2.97586 -55.57 Z M 3.66586 -52.93 L 3.66586 -52.93 Q 4.44586 -31.93 5.02586 -31.93 L 5.02586 -31.93 L 5.32586 -31.74 L 5.41586 -31.74 L 14.3059 -33.79 Q 20.1659 -34.57 20.1659 -35.35 L 20.1659 -35.35 Q 27.1959 -40.82 27.1959 -42.87 L 27.1959 -42.87 L 27.1959 -43.46 Q 26.1259 -49.02 26.1259 -49.71 L 26.1259 -49.71 Q 26.1259 -52.25 22.7059 -54.49 L 22.7059 -54.49 Q 21.4359 -54.79 17.9159 -54.88 L 17.9159 -54.88 Q 3.66586 -54.1 3.66586 -52.93 Z M 26.3159 -54 L 26.3159 -54 L 25.4359 -54 L 25.4359 -53.71 Q 27.1959 -52.15 27.1959 -49.32 L 27.1959 -49.32 Q 27.9759 -46.48 28.2759 -46 L 28.2759 -46 L 28.4659 -46 L 28.4659 -46.88 Q 27.5859 -54 26.3159 -54 Z M 32.1759 -51.46 L 31.6859 -51.86 L 31.3959 -51.86 L 31.3959 -51.56 L 31.8859 -51.17 L 32.1759 -51.17 L 32.1759 -51.46 Z M 30.3259 -49.61 L 29.9359 -49.61 L 29.6359 -49.32 L 29.7359 -48.93 L 30.0259 -48.93 L 30.6159 -49.41 L 30.3259 -49.61 Z M 30.6159 -46.58 L 30.6159 -47.07 L 30.3259 -47.27 L 30.2259 -47.17 L 30.2259 -46.68 L 30.4159 -46.48 L 30.6159 -46.58 Z M -1.41414 -44.63 L -1.41414 -44.63 L -1.70414 -44.34 L -1.70414 -43.46 L -1.41414 -43.26 L -1.31414 -43.26 L -1.02414 -43.46 L -1.02414 -43.85 Q -1.02414 -44.53 -1.41414 -44.63 Z M 24.8559 -35.74 L 24.7559 -35.74 L 24.3659 -35.35 L 24.6559 -35.35 L 24.8559 -35.55 L 24.8559 -35.74 Z M 10.5959 -31.45 L 10.5959 -31.45 L 10.8859 -31.45 L 10.8859 -31.35 Q 16.9459 -31.84 16.9459 -32.42 L 16.9459 -32.42 L 16.9459 -32.52 L 16.4559 -32.52 Q 11.0859 -32.42 10.5959 -31.45 Z M 20.9459 -31.54 L 20.9459 -31.54 L 20.9459 -31.35 L 21.0459 -31.35 Q 23.0959 -31.35 26.3159 -30.37 L 26.3159 -30.37 Q 26.6159 -30.37 26.6159 -30.76 L 26.6159 -30.76 Q 26.0259 -32.13 23.9759 -32.13 L 23.9759 -32.13 L 22.8959 -32.13 Q 20.9459 -32.13 20.9459 -31.54 Z M 27.8859 -30.08 L 27.8859 -30.08 L 27.8859 -29.98 Q 29.0559 -28.61 30.0259 -28.61 L 30.0259 -28.61 L 30.0259 -28.71 Q 30.0259 -29.69 27.8859 -30.08 Z M 10.9859 -27.93 L 10.9859 -27.93 Q 10.9859 -27.73 11.3759 -27.73 L 11.3759 -27.73 Q 14.0159 -27.83 16.9459 -28.52 L 16.9459 -28.52 L 20.3659 -28.61 L 21.5359 -28.61 L 22.2159 -28.71 L 22.2159 -28.91 Q 22.2159 -29.39 19.2859 -29.39 L 19.2859 -29.39 L 17.5259 -29.39 Q 12.2559 -29.39 10.9859 -27.93 Z M 10.0059 -28.13 L 10.0059 -28.32 L 9.61586 -28.32 L 9.61586 -28.13 L 10.0059 -28.13 Z M 24.8559 -27.93 L 24.8559 -28.32 L 24.6559 -28.32 L 24.6559 -27.93 L 24.8559 -27.93 Z M 4.83586 -26.95 L 4.83586 -26.95 L 4.83586 -26.76 L 5.12586 -26.76 Q 7.56586 -27.05 7.56586 -27.54 L 7.56586 -27.54 L 7.27586 -27.54 Q 6.39586 -27.54 4.83586 -26.95 Z M 4.63586 -25.49 L 4.63586 -25.49 L 4.34586 -25 L 4.24586 -22.85 Q 4.63586 -6.15 5.71586 -3.91 L 5.71586 -3.91 Q 6.20586 -2.25 8.05586 -2.25 L 8.05586 -2.25 L 16.7459 -1.86 Q 22.0259 -2.15 29.6359 -6.35 L 29.6359 -6.35 Q 33.3459 -10.06 33.3459 -11.43 L 33.3459 -11.43 Q 33.7359 -11.43 33.8359 -12.4 L 33.8359 -12.4 L 33.8359 -12.7 Q 33.8359 -17.09 31.2059 -22.07 L 31.2059 -22.07 Q 28.4659 -25 26.8059 -25 L 26.8059 -25 L 26.0259 -25 Q 25.4359 -25.2 25.4359 -25.29 L 25.4359 -25.29 Q 25.4359 -25.68 26.1259 -25.68 L 26.1259 -25.68 L 26.1259 -25.88 Q 25.4359 -26.86 23.9759 -26.86 L 23.9759 -26.86 L 23.8759 -26.86 L 23.8759 -26.76 L 24.3659 -26.17 L 24.3659 -25.98 L 24.1659 -25.98 Q 19.6759 -27.44 16.9459 -27.44 L 16.9459 -27.44 L 16.4559 -27.44 Q 9.71586 -27.44 4.63586 -25.49 Z M 30.7159 -26.66 L 30.6159 -26.66 L 30.3259 -26.46 Q 30.7159 -25 32.7659 -23.44 L 32.7659 -23.44 L 33.0559 -23.44 L 33.0559 -23.83 Q 32.7659 -25.2 30.7159 -26.66 L 30.7159 -26.66 Z M 29.4459 -3.71 L 29.4459 -3.71 L 29.6359 -3.52 L 29.7359 -3.52 Q 31.0059 -3.52 31.6859 -4.98 L 31.6859 -4.98 L 31.6859 -5.08 L 31.5959 -5.08 Q 29.4459 -4.39 29.4459 -3.71 Z M 1.80586 -4.3 L 1.70586 -4.49 L 1.12586 -4.49 L 1.12586 -4.39 Q 1.21586 -4 1.80586 -4 L 1.80586 -4 L 1.80586 -4.3 Z M 26.8059 -2.54 L 26.8059 -2.54 L 26.8059 -2.15 L 27.1959 -2.15 Q 27.8859 -2.15 28.4659 -3.03 L 28.4659 -3.03 L 28.4659 -3.32 Q 26.8059 -3.03 26.8059 -2.54 Z M -0.444141 -0.88 L -0.924141 -0.88 L -1.61414 -0.88 L -1.61414 -0.39 L -0.924141 -0.39 L -0.444141 -0.39 L 0.145859 -0.39 L 0.145859 -0.88 L -0.444141 -0.88 Z M 8.54586 0.29 L 8.25586 0.1 L 8.05586 0.29 L 8.54586 0.29 Z M -4.63414 0.49 L -5.32414 0.49 L -5.61414 0.59 Q -5.42414 1.07 -4.83414 1.07 L -4.83414 1.07 L -4.44414 0.59 L -4.63414 0.49 Z M 42.7249 -70.7 L 42.7249 -70.7 L 42.8249 -70.61 L 42.8249 -70.51 L 42.5249 -70.21 Q 42.6249 -69.82 43.3149 -69.82 L 43.3149 -69.82 L 43.5049 -69.82 L 43.7049 -70.12 L 43.3149 -70.61 L 43.5049 -70.7 L 47.3149 -70.7 Q 50.7349 -70.7 50.7349 -68.65 L 50.7349 -68.65 L 51.0249 -68.26 L 51.3149 -68.26 L 51.6149 -68.46 L 51.6149 -68.65 L 51.3149 -69.43 L 51.4149 -69.63 L 51.6149 -69.63 Q 54.0549 -69.63 54.0549 -64.36 L 54.0549 -64.36 Q 54.0549 -52.54 55.4249 -46.88 L 55.4249 -46.88 L 55.8149 -46.88 L 61.8649 -47.17 Q 72.9949 -46.48 72.9949 -45.21 L 72.9949 -45.21 Q 73.3849 -45.21 76.8049 -42.19 L 76.8049 -42.19 Q 82.3749 -37.5 83.9349 -33.01 L 83.9349 -33.01 Q 85.6949 -31.05 85.6949 -22.36 L 85.6949 -22.36 L 85.7949 -19.43 Q 82.8649 -13.38 82.8649 -12.21 L 82.8649 -12.21 Q 82.8649 -8.69 75.0449 -2.93 L 75.0449 -2.93 Q 73.9749 -0.49 63.1349 -0.39 L 63.1349 -0.39 Q 58.3449 -1.27 56.4949 -1.27 L 56.4949 -1.27 L 54.2449 -1.27 Q 52.5849 -1.27 52.5849 0.1 L 52.5849 0.1 L 50.5349 2.73 Q 48.8749 3.22 47.9049 3.22 L 47.9049 3.22 Q 46.7249 3.22 43.1149 1.37 L 43.1149 1.37 L 43.1149 1.07 Q 43.7949 0.29 43.7949 -0.49 L 43.7949 -0.49 L 43.7949 -0.88 L 43.5049 -2.64 L 43.7049 -4 L 43.7049 -5.76 L 43.3149 -7.71 Q 44.4849 -14.06 44.4849 -16.31 L 44.4849 -16.31 L 44.7749 -17.29 L 44.5849 -18.55 L 45.4549 -25.49 L 45.4549 -25.88 Q 45.4549 -28.42 44.1849 -41.7 L 44.1849 -41.7 L 44.1849 -41.89 L 43.9949 -41.99 L 44.1849 -42.68 L 44.1849 -43.07 Q 44.5849 -49.02 44.5849 -54 L 44.5849 -54 L 44.5849 -61.33 L 44.4849 -61.91 L 44.2849 -61.91 Q 40.5749 -59.96 38.9149 -59.96 L 38.9149 -59.96 Q 37.7449 -59.96 37.4549 -65.23 L 37.4549 -65.23 Q 37.4549 -65.63 38.0349 -66.31 L 38.0349 -66.31 L 38.0349 -66.6 L 37.8449 -66.6 L 37.5449 -66.5 L 37.4549 -66.6 Q 37.4549 -70.31 38.2349 -70.31 L 38.2349 -70.31 Q 39.3049 -70.7 42.7249 -70.7 Z M 50.7349 -70.51 L 50.8349 -70.61 L 51.3149 -70.61 L 51.3149 -70.31 L 50.8349 -70.21 L 50.7349 -70.31 L 50.7349 -70.51 Z M 45.4549 -68.95 L 45.4549 -69.04 L 45.1649 -69.04 L 45.1649 -68.95 L 45.4549 -68.95 Z M 47.7049 -69.04 L 47.3149 -69.04 L 47.0249 -68.75 L 47.0249 -68.65 L 47.7049 -68.65 L 47.7049 -69.04 Z M 39.3049 -68.75 L 39.3049 -68.75 L 38.2349 -68.75 L 38.2349 -68.65 Q 38.2349 -68.36 40.2849 -67.87 L 40.2849 -67.87 Q 42.3349 -67.97 42.3349 -68.36 L 42.3349 -68.36 L 42.3349 -68.46 Q 41.1649 -68.75 39.3049 -68.75 Z M 48.8749 -67.48 L 48.5849 -67.48 L 48.0949 -66.99 L 48.0949 -65.43 L 48.3849 -65.23 Q 49.1749 -65.72 49.1749 -66.8 L 49.1749 -66.8 Q 49.1749 -67.38 48.8749 -67.48 L 48.8749 -67.48 Z M 44.8749 -65.63 L 44.8749 -65.63 L 45.2649 -65.33 L 46.3349 -65.33 L 46.7249 -65.82 L 46.7249 -66.31 L 46.3349 -66.6 Q 44.8749 -66.6 44.8749 -65.63 Z M 39.8949 -66.5 L 39.8949 -66.5 L 39.6949 -66.5 L 39.5949 -65.92 L 39.5949 -65.04 Q 39.5949 -64.65 40.5749 -64.55 L 40.5749 -64.55 Q 41.9449 -64.55 42.1349 -65.43 L 42.1349 -65.43 Q 40.7749 -66.5 39.8949 -66.5 Z M 43.7949 -65.92 L 43.5049 -66.21 L 42.7249 -66.21 L 42.7249 -66.02 L 43.0149 -65.63 L 43.7949 -65.63 L 43.7949 -65.92 Z M 48.1949 -58.3 L 48.1949 -58.3 Q 48.4849 -56.15 48.9749 -56.15 L 48.9749 -56.15 L 49.0749 -56.15 L 49.0749 -56.35 Q 48.8749 -58.59 48.3849 -58.59 L 48.3849 -58.59 Q 48.1949 -58.59 48.1949 -58.3 Z M 68.4049 -44.73 L 67.9249 -45.21 L 67.1349 -45.21 L 67.1349 -45.02 Q 67.4349 -44.43 68.3149 -44.43 L 68.3149 -44.43 L 68.4049 -44.43 L 68.4049 -44.73 Z M 60.0049 -44.14 L 60.0049 -44.14 L 60.3049 -43.85 L 60.8849 -43.85 L 61.7649 -44.14 L 61.7649 -44.63 L 61.2749 -44.73 Q 60.4949 -44.73 60.0049 -44.14 Z M 55.6149 -41.31 L 55.6149 -41.31 L 55.6149 -40.92 L 55.8149 -40.92 Q 58.2549 -41.31 58.2549 -41.7 L 58.2549 -41.7 L 58.2549 -41.99 L 58.0549 -41.99 Q 56.9849 -41.99 55.6149 -41.31 Z M 70.9449 -41.7 L 70.9449 -41.7 L 70.5549 -41.7 Q 70.5549 -40.72 73.3849 -39.94 L 73.3849 -39.94 Q 75.3449 -37.3 76.2249 -37.3 L 76.2249 -37.3 L 76.2249 -37.4 Q 75.6349 -39.45 74.4649 -40.23 L 74.4649 -40.23 Q 71.8249 -41.7 70.9449 -41.7 Z M 52.7849 -22.27 L 52.7849 -22.27 Q 52.7849 -19.92 52.9749 -17.77 L 52.9749 -17.77 L 52.8849 -15.33 L 52.8849 -10.94 Q 52.8849 -9.67 57.4749 -8.3 L 57.4749 -8.3 Q 58.5449 -7.91 61.1849 -7.91 L 61.1849 -7.91 Q 66.0649 -7.91 73.3849 -11.04 L 73.3849 -11.04 Q 75.7349 -12.89 78.6649 -18.85 L 78.6649 -18.85 L 79.2449 -21.29 Q 79.2449 -26.27 76.2249 -31.74 L 76.2249 -31.74 Q 75.5349 -34.77 72.9949 -37.11 L 72.9949 -37.11 L 68.6049 -40.23 Q 61.7649 -40.23 54.4449 -37.3 L 54.4449 -37.3 Q 53.6649 -37.3 53.3649 -30.37 L 53.3649 -30.37 Q 52.7849 -26.95 52.7849 -22.27 Z M 83.0549 -32.42 L 83.0549 -32.42 L 82.8649 -32.42 L 82.8649 -32.03 Q 82.8649 -31.35 83.5449 -31.35 L 83.5449 -31.35 L 83.6449 -31.35 L 83.6449 -31.45 Q 83.6449 -32.13 83.0549 -32.42 Z M 79.9349 -29.59 L 79.7349 -29.88 L 79.4449 -29.88 L 79.4449 -29.59 L 79.7349 -29.39 L 79.9349 -29.39 L 79.9349 -29.59 Z M 80.4249 -9.38 L 80.4249 -9.38 L 80.4249 -9.28 Q 81.7849 -9.28 82.3749 -13.67 L 82.3749 -13.67 L 81.6849 -13.67 Q 81.2949 -13.67 80.6149 -10.06 L 80.6149 -10.06 Q 80.4249 -10.06 80.4249 -9.38 Z M 77.9749 -11.04 L 77.9749 -11.04 L 77.9749 -10.94 L 78.2749 -10.74 Q 79.3449 -11.23 79.3449 -11.82 L 79.3449 -11.82 L 79.0549 -12.11 L 78.7549 -12.11 Q 77.9749 -11.62 77.9749 -11.04 Z M 71.0449 -8.69 L 71.0449 -8.69 L 71.0449 -8.4 L 71.3349 -8.3 L 71.5349 -8.3 Q 72.8049 -8.3 72.8049 -8.79 L 72.8049 -8.79 L 72.5049 -9.18 L 71.9249 -9.18 Q 71.2449 -9.18 71.0449 -8.69 Z M 53.6649 -8.79 L 53.6649 -8.79 L 53.6649 -8.69 Q 53.7549 -8.3 54.3449 -8.3 L 54.3449 -8.3 L 54.3449 -8.4 Q 54.2449 -8.79 53.6649 -8.79 Z M 50.0449 -8.69 L 50.0449 -8.69 L 49.8549 -8.4 L 49.8549 -7.81 L 50.0449 -7.52 L 50.1449 -7.52 L 50.4349 -7.81 L 50.4349 -7.91 Q 50.4349 -8.59 50.0449 -8.69 Z M 74.0749 -5.96 L 74.0749 -5.96 L 74.0749 -5.66 Q 77.1949 -6.54 77.4949 -7.13 L 77.4949 -7.13 L 77.4949 -7.32 Q 76.6149 -7.32 74.0749 -5.96 Z M 44.5849 -5.76 L 44.4849 -6.15 L 44.1849 -6.15 L 44.1849 -5.76 L 44.4849 -5.66 L 44.5849 -5.66 L 44.5849 -5.76 Z M 70.3649 -5.47 L 69.3849 -5.47 L 69.1849 -5.27 L 69.1849 -4.98 L 70.0649 -4.98 L 70.3649 -5.37 L 70.3649 -5.47 Z M 62.1549 -3.81 L 62.1549 -3.81 L 62.3549 -3.71 L 63.3349 -3.71 Q 65.6749 -3.91 65.9649 -4.39 L 65.9649 -4.39 L 65.9649 -4.69 L 65.6749 -4.69 Q 63.2349 -4.69 62.1549 -3.81 Z M 54.1549 -4.1 L 54.1549 -4.1 L 53.4649 -4.1 L 53.4649 -3.91 Q 53.4649 -3.52 55.1249 -3.32 L 55.1249 -3.32 L 55.3249 -3.32 L 55.3249 -3.71 Q 55.3249 -3.91 54.1549 -4.1 Z M 48.8749 -2.34 L 48.8749 -2.34 L 49.1749 -2.25 Q 50.0449 -2.73 50.0449 -3.13 L 50.0449 -3.13 L 49.5649 -3.13 Q 48.8749 -3.13 48.8749 -2.34 Z M 47.3149 -2.05 L 46.9249 -2.54 L 46.4349 -2.34 L 46.4349 -2.05 L 46.9249 -1.66 L 47.3149 -1.66 L 47.3149 -2.05 Z M 70.3649 -1.27 L 70.3649 -1.56 L 70.0649 -1.56 L 70.0649 -1.27 L 70.3649 -1.27 Z M 93.1195 -72.95 L 93.1195 -72.95 L 94.5795 -73.34 L 98.6795 -72.27 L 105.029 -72.56 Q 107.469 -72.56 107.469 -71.09 L 107.469 -71.09 Q 106.889 -67.38 106.889 -61.23 L 106.889 -61.23 L 106.889 -45.9 L 106.789 -31.15 L 106.889 -27.25 L 106.399 -8.69 Q 109.719 -7.81 116.459 -7.42 L 116.459 -7.42 L 116.549 -7.32 L 116.549 -5.96 Q 116.549 -5.47 117.629 -4.39 L 117.629 -4.39 Q 116.549 -2.05 115.189 2.54 L 115.189 2.54 L 114.309 3.22 L 114.009 3.22 Q 113.429 2.34 111.569 2.34 L 111.569 2.34 L 95.5595 0.2 Q 88.3295 0.2 88.3295 -0.68 L 88.3295 -0.68 Q 89.4995 -3.03 90.0895 -8.3 L 90.0895 -8.3 L 90.1895 -8.3 L 90.1895 -8.4 L 91.1595 -8.3 L 92.1395 -8.3 Q 92.6295 -8.59 94.9695 -9.08 L 94.9695 -9.08 Q 95.9495 -8.59 96.4395 -8.59 L 96.4395 -8.59 L 97.6095 -8.59 Q 98.5795 -8.59 98.5795 -10.55 L 98.5795 -10.55 Q 98.7794 -12.89 99.5595 -31.93 L 99.5595 -31.93 Q 98.8795 -37.79 98.3895 -64.16 L 98.3895 -64.16 Q 97.9995 -64.84 97.4095 -64.84 L 97.4095 -64.84 L 93.0195 -64.55 Q 91.8495 -64.65 91.8495 -65.33 L 91.8495 -65.33 Q 92.2395 -72.95 93.1195 -72.95 Z M 96.9195 -71.09 L 94.0895 -71.09 L 93.5095 -70.9 L 93.5095 -70.7 Q 93.5095 -69.82 94.4795 -69.82 L 94.4795 -69.82 L 94.7794 -69.82 Q 95.8495 -69.82 96.9195 -70.9 L 96.9195 -70.9 L 96.9195 -71.09 Z M 101.029 -71.09 L 99.0695 -71.09 L 98.8795 -70.8 L 99.6595 -70.61 L 100.639 -70.61 L 101.029 -70.9 L 101.029 -71.09 Z M 102.199 -67.29 L 102.199 -67.29 L 102.199 -67.19 L 102.489 -66.89 L 102.879 -66.89 Q 103.759 -67.48 105.029 -68.07 L 105.029 -68.07 Q 105.519 -68.85 105.519 -69.24 L 105.519 -69.24 L 105.319 -69.43 L 105.029 -69.43 Q 104.149 -69.43 103.269 -68.36 L 103.269 -68.36 Q 102.199 -68.07 102.199 -67.29 Z M 93.7995 -68.85 L 93.5995 -68.85 L 93.1195 -68.36 L 93.1195 -67.68 L 93.5095 -67.29 L 95.4594 -67.29 L 96.1395 -67.29 L 96.1395 -67.68 L 94.3895 -68.46 L 93.7995 -68.85 Z M 101.419 -60.94 L 101.219 -60.94 L 101.029 -60.64 L 101.029 -60.25 L 101.219 -59.96 L 101.419 -59.96 L 101.509 -60.25 L 101.509 -60.64 L 101.419 -60.94 Z M 101.219 -55.47 L 101.029 -55.47 L 100.729 -55.18 L 100.729 -54.98 L 101.219 -54.98 L 101.219 -55.47 Z M 105.519 -48.44 L 105.319 -48.73 L 105.029 -48.73 L 105.029 -48.63 L 105.419 -48.14 L 105.519 -48.14 L 105.519 -48.44 Z M 105.519 -45.51 L 105.519 -46.97 L 105.129 -47.27 L 105.029 -45.31 L 105.029 -44.14 L 105.129 -44.14 Q 105.519 -44.14 105.519 -45.51 L 105.519 -45.51 Z M 100.439 -44.73 L 100.439 -44.73 L 100.439 -44.34 L 100.639 -44.14 L 100.829 -44.34 L 100.829 -44.82 L 100.729 -45.02 Q 100.729 -45.12 101.509 -45.61 L 101.509 -45.61 L 101.509 -45.9 L 101.119 -45.9 Q 100.439 -45.51 100.439 -44.73 Z M 105.419 -42.87 L 105.419 -43.46 L 105.029 -43.46 L 105.029 -42.68 L 105.129 -42.68 L 105.419 -42.87 Z M 101.809 -32.32 L 101.809 -32.32 L 101.809 -32.03 L 101.999 -32.03 Q 102.489 -32.03 102.489 -36.04 L 102.489 -36.04 Q 102.299 -36.04 101.809 -32.32 Z M 104.049 -27.73 L 104.049 -27.73 L 103.859 -27.54 L 103.659 -21.39 L 103.659 -13.18 L 103.859 -9.38 L 103.959 -9.28 L 104.639 -9.28 Q 105.029 -9.28 105.029 -10.16 L 105.029 -10.16 Q 104.929 -27.73 104.049 -27.73 Z M 100.049 -13.18 L 100.049 -13.18 L 100.049 -12.79 Q 100.049 -12.11 100.439 -12.11 L 100.439 -12.11 L 100.829 -12.7 L 100.829 -13.38 Q 100.639 -14.55 100.439 -14.55 L 100.439 -14.55 Q 100.049 -14.55 100.049 -13.18 Z M 94.4795 -6.84 L 94.1895 -6.84 L 93.9895 -6.54 Q 93.9895 -5.76 94.6795 -5.76 L 94.6795 -5.76 L 94.7794 -5.76 L 94.7794 -6.54 L 94.4795 -6.84 Z M 114.399 -6.84 L 113.429 -6.84 L 112.839 -6.74 L 112.839 -6.54 Q 112.939 -5.96 114.499 -5.96 L 114.499 -5.96 L 114.989 -6.35 L 114.989 -6.74 L 114.399 -6.84 Z M 91.6495 -6.54 L 91.3595 -6.54 L 91.1595 -6.25 L 91.1595 -5.96 L 91.5495 -5.76 L 91.7495 -6.15 L 91.6495 -6.54 Z M 96.1395 -5.47 L 96.1395 -5.47 L 96.1395 -5.37 L 96.6295 -5.27 L 97.2195 -5.27 L 97.6095 -5.47 L 97.6095 -5.76 L 96.9195 -5.76 L 96.8295 -5.76 Q 96.1395 -5.76 96.1395 -5.47 Z M 114.799 -3.81 L 113.819 -3.91 L 108.249 -4.1 L 108.249 -4 Q 108.249 -3.42 111.569 -3.32 L 111.569 -3.32 L 114.109 -3.32 L 114.799 -3.52 L 114.799 -3.81 Z M 95.6495 -3.81 L 95.4594 -3.81 L 95.1695 -3.32 L 95.3595 -3.03 L 96.8295 -3.03 Q 98.3895 -3.03 98.3895 -3.32 L 98.3895 -3.32 L 98.3895 -3.52 Q 97.3195 -3.81 95.6495 -3.81 L 95.6495 -3.81 Z M 110.689 -1.37 L 110.689 -1.37 L 111.079 -1.27 L 113.039 -1.27 Q 113.919 -1.27 114.009 -1.56 L 114.009 -1.56 L 114.009 -1.86 L 113.429 -1.95 L 111.959 -1.95 Q 110.689 -1.86 110.689 -1.37 Z M 90.5795 -1.86 L 90.1895 -1.86 L 89.8895 -1.37 L 90.1895 -1.27 L 90.6695 -1.27 L 90.9695 -1.37 L 90.5795 -1.86 Z M 113.819 0.49 L 113.529 0.49 L 112.939 0.49 L 112.939 0.88 L 113.529 1.07 L 113.819 1.07 L 114.399 0.88 L 114.399 0.49 L 113.819 0.49 Z M 145.749 -46.19 L 145.749 -46.19 L 148.489 -45.41 L 149.369 -45.41 Q 154.929 -42.68 159.719 -38.87 L 159.719 -38.87 Q 164.699 -34.57 164.699 -32.42 L 164.699 -32.42 L 164.499 -32.42 Q 163.719 -33.79 162.939 -33.79 L 162.939 -33.79 L 162.839 -33.79 Q 162.549 -33.79 162.549 -33.4 L 162.549 -33.4 Q 162.939 -32.32 164.309 -29.69 L 164.309 -29.69 L 164.499 -29.69 Q 164.699 -29.69 164.989 -30.66 L 164.989 -30.66 L 165.089 -30.66 Q 165.379 -30.57 165.769 -27.83 L 165.769 -27.83 L 166.649 -25.88 L 166.459 -24.61 L 166.749 -21.09 Q 166.069 -18.65 165.479 -14.65 L 165.479 -14.65 Q 165.089 -12.79 156.399 -0.78 L 156.399 -0.78 Q 152.489 2.93 148.779 2.93 L 148.779 2.93 Q 145.359 3.32 141.069 3.32 L 141.069 3.32 L 139.209 3.32 Q 137.549 3.32 130.519 0.49 L 130.519 0.49 Q 121.629 -7.42 121.629 -11.62 L 121.629 -11.62 Q 120.359 -14.26 119.479 -16.5 L 119.479 -16.5 Q 119.479 -17.77 122.119 -24.9 L 122.119 -24.9 Q 122.119 -29.39 124.269 -31.15 L 124.269 -31.15 Q 128.859 -41.02 135.889 -43.95 L 135.889 -43.95 Q 142.039 -46.19 145.749 -46.19 Z M 128.179 -15.53 L 128.179 -15.53 L 128.179 -14.94 Q 129.539 -12.3 131.199 -9.28 L 131.199 -9.28 Q 131.199 -8.3 134.909 -6.54 L 134.909 -6.54 Q 136.669 -4.49 141.459 -3.32 L 141.459 -3.32 L 143.209 -3.13 Q 147.509 -4 149.659 -4.98 L 149.659 -4.98 L 153.179 -7.91 Q 158.639 -13.77 158.449 -17.77 L 158.449 -17.77 L 158.449 -18.65 Q 157.859 -20.21 157.859 -23.73 L 157.859 -23.73 Q 157.859 -26.46 158.249 -28.03 L 158.249 -28.03 Q 158.249 -28.71 154.439 -31.45 L 154.439 -31.45 Q 151.709 -35.35 148.779 -36.23 L 148.779 -36.23 L 147.609 -36.23 Q 136.179 -35.74 136.179 -34.38 L 136.179 -34.38 Q 133.639 -31.84 132.669 -29.39 L 132.669 -29.39 Q 129.539 -26.07 129.539 -25 L 129.539 -25 Q 128.659 -21 128.179 -15.53 Z M 131.199 -39.16 L 131.199 -39.16 L 130.909 -38.67 L 130.909 -38.28 Q 131.499 -38.28 136.869 -42.38 L 136.869 -42.38 L 137.649 -42.68 L 138.229 -42.58 Q 144.779 -43.26 144.779 -43.85 L 144.779 -43.85 L 144.779 -43.95 L 143.209 -44.24 Q 136.569 -44.24 131.199 -39.16 Z M 138.819 -37.11 L 138.819 -37.11 L 138.819 -37.01 L 139.009 -36.72 L 140.379 -36.72 L 147.319 -38.28 L 147.319 -38.48 L 145.459 -38.87 Q 138.819 -38.09 138.819 -37.11 Z M 123.489 -12.79 L 123.489 -12.79 L 123.099 -12.5 L 123.099 -11.82 Q 123.289 -8.5 124.949 -8.11 L 124.949 -8.11 L 125.049 -8.2 L 125.049 -8.3 Q 124.369 -12.79 123.489 -12.79 Z M 138.619 -40.43 L 138.619 -40.43 L 138.619 -39.94 Q 146.239 -40.82 146.239 -41.11 L 146.239 -41.11 L 145.459 -41.41 L 145.359 -41.41 Q 140.679 -41.41 138.619 -40.43 Z M 146.929 -44.14 L 146.929 -44.14 Q 147.409 -42.77 149.069 -42.77 L 149.069 -42.77 L 150.049 -42.68 L 150.249 -42.77 L 150.249 -43.26 Q 150.249 -44.34 148.189 -44.53 L 148.189 -44.53 Q 146.929 -44.43 146.929 -44.14 Z M 129.149 -2.93 L 129.149 -2.93 L 128.469 -2.93 L 128.469 -2.54 Q 129.739 -1.27 133.059 -1.27 L 133.059 -1.27 L 134.129 -1.27 Q 133.639 -1.95 129.149 -2.93 Z M 145.259 0.68 L 145.259 0.68 L 145.259 0.88 Q 145.259 1.17 146.729 1.37 L 146.729 1.37 Q 148.389 1.37 148.389 0.88 L 148.389 0.88 L 148.389 0.68 Q 148.289 0.29 147.709 -0.1 L 147.709 -0.1 L 146.829 -0.1 Q 145.749 -0.1 145.259 0.68 Z M 163.819 -17.87 L 163.819 -17.87 Q 163.919 -14.94 164.309 -14.75 L 164.309 -14.75 L 164.499 -14.75 Q 164.499 -15.82 165.379 -17.09 L 165.379 -17.09 L 165.379 -17.38 L 164.309 -18.85 L 164.109 -18.85 Q 163.919 -18.85 163.819 -17.87 Z M 157.369 -34.67 L 157.369 -34.67 L 156.979 -34.67 Q 157.569 -33.4 159.819 -32.52 L 159.819 -32.52 L 160.209 -32.52 L 160.499 -32.81 L 160.499 -32.91 Q 158.839 -34.67 157.369 -34.67 Z M 155.229 -37.7 L 155.229 -37.7 L 155.229 -37.5 Q 155.519 -36.33 157.959 -35.06 L 157.959 -35.06 L 158.249 -35.06 L 158.449 -35.35 L 158.449 -35.45 Q 157.959 -36.13 155.229 -37.7 Z M 148.779 -40.92 L 148.779 -40.92 L 148.589 -40.82 Q 150.439 -39.36 151.509 -39.36 L 151.509 -39.36 L 151.609 -39.55 L 151.609 -39.65 Q 150.049 -40.92 148.779 -40.92 Z M 135.789 -1.66 L 135.789 -1.66 L 135.789 -1.37 Q 135.789 -0.78 138.529 -0.78 L 138.529 -0.78 L 138.619 -0.88 L 138.619 -1.07 Q 137.349 -1.66 135.789 -1.66 Z M 153.959 -41.99 L 153.759 -41.99 L 153.469 -41.7 Q 154.539 -40.33 155.619 -40.33 L 155.619 -40.33 Q 155.619 -41.41 153.959 -41.99 L 153.959 -41.99 Z M 129.929 -31.93 L 129.929 -31.93 L 129.929 -31.25 L 130.229 -31.25 Q 131.499 -32.42 131.499 -33.11 L 131.499 -33.11 L 131.499 -33.2 L 131.009 -33.2 Q 130.419 -32.81 129.929 -31.93 Z M 151.999 -36.43 L 151.999 -36.43 Q 152.589 -35.45 153.369 -35.45 L 153.369 -35.45 L 153.469 -35.64 L 153.469 -35.84 Q 153.469 -36.72 152.689 -36.72 L 152.689 -36.72 Q 151.999 -36.62 151.999 -36.43 Z M 161.479 -10.74 L 161.479 -10.74 L 161.479 -10.64 Q 162.259 -10.64 162.839 -12.21 L 162.839 -12.21 L 162.839 -12.4 L 162.549 -12.4 Q 161.959 -12.4 161.479 -10.74 Z M 131.979 -37.01 L 131.979 -37.01 Q 132.859 -37.01 133.639 -38.18 L 133.639 -38.18 L 133.639 -38.48 Q 131.979 -37.99 131.979 -37.01 Z M 163.139 -14.26 L 163.039 -12.5 L 163.529 -12.5 L 163.919 -12.21 Q 164.009 -13.77 163.429 -13.57 L 163.429 -13.57 L 163.229 -13.57 L 163.139 -14.26 Z M 150.539 1.37 L 150.539 1.37 L 150.639 1.37 Q 152.389 0.78 152.389 0.39 L 152.389 0.39 L 152.199 0.2 Q 150.829 0.68 150.539 1.37 Z M 127.099 -6.35 L 127.099 -6.35 L 126.709 -6.15 L 126.709 -5.96 L 127.489 -5.18 L 127.879 -5.18 Q 127.879 -5.86 127.099 -6.35 Z M 133.739 -0.29 L 133.739 -0.29 L 133.739 -0.2 L 135.009 -0.2 L 135.209 -0.39 L 135.009 -0.68 L 134.819 -0.68 Q 133.839 -0.68 133.739 -0.29 Z M 165.479 -24.8 L 165.379 -24.8 L 165.089 -24.51 L 165.089 -24.12 L 165.379 -23.73 L 165.769 -24.12 L 165.769 -24.51 L 165.479 -24.8 Z M 124.069 -27.93 L 124.069 -27.93 Q 124.559 -27.93 124.949 -28.61 L 124.949 -28.61 L 124.949 -28.81 Q 124.069 -28.81 124.069 -27.93 Z M 121.139 -17.38 L 121.049 -17.38 L 120.849 -17.09 Q 120.949 -16.21 121.139 -16.21 L 121.139 -16.21 L 121.339 -16.31 L 121.339 -16.8 L 121.139 -17.38 Z M 147.119 -39.94 L 147.119 -39.94 L 147.119 -39.84 L 148.099 -40.63 L 147.899 -40.72 Q 146.929 -40.14 147.119 -39.94 Z M 126.029 -31.25 L 126.029 -31.25 L 126.119 -31.25 Q 126.509 -31.35 126.509 -32.03 L 126.509 -32.03 L 126.319 -32.03 Q 126.029 -31.84 126.029 -31.25 Z M 126.709 -19.53 L 126.609 -19.53 L 126.219 -19.14 L 126.219 -18.95 L 126.509 -18.95 L 126.709 -19.24 L 126.709 -19.53 Z M 132.369 -34.08 L 132.369 -34.28 L 131.979 -34.28 L 131.979 -33.89 L 132.179 -33.89 L 132.369 -34.08 Z M 189.598 -51.07 L 189.598 -51.07 L 192.818 -51.07 Q 195.168 -51.07 200.438 -49.02 L 200.438 -49.02 Q 202.398 -49.02 206.588 -46.58 L 206.588 -46.58 L 207.078 -46.58 Q 208.158 -46.58 211.768 -50.49 L 211.768 -50.49 Q 212.548 -50.49 214.698 -47.75 L 214.698 -47.75 Q 215.678 -47.36 216.948 -45.9 L 216.948 -45.9 L 216.948 -45.61 Q 211.478 -39.55 211.478 -38.87 L 211.478 -38.87 Q 208.838 -29.98 207.958 -29 L 207.958 -29 Q 206.108 -27.05 202.688 -25.59 L 202.688 -25.59 Q 198.388 -21.29 194.968 -21.29 L 194.968 -21.29 L 192.038 -21.19 L 185.698 -21.78 L 184.428 -21.78 Q 183.648 -21.78 182.378 -15.33 L 182.378 -15.33 L 183.158 -15.14 L 183.448 -15.14 Q 185.008 -15.14 186.868 -16.31 L 186.868 -16.31 L 189.108 -16.5 L 193.018 -16.5 Q 202.398 -16.5 208.448 -14.75 L 208.448 -14.75 Q 209.328 -14.16 212.748 -12.6 L 212.748 -12.6 L 216.068 -10.16 Q 219.968 -6.84 220.948 -4.2 L 220.948 -4.2 Q 224.468 2.64 224.468 7.42 L 224.468 7.42 Q 224.468 11.04 218.798 16.41 L 218.798 16.41 L 212.838 20.7 Q 208.158 23.63 201.708 23.63 L 201.708 23.63 L 198.978 24.02 Q 181.588 24.02 175.438 16.99 L 175.438 16.99 Q 170.948 14.26 170.948 9.86 L 170.948 9.86 Q 169.288 6.74 169.288 1.66 L 169.288 1.66 L 168.898 -0.49 L 169.288 -1.76 L 169.578 -1.76 Q 170.068 0.49 170.358 0.49 L 170.358 0.49 L 170.658 0.49 Q 172.018 -5.66 172.808 -7.71 L 172.808 -7.71 L 172.808 -7.91 L 172.708 -7.91 Q 169.878 -3.32 169.878 -2.64 L 169.878 -2.64 L 169.678 -2.64 Q 169.288 -2.64 169.288 -3.71 L 169.288 -3.71 Q 169.388 -5.66 172.808 -10.45 L 172.808 -10.45 Q 176.608 -14.06 176.608 -14.55 L 176.608 -14.55 Q 177.588 -22.66 178.078 -24.61 L 178.078 -24.61 Q 175.538 -29.49 175.538 -32.62 L 175.538 -32.62 L 175.438 -34.28 Q 175.438 -35.94 176.708 -40.33 L 176.708 -40.33 Q 177.788 -41.41 180.808 -45.61 L 180.808 -45.61 Q 185.988 -51.07 189.598 -51.07 Z M 185.988 -48.63 L 185.988 -48.63 L 185.988 -48.54 Q 189.408 -49.41 189.408 -50 L 189.408 -50 L 189.408 -50.1 L 189.108 -50.1 Q 187.748 -50.1 185.988 -48.63 Z M 212.358 -48.24 L 212.058 -48.24 L 211.768 -47.95 L 211.768 -47.85 Q 211.968 -47.56 212.448 -47.56 L 212.448 -47.56 L 213.038 -47.56 L 213.038 -47.75 L 212.358 -48.24 Z M 188.428 -46.58 L 188.428 -46.58 L 188.428 -46.19 L 188.628 -46.19 L 191.558 -47.27 L 191.558 -47.75 L 190.678 -47.75 Q 188.428 -47.27 188.428 -46.58 Z M 182.568 -36.52 L 182.568 -36.52 L 182.568 -36.04 Q 184.128 -28.61 184.818 -28.61 L 184.818 -28.61 Q 187.058 -26.46 188.718 -26.46 L 188.718 -26.46 Q 196.148 -26.46 199.368 -29.79 L 199.368 -29.79 Q 201.808 -32.03 202.878 -34.47 L 202.878 -34.47 Q 203.658 -35.84 203.658 -36.52 L 203.658 -36.52 L 203.658 -38.09 Q 203.658 -39.65 201.318 -42.77 L 201.318 -42.77 Q 196.048 -45.12 193.998 -45.12 L 193.998 -45.12 Q 189.408 -45.12 185.108 -41.11 L 185.108 -41.11 Q 182.568 -37.99 182.568 -36.52 Z M 211.278 -42.38 L 211.278 -42.38 L 211.278 -41.8 L 211.478 -41.8 Q 213.528 -43.55 214.308 -44.82 L 214.308 -44.82 L 214.308 -45.12 L 214.208 -45.12 Q 213.138 -45.12 211.278 -42.38 Z M 183.648 -42.58 L 183.648 -42.58 L 184.038 -42.48 Q 184.618 -42.48 185.598 -43.75 L 185.598 -43.75 L 185.598 -44.14 L 185.008 -44.14 Q 183.648 -43.36 183.648 -42.58 Z M 205.128 -43.46 L 205.128 -43.46 L 204.638 -43.46 L 204.638 -43.36 Q 205.318 -41.5 206.298 -41.5 L 206.298 -41.5 Q 206.588 -41.5 206.588 -41.8 L 206.588 -41.8 Q 206.588 -42.48 205.128 -43.46 Z M 177.688 -38.18 L 177.688 -38.18 L 177.978 -38.18 Q 178.268 -38.38 179.538 -40.14 L 179.538 -40.14 L 179.248 -40.33 Q 178.658 -40.33 177.688 -38.18 Z M 176.418 -35.25 L 176.418 -35.25 Q 176.418 -33.11 177.398 -32.03 L 177.398 -32.03 L 177.788 -32.03 Q 178.078 -32.03 178.078 -32.32 L 178.078 -32.32 Q 177.688 -36.43 177.098 -36.43 L 177.098 -36.43 Q 176.608 -36.43 176.418 -35.25 Z M 201.998 -29.88 L 201.998 -29.88 L 201.998 -29.79 L 202.588 -29.79 Q 204.348 -29.79 204.838 -33.79 L 204.838 -33.79 L 204.838 -34.28 L 204.738 -34.47 L 204.448 -34.47 Q 201.998 -30.57 201.998 -29.88 Z M 181.398 -34.08 L 181.398 -34.08 L 181.198 -33.79 Q 181.198 -32.13 182.278 -30.76 L 182.278 -30.76 L 182.378 -30.76 L 182.378 -31.15 Q 182.178 -33.69 181.398 -34.08 Z M 207.078 -30.27 L 207.078 -30.27 L 206.788 -30.27 L 206.498 -29.79 L 206.498 -29.69 L 206.788 -29.69 Q 206.888 -29.69 207.078 -30.27 Z M 200.048 -27.64 L 200.048 -27.64 L 200.338 -27.64 Q 201.518 -28.13 202.198 -29 L 202.198 -29 L 201.908 -29.39 Q 200.248 -28.22 200.048 -27.64 Z M 195.948 -26.46 L 195.948 -26.46 L 195.948 -26.17 L 196.538 -25.78 L 196.928 -25.78 Q 197.408 -25.78 198.878 -27.25 L 198.878 -27.25 L 198.878 -27.44 L 197.998 -27.44 Q 196.828 -27.44 195.948 -26.46 Z M 178.178 -26.86 L 178.178 -26.86 L 177.788 -26.86 L 177.788 -26.56 Q 178.758 -25 180.718 -24.41 L 180.718 -24.41 L 180.718 -24.61 Q 179.838 -26.86 178.178 -26.86 Z M 200.338 -26.86 L 199.758 -26.86 L 199.368 -26.46 L 199.368 -26.07 L 199.558 -26.07 L 200.338 -26.76 L 200.338 -26.86 Z M 182.178 -26.17 L 182.178 -26.17 L 181.888 -25.88 Q 182.278 -24.9 183.158 -24.9 L 183.158 -24.9 L 183.648 -25.49 Q 183.648 -25.88 182.178 -26.17 Z M 194.678 -25.78 L 193.898 -25.78 L 193.508 -25.39 Q 193.508 -25.2 195.168 -25 L 195.168 -25 L 195.948 -25.1 Q 195.948 -25.49 194.678 -25.78 L 194.678 -25.78 Z M 184.328 -25 L 184.328 -25 L 184.228 -24.9 L 184.228 -24.12 L 184.618 -23.73 L 186.278 -23.73 L 186.278 -24.12 Q 184.618 -25 184.328 -25 Z M 188.628 -23.93 L 187.648 -23.93 L 187.258 -23.63 Q 187.258 -22.75 190.478 -22.75 L 190.478 -22.75 L 193.308 -22.75 Q 193.898 -22.75 193.998 -23.14 L 193.998 -23.14 Q 191.948 -23.93 188.628 -23.93 L 188.628 -23.93 Z M 180.808 -22.75 L 180.518 -22.75 L 180.028 -22.36 L 180.028 -21.58 Q 180.028 -20.8 180.808 -20.61 L 180.808 -20.61 L 181.198 -20.9 L 181.198 -22.46 L 180.808 -22.75 Z M 196.628 -14.94 L 195.658 -14.94 L 193.508 -14.55 L 193.508 -14.45 Q 193.508 -13.57 203.568 -13.28 L 203.568 -13.28 L 205.618 -12.6 L 205.808 -12.6 Q 206.108 -12.6 206.588 -12.89 L 206.588 -12.89 L 209.428 -12.79 L 209.428 -13.09 Q 208.938 -13.87 207.178 -13.87 L 207.178 -13.87 L 206.198 -13.87 Q 205.718 -13.87 205.318 -13.57 L 205.318 -13.57 L 202.978 -14.55 Q 200.928 -14.94 196.628 -14.94 L 196.628 -14.94 Z M 187.838 -14.55 L 188.228 -14.55 L 187.838 -14.55 Z M 182.858 -11.82 L 182.858 -11.82 Q 182.858 -11.62 185.988 -11.43 L 185.988 -11.43 Q 187.258 -11.52 187.258 -11.82 L 187.258 -11.82 Q 186.768 -12.6 186.088 -12.89 L 186.088 -12.89 L 185.008 -12.89 Q 182.858 -12.6 182.858 -11.82 Z M 201.908 -11.13 L 199.558 -11.43 L 199.468 -11.43 L 199.468 -11.33 Q 199.468 -10.94 201.808 -10.84 L 201.808 -10.84 L 201.908 -10.94 L 201.908 -11.13 Z M 209.328 -11.43 L 208.938 -11.43 L 208.648 -11.04 L 208.938 -10.84 L 209.328 -10.94 L 209.328 -11.43 Z M 178.568 -10.16 L 178.568 -10.16 L 179.058 -9.86 L 179.738 -9.86 L 180.128 -10.35 L 180.128 -10.94 L 179.838 -11.33 Q 178.858 -11.33 178.568 -10.16 Z M 174.558 -8.3 L 174.558 -8.3 L 174.558 -8.2 L 174.858 -7.91 Q 177.198 -8.5 177.198 -9.47 L 177.198 -9.47 L 177.198 -10.16 L 176.998 -10.45 Q 175.728 -9.96 174.558 -8.3 Z M 210.398 -10.06 L 210.308 -10.06 L 210.208 -10.06 Q 210.208 -9.38 212.448 -8.89 L 212.448 -8.89 L 212.838 -8.98 L 212.838 -9.18 Q 212.158 -10.06 210.698 -10.06 L 210.698 -10.06 L 210.398 -10.06 Z M 185.788 -9.86 L 185.598 -9.86 L 185.108 -9.47 L 185.398 -9.18 L 186.088 -9.18 L 186.088 -9.67 L 185.788 -9.86 Z M 199.368 -9.67 L 199.368 -9.67 L 198.878 -9.18 Q 198.878 -8.79 203.758 -8.5 L 203.758 -8.5 Q 207.768 -7.32 210.698 -5.27 L 210.698 -5.27 L 212.058 -5.18 L 212.448 -5.57 L 212.448 -5.66 Q 211.768 -7.03 206.198 -8.69 L 206.198 -8.69 Q 201.028 -9.67 199.368 -9.67 Z M 193.018 -8.3 L 193.018 -8.3 L 193.018 -8.01 L 191.458 -7.71 L 189.408 -8.01 L 182.178 -7.91 Q 177.688 -3.81 177.688 -2.15 L 177.688 -2.15 L 177.098 -1.46 L 177.098 -1.27 Q 177.788 8.5 179.058 10.84 L 179.058 10.84 Q 179.148 11.33 182.568 13.77 L 182.568 13.77 Q 182.568 14.45 188.428 16.11 L 188.428 16.11 Q 197.018 17.38 202.688 17.38 L 202.688 17.38 Q 210.008 16.02 212.648 13.28 L 212.648 13.28 Q 217.428 8.4 217.428 5.27 L 217.428 5.27 L 217.428 4.79 Q 217.428 3.13 213.628 -1.76 L 213.628 -1.76 Q 213.138 -3.13 210.698 -4.39 L 210.698 -4.39 Q 206.398 -7.23 201.998 -7.91 L 201.998 -7.91 L 195.948 -8.01 L 195.948 -8.59 L 195.948 -8.69 L 194.778 -8.69 Q 193.408 -8.69 193.018 -8.3 Z M 214.018 -8.2 L 214.018 -8.2 L 213.328 -8.2 L 213.328 -8.01 L 217.138 -4.59 L 217.338 -4.59 L 217.338 -4.79 Q 215.968 -7.52 214.018 -8.2 Z M 177.688 -6.15 L 177.688 -6.15 L 177.688 -5.86 L 177.978 -5.86 L 179.148 -6.25 L 179.148 -6.64 L 178.958 -6.64 Q 177.688 -6.54 177.688 -6.15 Z M 176.318 -5.18 L 176.318 -5.18 L 176.318 -4.79 L 176.608 -4.79 L 177.198 -5.47 L 177.198 -5.76 Q 176.608 -5.76 176.318 -5.18 Z M 173.678 -2.73 L 173.678 -2.73 L 173.778 -2.25 L 173.978 -2.25 Q 174.468 -2.25 175.148 -5.18 L 175.148 -5.18 L 174.948 -5.18 Q 173.678 -4.2 173.678 -2.73 Z M 213.228 -4.79 L 213.228 -4.79 L 212.838 -4.79 Q 212.838 -4.3 215.678 -0.88 L 215.678 -0.88 L 215.678 -0.78 L 215.868 -0.78 L 215.868 -1.17 Q 214.598 -4.79 213.228 -4.79 Z M 222.018 2.83 L 222.018 2.44 L 221.628 2.44 L 221.628 2.64 L 221.928 3.03 L 222.018 2.83 Z M 220.168 3.32 L 219.778 3.13 L 219.288 3.13 L 219.288 3.32 L 219.578 3.71 L 219.778 3.71 L 220.168 3.32 Z M 170.658 4 L 170.358 4 L 170.168 4.1 L 170.168 4.79 L 170.558 5.08 L 170.658 5.08 L 170.658 4 Z M 221.338 5.86 L 221.338 5.86 L 221.338 6.05 Q 221.338 6.93 221.728 7.03 L 221.728 7.03 L 221.928 7.03 Q 222.708 5.66 222.708 4.1 L 222.708 4.1 L 222.608 4 L 222.318 4 Q 221.338 4.69 221.338 5.86 Z M 176.128 4.3 L 175.928 4.3 L 175.728 4.59 L 175.538 6.54 Q 175.638 8.59 176.128 8.59 L 176.128 8.59 L 176.318 8.59 Q 176.608 8.4 176.608 7.91 L 176.608 7.91 L 176.608 6.64 Q 176.608 4.3 176.128 4.3 L 176.128 4.3 Z M 171.338 6.25 L 170.848 5.76 L 170.658 5.76 L 170.658 6.05 Q 170.748 6.74 171.048 6.74 L 171.048 6.74 L 171.338 6.54 L 171.338 6.25 Z M 215.188 12.5 L 215.188 12.5 L 215.188 12.7 L 215.478 12.89 Q 217.918 12.21 217.918 10.35 L 217.918 10.35 L 217.918 9.67 L 217.628 9.67 Q 215.188 11.52 215.188 12.5 Z M 174.948 12.01 L 174.948 12.01 L 174.558 12.5 Q 174.858 13.18 175.148 13.18 L 175.148 13.18 L 175.538 12.7 Q 175.538 12.3 174.948 12.01 Z M 178.958 13.87 L 178.958 13.87 L 178.758 13.87 L 178.758 14.16 L 179.148 14.55 L 179.738 14.55 L 179.738 14.26 Q 179.638 13.87 178.958 13.87 Z M 178.178 14.55 L 177.588 14.55 L 177.298 14.94 L 177.298 15.14 L 178.178 15.14 L 178.178 14.55 Z M 202.298 19.14 L 202.298 19.14 Q 190.288 18.36 188.718 17.77 L 188.718 17.77 L 186.088 17.58 L 186.088 17.77 Q 187.358 18.75 189.408 19.04 L 189.408 19.04 L 192.338 18.95 L 193.018 19.43 L 193.118 19.34 L 193.308 19.34 Q 195.948 19.82 198.878 19.82 L 198.878 19.82 L 201.028 19.82 Q 205.318 19.82 206.978 18.75 L 206.978 18.75 Q 211.088 17.29 211.088 17.09 L 211.088 17.09 L 211.088 16.99 Q 205.028 18.26 202.298 19.14 Z M 206.788 22.36 L 206.788 22.36 L 207.078 22.36 Q 207.858 22.36 211.868 20.02 L 211.868 20.02 L 211.868 19.82 L 211.478 19.82 Q 206.788 20.9 206.788 22.36 Z M 204.058 21.97 L 204.058 21.97 L 204.058 22.17 L 204.448 22.17 Q 206.198 21.88 206.198 21 L 206.198 21 L 205.808 21 Q 204.448 21.48 204.058 21.97 Z M 189.408 21.58 L 189.598 21.58 L 189.108 21.19 L 189.018 21.29 L 189.018 21.39 L 189.408 21.58 Z M 191.068 21.88 L 191.068 21.88 L 190.678 21.88 L 190.678 21.97 Q 190.768 22.36 191.748 22.36 L 191.748 22.36 L 192.818 22.36 Q 192.818 21.88 191.068 21.88 Z M 199.558 21.88 L 198.978 21.88 L 198.778 22.17 L 198.778 22.36 Q 198.878 22.75 199.468 22.75 L 199.468 22.75 L 200.048 22.75 L 201.318 22.46 L 201.318 22.17 L 199.558 21.88 Z" data-textpath="TheMBblog" data-text-anchor="middle" data-font-size="100" data-letterspacing="0" data-side="left" data-offset="0" data-dx="0" data-dy="93.75" data-xmlspace="preserve" data-href="" data-font="Love Ya Like A Sister" data-font-src="/Content/clientfonts/loveyalikeasister.woff" data-font-scale="contain" data-x="333" data-y="0" /></g></svg></g><g transform="matrix(5.7593, 0, 0, 5.7593, 333.889, 1.5926)"><svg viewBox="52.863 0.506 48.569 54.553" width="48.569" height="54.553"><defs><linearGradient id="linearGradientSjrx980712i2" x1="0" y1="0.5" x2="1" y2="0.5"><stop stop-color="rgb(214, 28, 214)" offset="0%" /><stop stop-color="rgb(214, 28, 214)" offset="100%" /></linearGradient></defs><path fill="url(#linearGradientSjrx980712i2)" d="M 89.626 45.379 c 1.246 -2.412 1.956 -4.835 1.956 -7.193 c 0 -8.546 -5.26 -25.054 -30.288 -27.508 c -1.073 -1.94 -2.272 -3.721 -3.431 -5.172 c 30.496 1.12 38.569 18.769 38.569 32.868 c 0 4.097 -1.228 8.019 -3.318 11.685 C 91.94 48.477 90.774 46.914 89.626 45.379 Z" /></svg></g><g transform="matrix(5.7593, 0, 0, 5.7593, 1.8367, 29.1512)"><svg viewBox="-4.99974 5.479 92.6377 76.177" width="92.6377" height="76.177"><defs><linearGradient id="linearGradientSjrx980712i8" x1="0" y1="0.5" x2="1" y2="0.5"><stop stop-color="rgb(101, 13, 136)" offset="0%" /><stop stop-color="rgb(101, 13, 136)" offset="100%" /></linearGradient></defs><path fill="url(#linearGradientSjrx980712i8)" d="M 34.557 14.711 C 17.501 22.541 8.938 38.539 7.353 42.289 c -0.866 2.049 -5.924 18.049 3.707 16.673 c 5.183 -1.525 8.022 -15.863 24.87 -15.863 c 21.723 0 -4.4 28.646 10.639 28.646 c 8.555 0 21.978 -5.905 31.946 -13.833 c 1.354 1.303 2.73 2.622 4.123 3.95 c -11.212 9.062 -26.658 14.794 -36.069 14.794 c -23.939 0 2.916 -29.465 -10.639 -29.465 c -13.709 0 -15.458 15.518 -25.773 16.99 C -0.16 65.653 -0.924 52.391 0.604 45.764 c 1.02 -7.104 12.321 -26.146 31.797 -35.285 C 33.125 11.95 33.834 13.367 34.557 14.711 Z" /></svg></g><g transform="matrix(2.7273, 0, 0, 2.7273, 371.29, 309.202)"><svg viewBox="-2.655 72.3742 30.2131 23.626" width="30.2131" height="23.626"><defs><linearGradient id="linearGradientSjrx980712ie" x1="0" y1="0.5" x2="1" y2="0.5"><stop stop-color="rgb(101, 13, 136)" offset="0%" /><stop stop-color="rgb(101, 13, 136)" offset="100%" /></linearGradient></defs><path fill="url(#linearGradientSjrx980712ie)" d="M 22.556 80.517 c -0.045 -2.547 -8.834 -4.938 -12.042 -1.233 c -3.211 3.703 -2.018 9.144 -8.169 11.443 C 2.345 90.727 22.799 93.629 22.556 80.517 Z" /></svg></g><g transform="matrix(2.7273, 0, 0, 2.7273, 587.999, 201.843)"><svg viewBox="76.823 33.079 25.177 43.486" width="25.177" height="43.486"><defs><linearGradient id="linearGradientSjrx980712ik" x1="0" y1="0.5" x2="1" y2="0.5"><stop stop-color="rgb(101, 13, 136)" offset="0%" /><stop stop-color="rgb(101, 13, 136)" offset="100%" /></linearGradient></defs><polygon fill="url(#linearGradientSjrx980712ik)" points="87.774,71.565 97,38.079 87.438,42.495 81.823,62.874" /></svg></g><g transform="matrix(2.7273, 0, 0, 2.7273, 418.556, 114.555)"><svg viewBox="14.5893 0.884568 48.3863 79.8637" width="48.3863" height="79.8637"><defs><linearGradient id="linearGradientSjrx980712iq" x1="0" y1="0.5" x2="1" y2="0.5"><stop stop-color="rgb(101, 13, 136)" offset="0%" /><stop stop-color="rgb(101, 13, 136)" offset="100%" /></linearGradient></defs><path fill="url(#linearGradientSjrx980712iq)" d="M 55.461 6.274 c 1.879 0.681 2.935 2.028 2.356 3.004 L 23.426 74.553 c -0.447 1.013 -1.629 1.472 -2.641 1.023 l 0 0 c -1.013 -0.447 -1.471 -1.628 -1.025 -2.642 L 51.011 6.806 C 51.588 5.83 53.58 5.591 55.461 6.274 L 55.461 6.274 Z" /></svg></g><g transform="matrix(2.7273, 0, 0, 2.7273, 451.327, 177.566)"><svg viewBox="26.3802 24.0253 63.8368 48.7909" width="63.8368" height="48.7909"><defs><linearGradient id="linearGradientSjrx980712iw" x1="0" y1="0.5" x2="1" y2="0.5"><stop stop-color="rgb(101, 13, 136)" offset="0%" /><stop stop-color="rgb(101, 13, 136)" offset="100%" /></linearGradient></defs><path fill="url(#linearGradientSjrx980712iw)" d="M 73.629 39.381 c -2.624 -1.154 -13.166 -6.827 -16.299 -8.64 c -2.489 -1.443 -4.004 -1.842 -5.291 -1.683 L 41.098 49.825 c 1.002 -0.234 6.605 -2.971 6.605 -2.971 l 5.628 4.055 c 0 0 0.666 -0.851 -0.197 2.284 c -0.863 3.133 -6.648 4.046 -8.257 4.554 c -1.61 0.509 -6.027 0.847 -7.776 1.23 s -4.889 2.372 -5.599 4.944 c -0.929 3.375 3.679 2.655 6.244 2.756 c 2.568 0.103 5.408 1.403 8.348 1.091 c 2.94 -0.313 12.312 -2.316 12.312 -2.316 c 4.769 1.834 8.448 1.031 12.48 -0.107 c 4.031 -1.136 4.144 -2.489 8.708 -3.047 l 5.623 -20.413 C 81.013 41.763 76.248 40.537 73.629 39.381 Z" /></svg></g><g transform="matrix(2.7273, 0, 0, 2.7273, 416.723, 185.44)"><svg viewBox="14.0863 27.522 30.0477 40.3039" width="30.0477" height="40.3039"><defs><linearGradient id="linearGradientSjrx980712j2" x1="0" y1="0.5" x2="1" y2="0.5"><stop stop-color="rgb(101, 13, 136)" offset="0%" /><stop stop-color="rgb(101, 13, 136)" offset="100%" /></linearGradient></defs><path fill="url(#linearGradientSjrx980712j2)" d="M 31.506 33.304 c -3.753 0.437 -4.553 1.772 -4.936 2.532 c -0.381 0.759 -2.797 4.503 -3.502 6.125 c -0.706 1.621 -1.49 4.779 -1.29 6.562 c 0.2 1.784 0.601 5.353 0.601 5.353 s -2.753 4.344 -2.931 4.987 c -0.176 0.642 -1.043 2.22 0.767 3.497 c 1.81 1.275 3.971 -0.29 5.569 -2.012 c 0.171 -0.184 0.321 -0.37 0.464 -0.559 l 12.886 -27.267 C 37.447 32.733 34.391 32.967 31.506 33.304 Z" /></svg></g></g></svg>