<svg xmlns="http://www.w3.org/2000/svg" class="thumb" viewBox="0 0 1037 560" width="1037" height="560" xmlns:xlink="http://www.w3.org/1999/xlink" xmlns:inkscape="http://www.inkscape.org/namespaces/inkscape" xmlns:sodipodi="http://sodipodi.sourceforge.net/DTD/sodipodi-0.dtd" xmlns:ns1="http://www.inkscape.org/namespaces/inkscape" xmlns:sketch="http://www.bohemiancoding.com/sketch/ns"><defs /><g><g transform="matrix(6.6924, 0, 0, 6.6924, 236.923, 107.423)"><svg viewBox="10.747 31.1858 21.0592 19.4212" width="21.0592" height="19.4212"><defs /><g><path fill="none" d="M 16.216 40.996 c 0.097 0.096 0.197 0.144 0.292 0.127 c 0.047 -0.008 0.088 -0.031 0.126 -0.066 c 0.466 1.448 1.358 2.891 2.483 3.751 c 0.649 0.497 1.375 0.799 2.141 0.799 c 0.782 0 1.523 -0.316 2.183 -0.832 c 1.104 -0.864 1.981 -2.29 2.44 -3.719 c 0.038 0.035 0.08 0.057 0.126 0.066 c 0.083 0.014 0.168 -0.019 0.252 -0.09 c 0.21 -0.179 0.408 -0.595 0.499 -1.102 c 0.118 -0.66 0.012 -1.238 -0.236 -1.354 c -0.019 -0.009 -0.037 -0.016 -0.057 -0.019 c -0.078 -0.014 -0.156 0.015 -0.236 0.077 l -0.003 0.005 c 0 -0.001 -0.001 -0.001 -0.001 -0.001 c -0.001 0 -0.001 0.001 -0.002 0.002 c 0 -0.005 0 -0.01 0 -0.015 c -0.298 -1.132 -0.675 -1.825 -1.062 -2.237 c -0.075 -0.041 -0.153 -0.078 -0.239 -0.102 c -0.009 0.166 0.18 0.42 0.2 0.667 c -0.537 -0.251 -1.051 -0.639 -1.803 -0.667 c -0.174 -0.006 -0.365 -0.005 -0.559 -0.001 c -0.258 0.093 -0.519 0.151 -0.778 0.193 c -0.542 0.204 -0.749 0.222 -1.213 0.064 c -1.03 -0.056 -1.813 -0.343 -1.813 -0.343 c -2.272 -0.21 -2.633 2.15 -2.661 2.42 c 0 0.006 0 0.013 0 0.02 c 0 0 0 0 -0.001 0 c -0.08 -0.064 -0.163 -0.096 -0.243 -0.082 c -0.034 0.005 -0.066 0.021 -0.095 0.042 c -0.071 0.05 -0.127 0.146 -0.168 0.268 c -0.022 0.317 -0.037 0.64 -0.041 0.971 c 0.004 0.031 0.006 0.06 0.013 0.092 C 15.843 40.407 16.022 40.8 16.216 40.996 Z" /></g></svg></g><g transform="matrix(6.6924, 0, 0, 6.6924, 382.077, 221.538)"><svg viewBox="32.461 48.531 35.077 10.001" width="35.077" height="10.001"><defs /><g><polygon fill="none" points="46.563,53.532 48.772,53.532 50.917,53.532 53.218,53.532 60.494,53.532 62.537,53.532 62.538,53.531 60.494,53.531 53.218,53.531 50.917,53.531 48.772,53.531 46.563,53.531 37.461,53.531 37.462,53.532" /></g></svg></g><g transform="matrix(6.6924, 0, 0, 6.6924, 418.885, 76.384)"><svg viewBox="37.575 26.5835 24.7447 22.5625" width="24.7447" height="22.5625"><defs /><g><path fill="none" d="M 43.199 37.995 c 0.129 0.128 0.263 0.192 0.39 0.17 c 0.063 -0.011 0.117 -0.041 0.168 -0.088 c 0.622 1.931 1.811 3.854 3.311 5.003 c 0.865 0.662 1.833 1.066 2.855 1.066 c 1.042 0 2.031 -0.422 2.91 -1.11 c 1.473 -1.153 2.642 -3.053 3.254 -4.959 c 0.051 0.046 0.105 0.077 0.168 0.088 c 0.11 0.02 0.225 -0.025 0.336 -0.12 c 0.281 -0.238 0.545 -0.793 0.665 -1.469 c 0.156 -0.88 0.016 -1.651 -0.316 -1.806 c -0.024 -0.012 -0.049 -0.021 -0.075 -0.025 c -0.103 -0.018 -0.208 0.021 -0.314 0.102 l -0.004 0.007 c 0 -0.001 -0.001 -0.001 -0.001 -0.002 c -0.002 0 -0.002 0.002 -0.003 0.003 c 0 -0.007 0 -0.014 -0.002 -0.02 c -0.396 -1.51 -0.899 -2.433 -1.415 -2.983 c -0.1 -0.054 -0.204 -0.103 -0.318 -0.136 c -0.013 0.222 0.24 0.56 0.267 0.891 c -0.717 -0.335 -1.402 -0.853 -2.404 -0.891 c -0.233 -0.009 -0.486 -0.006 -0.746 0 c -0.345 0.123 -0.691 0.2 -1.036 0.257 c -0.722 0.271 -1 0.296 -1.619 0.085 c -1.374 -0.074 -2.418 -0.457 -2.418 -0.457 c -3.03 -0.279 -3.51 2.867 -3.546 3.228 c 0 0.009 -0.001 0.017 -0.001 0.026 c 0 0 0 0 -0.001 0 c -0.107 -0.086 -0.217 -0.127 -0.323 -0.108 c -0.046 0.007 -0.089 0.027 -0.128 0.056 c -0.094 0.067 -0.168 0.195 -0.224 0.358 c -0.029 0.423 -0.049 0.852 -0.054 1.294 c 0.006 0.042 0.009 0.081 0.017 0.123 C 42.702 37.208 42.94 37.734 43.199 37.995 Z" /></g></svg></g><g transform="matrix(6.6924, 0, 0, 6.6924, 620.923, 107.423)"><svg viewBox="68.111 31.1858 21.061 19.4212" width="21.061" height="19.4212"><defs /><g><path fill="none" d="M 73.583 40.996 c 0.097 0.096 0.198 0.144 0.294 0.127 c 0.045 -0.008 0.087 -0.031 0.126 -0.066 c 0.465 1.448 1.356 2.891 2.481 3.751 c 0.649 0.497 1.375 0.799 2.141 0.799 c 0.782 0 1.523 -0.316 2.183 -0.832 c 1.104 -0.864 1.981 -2.29 2.44 -3.719 c 0.037 0.035 0.079 0.057 0.126 0.066 c 0.082 0.014 0.168 -0.019 0.252 -0.09 c 0.211 -0.179 0.408 -0.595 0.498 -1.102 c 0.117 -0.66 0.013 -1.238 -0.236 -1.354 c -0.019 -0.009 -0.037 -0.016 -0.057 -0.019 c -0.076 -0.014 -0.156 0.015 -0.235 0.077 l -0.003 0.005 c 0 -0.001 -0.002 -0.001 -0.002 -0.001 c -0.001 0 -0.001 0.001 -0.001 0.002 c 0 -0.005 0 -0.01 -0.002 -0.015 c -0.298 -1.132 -0.675 -1.825 -1.062 -2.237 c -0.075 -0.041 -0.153 -0.078 -0.238 -0.102 c -0.011 0.166 0.181 0.42 0.199 0.667 c -0.537 -0.251 -1.051 -0.639 -1.803 -0.667 c -0.175 -0.006 -0.365 -0.005 -0.559 -0.001 c -0.26 0.093 -0.521 0.151 -0.778 0.193 c -0.54 0.204 -0.749 0.222 -1.215 0.064 c -1.028 -0.056 -1.812 -0.343 -1.812 -0.343 c -2.272 -0.21 -2.632 2.15 -2.66 2.42 c 0 0.006 0 0.013 0 0.02 c -0.002 0 -0.002 0 -0.002 0 c -0.081 -0.064 -0.163 -0.096 -0.242 -0.082 c -0.034 0.005 -0.066 0.021 -0.097 0.042 c -0.069 0.05 -0.126 0.146 -0.168 0.268 c -0.021 0.317 -0.036 0.64 -0.04 0.971 c 0.004 0.031 0.008 0.06 0.013 0.092 C 73.209 40.407 73.389 40.8 73.583 40.996 Z" /></g></svg></g><g transform="matrix(6.6924, 0, 0, 6.6924, 555, 218.653)"><svg viewBox="57.851 47.901 41.995 27.355" width="41.995" height="27.355"><defs /><g><path fill="none" d="M 66.958 53.531 h -1.254 h -2.852 c -0.001 0 -0.001 0.001 -0.001 0.001 h 2.854 L 66.958 53.531 l 2.712 0.001 c 1.152 0 2.087 0.935 2.087 2.086 l -3.109 14.638 h 21.516 c 0.857 0 1.551 -0.687 1.551 -1.533 l 3.131 -14.29 c 0 -0.846 -0.693 -1.532 -1.549 -1.532 h -1.858 h -0.854 h -4.151 h -5.52 H 79.39 h -1.645 h -1.471 h -9.492 c 0.031 0.104 0.066 0.194 0.097 0.3 C 66.911 53.31 66.937 53.421 66.958 53.531 Z M 78.684 60.885 c 0.459 0 0.831 0.372 0.831 0.83 c 0 0.46 -0.372 0.834 -0.831 0.834 c -0.46 0 -0.832 -0.374 -0.832 -0.834 C 77.852 61.257 78.224 60.885 78.684 60.885 Z" /></g></svg></g><g transform="matrix(6.6924, 0, 0, 6.6924, 169, 218.653)"><svg viewBox="0.156 47.9 41.994 27.355" width="41.994" height="27.355"><defs /><g><path fill="none" d="M 30.331 53.532 h 2.704 h 4.115 c -0.001 0 -0.001 -0.001 -0.001 -0.001 h -4.114 c 0.021 -0.11 0.047 -0.222 0.079 -0.331 c 0.031 -0.105 0.065 -0.196 0.097 -0.3 h -4.143 h -5.52 h -1.523 h -1.645 h -1.47 H 8.556 h -1.85 c -0.856 0 -1.55 0.687 -1.55 1.532 l 3.13 14.29 c 0 0.847 0.694 1.533 1.55 1.533 h 21.518 l -3.111 -14.638 C 28.244 54.465 29.179 53.532 30.331 53.532 Z M 21.317 62.549 c -0.459 0 -0.832 -0.374 -0.832 -0.834 c 0 -0.458 0.373 -0.83 0.832 -0.83 s 0.832 0.372 0.832 0.83 C 22.149 62.175 21.776 62.549 21.317 62.549 Z" /></g></svg></g><g transform="matrix(6.6924, 0, 0, 6.6924, 321.845, 224.576)"><svg viewBox="23.454 48.868 53.096 33.141" width="53.096" height="33.141"><defs /><g><path fill="none" d="M 68.352 70.508 l 0.055 -0.252 l 3.143 -14.344 c 0 -1.129 -0.925 -2.044 -2.066 -2.044 h -2.477 h -1.138 h -3.231 h -0.201 h -2.103 h -7.359 h -2.032 h -2.193 h -1.96 h -9.224 h -0.201 h -4.378 h -2.467 c -1.141 0 -2.067 0.915 -2.066 2.044 l 3.143 14.344 l 0.056 0.252 l 0.086 0.396 l 0.294 1.341 l 0.596 2.72 c 0 1.129 0.925 2.044 2.067 2.044 h 30.614 c 1.143 0 2.068 -0.915 2.068 -2.044 l 0.595 -2.72 l 0.294 -1.341 L 68.352 70.508 Z M 50 66.731 c -0.613 0 -1.109 -0.497 -1.109 -1.111 c 0 -0.61 0.497 -1.107 1.109 -1.107 c 0.612 0 1.109 0.497 1.109 1.107 C 51.109 66.234 50.612 66.731 50 66.731 Z" /></g></svg></g><g transform="matrix(6.6924, 0, 0, 6.6924, 398.808, 0.8837)"><svg viewBox="34.6763 15.3422 30.5595 35.2998" width="30.5595" height="35.2998"><defs><linearGradient id="linearGradientSjrx9jtcu9w" x1="0" y1="0.5" x2="1" y2="0.5"><stop stop-color="rgb(23, 97, 160)" offset="0%" /><stop stop-color="rgb(23, 97, 160)" offset="100%" /></linearGradient></defs><g><path fill="url(#linearGradientSjrx9jtcu9w)" d="M 40.506 25.436 l -0.047 0.656 c -0.255 0.043 -0.45 0.265 -0.45 0.533 c 0 0.241 0.157 0.445 0.375 0.515 l -0.436 6.096 l 0.601 1.803 l 0.602 -1.803 l -0.435 -6.096 c 0.217 -0.071 0.375 -0.274 0.375 -0.515 c 0 -0.268 -0.195 -0.489 -0.45 -0.533 l -0.043 -0.604 l 1.041 0.604 l 0.043 0.024 l 0.825 0.479 l -0.225 2.879 l 0.192 0.071 c -0.235 0.686 -0.415 1.427 -0.483 2.246 c -0.148 0.607 -0.235 1.239 -0.235 1.891 h 0.014 c 0 0.007 -0.001 0.011 -0.001 0.016 c -0.009 0.001 -0.019 0.001 -0.028 0.003 c -0.565 0.099 -0.823 1.304 -0.573 2.693 c 0.226 1.277 0.802 2.264 1.333 2.338 c 0.676 1.817 1.745 3.582 3.067 4.875 c 0.749 0.73 1.577 1.309 2.462 1.661 c 0.608 0.24 1.241 0.374 1.895 0.374 c 0.652 0 1.286 -0.134 1.893 -0.374 c 0.915 -0.364 1.771 -0.971 2.54 -1.739 c 1.29 -1.287 2.333 -3.025 2.995 -4.812 c 0.51 -0.15 1.044 -1.104 1.261 -2.322 c 0.237 -1.323 0.012 -2.477 -0.496 -2.669 c 0.017 -0.323 0.028 -0.649 0.028 -0.983 c -0.004 -1.726 -0.382 -3.18 -1.057 -4.362 l -0.151 -1.517 l 0.884 -0.512 l 0.449 -0.258 l 1.877 -1.087 c 0.117 -0.117 0.117 -0.307 0 -0.424 l -9.98 -4.153 c -0.117 -0.117 -0.309 -0.117 -0.423 0 l -9.981 4.153 c -0.117 0.117 -0.117 0.307 0 0.424 L 40.506 25.436 Z M 42.626 35.159 c 0.055 -0.163 0.129 -0.291 0.224 -0.358 c 0.039 -0.028 0.083 -0.048 0.128 -0.056 c 0.105 -0.019 0.216 0.022 0.323 0.108 c 0.001 0 0.001 0 0.001 0 c 0 -0.009 0.001 -0.017 0.001 -0.026 c 0.037 -0.361 0.517 -3.507 3.546 -3.228 c 0 0 1.044 0.383 2.418 0.457 c 0.619 0.211 0.896 0.186 1.619 -0.085 c 0.345 -0.057 0.691 -0.134 1.036 -0.257 c 0.26 -0.006 0.513 -0.008 0.746 0 c 1.002 0.038 1.688 0.555 2.404 0.891 c -0.026 -0.331 -0.279 -0.669 -0.267 -0.891 c 0.114 0.033 0.219 0.082 0.318 0.136 c 0.516 0.55 1.019 1.474 1.415 2.983 c 0.002 0.005 0.002 0.012 0.002 0.02 c 0.001 -0.001 0.001 -0.002 0.003 -0.003 c 0 0 0.001 0 0.001 0.002 l 0.004 -0.007 c 0.106 -0.082 0.212 -0.12 0.314 -0.102 c 0.026 0.004 0.051 0.013 0.075 0.025 c 0.332 0.155 0.473 0.926 0.316 1.806 c -0.12 0.676 -0.384 1.231 -0.665 1.469 c -0.111 0.095 -0.226 0.139 -0.336 0.12 c -0.063 -0.011 -0.117 -0.042 -0.168 -0.088 c -0.612 1.906 -1.781 3.806 -3.254 4.959 c -0.879 0.688 -1.867 1.11 -2.91 1.11 c -1.022 0 -1.99 -0.404 -2.855 -1.066 c -1.5 -1.148 -2.689 -3.072 -3.311 -5.003 c -0.051 0.047 -0.105 0.078 -0.168 0.088 c -0.127 0.022 -0.261 -0.042 -0.39 -0.17 c -0.259 -0.261 -0.498 -0.787 -0.61 -1.418 c -0.008 -0.042 -0.011 -0.081 -0.017 -0.123 C 42.577 36.011 42.598 35.582 42.626 35.159 Z" /></g></svg></g><g transform="matrix(6.6924, 0, 0, 6.6924, 223.538, 52.307)"><svg viewBox="8.574 22.7568 25.419 28.9732" width="25.419" height="28.9732"><defs><linearGradient id="linearGradientSjrx9jtcua2" x1="0" y1="0.5" x2="1" y2="0.5"><stop stop-color="rgb(76, 150, 215)" offset="0%" /><stop stop-color="rgb(76, 150, 215)" offset="100%" /></linearGradient></defs><g><path fill="url(#linearGradientSjrx9jtcua2)" d="M 14.197 31.577 l -0.036 0.493 c -0.191 0.032 -0.337 0.198 -0.337 0.399 c 0 0.181 0.118 0.334 0.282 0.386 l -0.327 4.572 l 0.451 1.353 l 0.451 -1.353 l -0.327 -4.572 c 0.163 -0.054 0.281 -0.206 0.281 -0.386 c 0 -0.201 -0.146 -0.367 -0.337 -0.399 l -0.033 -0.454 l 0.782 0.453 l 0.032 0.018 l 0.619 0.358 l -0.169 2.16 l 0.144 0.053 c -0.176 0.514 -0.311 1.07 -0.363 1.685 c -0.111 0.456 -0.176 0.93 -0.176 1.418 h 0.01 c 0 0.004 0 0.008 0 0.012 c -0.007 0.001 -0.014 0.001 -0.021 0.002 c -0.424 0.074 -0.618 0.979 -0.43 2.02 c 0.169 0.958 0.602 1.698 1 1.754 c 0.507 1.362 1.309 2.687 2.3 3.656 c 0.562 0.547 1.183 0.981 1.847 1.245 c 0.457 0.18 0.931 0.28 1.42 0.28 c 0.489 0 0.965 -0.1 1.42 -0.28 c 0.687 -0.272 1.328 -0.728 1.905 -1.304 c 0.967 -0.965 1.75 -2.269 2.246 -3.609 c 0.382 -0.112 0.783 -0.828 0.946 -1.741 c 0.178 -0.992 0.009 -1.857 -0.372 -2.002 c 0.013 -0.242 0.021 -0.487 0.021 -0.737 c -0.003 -1.294 -0.287 -2.385 -0.793 -3.272 l -0.113 -1.138 l 0.663 -0.384 l 0.337 -0.193 l 1.407 -0.815 c 0.088 -0.088 0.088 -0.23 0 -0.319 l -7.485 -3.114 c -0.087 -0.087 -0.231 -0.087 -0.316 0 l -7.486 3.114 c -0.088 0.088 -0.088 0.23 0 0.319 L 14.197 31.577 Z M 15.787 38.869 c 0.041 -0.122 0.097 -0.218 0.168 -0.268 c 0.029 -0.021 0.062 -0.037 0.095 -0.042 c 0.08 -0.014 0.163 0.017 0.243 0.082 c 0.001 0 0.001 0 0.001 0 c 0 -0.007 0 -0.013 0 -0.02 c 0.028 -0.271 0.388 -2.63 2.661 -2.42 c 0 0 0.783 0.287 1.813 0.343 c 0.464 0.158 0.672 0.139 1.213 -0.064 c 0.259 -0.042 0.52 -0.1 0.778 -0.193 c 0.194 -0.004 0.385 -0.005 0.559 0.001 c 0.751 0.028 1.266 0.417 1.803 0.667 c -0.02 -0.248 -0.209 -0.501 -0.2 -0.667 c 0.086 0.024 0.165 0.062 0.239 0.102 c 0.386 0.413 0.764 1.105 1.062 2.237 c 0 0.004 0 0.01 0 0.015 c 0.001 0 0.001 -0.001 0.002 -0.002 c 0 0 0.001 0 0.001 0.001 l 0.003 -0.005 c 0.08 -0.062 0.159 -0.09 0.236 -0.077 c 0.02 0.003 0.038 0.01 0.057 0.019 c 0.248 0.116 0.354 0.694 0.236 1.354 c -0.09 0.507 -0.288 0.923 -0.499 1.102 c -0.083 0.071 -0.169 0.104 -0.252 0.09 c -0.046 -0.009 -0.088 -0.031 -0.126 -0.066 c -0.459 1.429 -1.336 2.854 -2.44 3.719 c -0.66 0.516 -1.4 0.832 -2.183 0.832 c -0.766 0 -1.492 -0.303 -2.141 -0.799 c -1.125 -0.861 -2.017 -2.303 -2.483 -3.751 c -0.038 0.035 -0.079 0.058 -0.126 0.066 c -0.096 0.017 -0.195 -0.031 -0.292 -0.127 c -0.194 -0.196 -0.373 -0.589 -0.457 -1.064 c -0.006 -0.032 -0.008 -0.061 -0.013 -0.092 C 15.75 39.509 15.765 39.187 15.787 38.869 Z" /></g></svg></g><g transform="matrix(6.6924, 0, 0, 6.6924, 164.575, 170.807)"><svg viewBox="0 40.639 100 41.705" width="100" height="41.705"><defs><linearGradient id="linearGradientSjrx9jtcua8" x1="0" y1="0.5" x2="1" y2="0.5"><stop stop-color="rgb(8, 59, 102)" offset="0%" /><stop stop-color="rgb(8, 59, 102)" offset="55.45%" /><stop stop-color="rgb(8, 59, 102)" offset="100%" /></linearGradient></defs><g><path fill="url(#linearGradientSjrx9jtcua8)" d="M 91.728 70.903 H 68.51 l 0.084 -0.396 h 21.713 c 0.863 0 1.563 -0.699 1.563 -1.563 L 95 54.213 c 0 -0.863 -0.701 -1.564 -1.565 -1.564 h -2.033 h -0.938 h -3.91 h -5.457 h -1.725 h -1.609 h -1.656 H 66.7 c -0.001 0 -0.001 -0.001 -0.001 -0.001 h 9.406 h 1.656 h 1.609 h 1.725 h 5.457 h 3.908 h 0.94 c -0.016 -0.083 -0.035 -0.165 -0.06 -0.248 c -1.448 -4.983 -4.124 -5.153 -4.701 -5.288 c -1.134 -0.267 -2.507 -0.154 -3.239 -0.382 c -0.128 1.073 -2.192 1.926 -4.721 1.926 c -2.529 0 -4.594 -0.853 -4.722 -1.926 c -0.732 0.229 -2.107 0.115 -3.241 0.382 c -0.54 0.125 -2.93 0.285 -4.418 4.417 c -1.993 -4.999 -4.991 -5.218 -5.688 -5.381 c -1.513 -0.355 -3.343 -0.204 -4.32 -0.509 c -0.17 1.431 -2.923 2.567 -6.295 2.567 c -3.372 0 -6.124 -1.137 -6.296 -2.567 c -0.976 0.305 -2.808 0.153 -4.32 0.509 c -0.697 0.163 -3.693 0.382 -5.687 5.38 c -1.488 -4.132 -3.876 -4.29 -4.417 -4.417 c -1.134 -0.267 -2.507 -0.154 -3.24 -0.382 c -0.127 1.073 -2.192 1.926 -4.721 1.926 c -2.528 0 -4.593 -0.853 -4.723 -1.926 c -0.732 0.229 -2.105 0.115 -3.24 0.382 c -0.576 0.134 -3.252 0.305 -4.7 5.288 c -0.024 0.083 -0.043 0.165 -0.06 0.248 H 18.74 h 1.656 h 1.608 h 1.727 h 5.457 h 3.908 h 0.197 l 0 0.001 h -0.196 h -3.909 H 23.73 h -1.727 h -1.608 H 18.74 H 8.593 H 6.565 c -0.864 0 -1.565 0.7 -1.565 1.564 l 3.13 14.731 c -0.001 0.864 0.7 1.563 1.565 1.563 h 21.713 l 0.084 0.396 H 8.275 c -0.368 0 -0.665 0.302 -0.665 0.671 s 0.297 0.67 0.665 0.67 h 23.502 l 0.64 3.014 c -0.001 1.153 0.934 2.087 2.087 2.087 h 30.993 c 1.151 0 2.087 -0.934 2.087 -2.087 l 0.641 -3.014 h 23.503 c 0.364 0 0.663 -0.3 0.663 -0.67 C 92.391 71.205 92.092 70.903 91.728 70.903 Z M 76.274 52.9 h 1.471 h 1.645 h 1.523 h 5.52 h 4.151 h 0.854 h 1.858 c 0.855 0 1.549 0.687 1.549 1.532 l -3.131 14.29 c 0 0.847 -0.693 1.533 -1.551 1.533 H 68.647 l 3.109 -14.638 c 0 -1.151 -0.935 -2.086 -2.087 -2.086 h -2.712 h -1.252 h -2.854 c 0 0 0 -0.001 0.001 -0.001 h 2.852 h 1.254 c -0.021 -0.11 -0.047 -0.222 -0.079 -0.331 c -0.03 -0.105 -0.065 -0.196 -0.097 -0.3 H 76.274 Z M 46.563 53.531 h 2.208 h 2.145 h 2.301 h 7.276 h 2.044 l -0.001 0.001 h -2.043 h -7.276 h -2.301 h -2.145 L 46.563 53.531 l -9.101 0.001 l -0.001 -0.001 H 46.563 Z M 9.837 70.256 c -0.856 0 -1.55 -0.687 -1.55 -1.533 l -3.13 -14.29 c 0 -0.846 0.694 -1.532 1.55 -1.532 h 1.85 h 10.353 h 1.47 h 1.645 h 1.523 h 5.52 h 4.143 c -0.032 0.104 -0.066 0.194 -0.097 0.3 c -0.032 0.109 -0.058 0.221 -0.079 0.331 h 4.114 c 0 0 0 0.001 0.001 0.001 h -4.115 h -2.704 c -1.152 0 -2.087 0.933 -2.087 2.086 l 3.111 14.638 H 9.837 Z M 67.971 72.244 l -0.595 2.72 c 0 1.129 -0.926 2.044 -2.068 2.044 H 34.693 c -1.142 0 -2.067 -0.915 -2.067 -2.044 l -0.596 -2.72 l -0.294 -1.341 l -0.086 -0.396 l -0.056 -0.252 l -3.143 -14.344 c 0 -1.129 0.925 -2.044 2.066 -2.044 h 2.467 h 4.378 h 0.201 h 9.224 h 1.96 h 2.193 h 2.032 h 7.359 h 2.103 h 0.201 h 3.231 h 1.138 h 2.477 c 1.142 0 2.066 0.915 2.066 2.044 l -3.143 14.344 l -0.055 0.252 l -0.087 0.396 L 67.971 72.244 Z" /></g></svg></g><g transform="matrix(6.6924, 0, 0, 6.6924, 607.539, 53.307)"><svg viewBox="65.9408 22.7568 25.4173 28.9732" width="25.4172" height="28.9732"><defs><linearGradient id="linearGradientSjrx9jtcuaf" x1="0" y1="0.5" x2="1" y2="0.5"><stop stop-color="rgb(76, 150, 215)" offset="0%" /><stop stop-color="rgb(76, 150, 215)" offset="100%" /></linearGradient></defs><g><path fill="url(#linearGradientSjrx9jtcuaf)" d="M 71.563 31.577 l -0.035 0.493 c -0.191 0.032 -0.336 0.198 -0.336 0.399 c 0 0.181 0.117 0.334 0.279 0.386 l -0.325 4.572 l 0.45 1.353 l 0.452 -1.353 l -0.326 -4.572 c 0.162 -0.054 0.279 -0.206 0.279 -0.386 c 0 -0.201 -0.145 -0.367 -0.336 -0.399 l -0.033 -0.454 l 0.78 0.453 l 0.032 0.018 l 0.62 0.358 l -0.17 2.16 l 0.144 0.053 c -0.177 0.514 -0.312 1.07 -0.362 1.685 c -0.111 0.456 -0.177 0.93 -0.177 1.418 h 0.011 c 0 0.004 0 0.008 0 0.012 c -0.008 0.001 -0.015 0.001 -0.022 0.002 c -0.423 0.074 -0.616 0.979 -0.43 2.02 c 0.169 0.958 0.603 1.698 0.999 1.754 c 0.507 1.362 1.311 2.687 2.302 3.656 c 0.562 0.547 1.183 0.981 1.846 1.245 c 0.457 0.18 0.932 0.28 1.421 0.28 s 0.965 -0.1 1.419 -0.28 c 0.687 -0.272 1.33 -0.728 1.906 -1.304 c 0.968 -0.965 1.749 -2.269 2.246 -3.609 c 0.383 -0.112 0.783 -0.828 0.946 -1.741 c 0.178 -0.992 0.008 -1.857 -0.373 -2.002 c 0.014 -0.242 0.022 -0.487 0.022 -0.737 c -0.003 -1.294 -0.287 -2.385 -0.794 -3.272 l -0.113 -1.138 l 0.663 -0.384 l 0.337 -0.193 l 1.407 -0.815 c 0.088 -0.088 0.088 -0.23 0 -0.319 l -7.484 -3.114 c -0.087 -0.087 -0.231 -0.087 -0.317 0 l -7.485 3.114 c -0.087 0.088 -0.087 0.23 0 0.319 L 71.563 31.577 Z M 73.152 38.869 c 0.042 -0.122 0.099 -0.218 0.168 -0.268 c 0.03 -0.021 0.063 -0.037 0.097 -0.042 c 0.079 -0.014 0.161 0.017 0.242 0.082 c 0 0 0 0 0.002 0 c 0 -0.007 0 -0.013 0 -0.02 c 0.028 -0.271 0.388 -2.63 2.66 -2.42 c 0 0 0.783 0.287 1.812 0.343 c 0.466 0.158 0.675 0.139 1.215 -0.064 c 0.258 -0.042 0.519 -0.1 0.778 -0.193 c 0.193 -0.004 0.384 -0.005 0.559 0.001 c 0.752 0.028 1.266 0.417 1.803 0.667 c -0.019 -0.248 -0.21 -0.501 -0.199 -0.667 c 0.085 0.024 0.163 0.062 0.238 0.102 c 0.387 0.413 0.764 1.105 1.062 2.237 c 0.002 0.004 0.002 0.01 0.002 0.015 c 0 0 0 -0.001 0.001 -0.002 c 0 0 0.002 0 0.002 0.001 l 0.003 -0.005 c 0.079 -0.062 0.159 -0.09 0.235 -0.077 c 0.02 0.003 0.038 0.01 0.057 0.019 c 0.249 0.116 0.354 0.694 0.236 1.354 c -0.09 0.507 -0.287 0.923 -0.498 1.102 c -0.084 0.071 -0.17 0.104 -0.252 0.09 c -0.047 -0.009 -0.089 -0.031 -0.126 -0.066 c -0.459 1.429 -1.336 2.854 -2.44 3.719 c -0.659 0.516 -1.4 0.832 -2.183 0.832 c -0.766 0 -1.491 -0.303 -2.141 -0.799 c -1.125 -0.861 -2.017 -2.303 -2.481 -3.751 c -0.039 0.035 -0.081 0.058 -0.126 0.066 c -0.096 0.017 -0.197 -0.031 -0.294 -0.127 c -0.194 -0.196 -0.374 -0.589 -0.458 -1.064 c -0.005 -0.032 -0.009 -0.061 -0.013 -0.092 C 73.116 39.509 73.131 39.187 73.152 38.869 Z" /></g></svg></g><g transform="matrix(1.3685, 0, 0, 1.3685, 459.138, 268.947)"><svg viewBox="19.718 0 60.564 22.905" width="60.564" height="22.905"><defs><linearGradient id="linearGradientSjrx9jtcual" x1="0" y1="0.5" x2="1" y2="0.5"><stop stop-color="rgb(23, 97, 160)" offset="0%" /><stop stop-color="rgb(23, 97, 160)" offset="100%" /></linearGradient></defs><g><path clip-rule="evenodd" fill="url(#linearGradientSjrx9jtcual)" fill-rule="evenodd" d="M 28.215 17.893 c 6.208 -4.22 13.704 -6.688 21.776 -6.688 c 8.081 0 15.583 2.473 21.794 6.7 l 3.497 -5.128 C 68.074 7.871 59.369 5 49.991 5 c -9.369 0 -18.068 2.866 -25.273 7.765 L 28.215 17.893 Z" /></g></svg></g><g transform="matrix(1.3685, 0, 0, 1.3685, 458.454, 373.262)"><svg viewBox="19.393 76.861 61.213 23.139" width="61.213" height="23.139"><defs><linearGradient id="linearGradientSjrx9jtcuar" x1="0" y1="0.5" x2="1" y2="0.5"><stop stop-color="rgb(8, 59, 102)" offset="0%" /><stop stop-color="rgb(8, 59, 102)" offset="100%" /></linearGradient></defs><g><path clip-rule="evenodd" fill="url(#linearGradientSjrx9jtcuar)" fill-rule="evenodd" d="M 72.11 81.861 c -6.274 4.363 -13.896 6.931 -22.119 6.931 c -8.216 0 -15.83 -2.561 -22.102 -6.919 l -3.496 5.129 C 31.661 92.04 40.479 95 49.991 95 c 9.521 0 18.345 -2.964 25.615 -8.01 L 72.11 81.861 Z" /></g></svg></g><g transform="matrix(1.3685, 0, 0, 1.3685, 461.875, 297.682)"><svg viewBox="21.724 21.724 56.552 56.552" width="56.552" height="56.552"><defs><linearGradient id="linearGradientSjrx9jtcuax" x1="0" y1="0.5" x2="1" y2="0.5"><stop stop-color="rgb(8, 59, 102)" offset="0%" /><stop stop-color="rgb(8, 59, 102)" offset="100%" /></linearGradient></defs><g><path clip-rule="evenodd" fill="url(#linearGradientSjrx9jtcuax)" fill-rule="evenodd" d="M 50.001 26.724 c -12.855 0 -23.277 10.421 -23.277 23.276 s 10.422 23.276 23.277 23.276 c 12.854 0 23.275 -10.421 23.275 -23.276 S 62.854 26.724 50.001 26.724 Z M 50.003 68.626 c -10.284 0 -18.621 -8.337 -18.621 -18.623 c 0 -10.283 8.337 -18.62 18.621 -18.62 c 10.283 0 18.62 8.337 18.62 18.62 C 68.623 60.289 60.286 68.626 50.003 68.626 Z" /></g></svg></g><g transform="matrix(1.3685, 0, 0, 1.3685, 484.666, 312.42)"><svg viewBox="37.969 33.231 30.062 33.539" width="30.062" height="33.539"><defs><linearGradient id="linearGradientSjrx9jtcub3" x1="0" y1="0.5" x2="1" y2="0.5"><stop stop-color="rgb(116, 209, 76)" offset="0%" /><stop stop-color="rgb(116, 209, 76)" offset="100%" /></linearGradient></defs><g><path fill="url(#linearGradientSjrx9jtcub3)" d="M 42.969 61.77 V 38.231 L 63.031 50.01 L 42.969 61.77 Z" /></g></svg></g><g transform="matrix(1.3685, 0, 0, 1.3685, 467.349, 282.631)"><svg viewBox="25.837 10.863 48.324 21.023" width="48.324" height="21.023"><defs><linearGradient id="linearGradientSjrx9jtcub9" x1="0" y1="0.5" x2="1" y2="0.5"><stop stop-color="rgb(76, 150, 215)" offset="0%" /><stop stop-color="rgb(76, 150, 215)" offset="100%" /></linearGradient></defs><g><path clip-rule="evenodd" fill="url(#linearGradientSjrx9jtcub9)" fill-rule="evenodd" d="M 34.335 26.871 c 4.465 -3.029 9.853 -4.8 15.654 -4.8 c 5.811 0 11.206 1.777 15.674 4.815 l 3.498 -5.131 c -5.465 -3.717 -12.064 -5.892 -19.172 -5.892 c -7.099 0 -13.691 2.169 -19.152 5.877 L 34.335 26.871 Z" /></g></svg></g><g transform="matrix(1.3685, 0, 0, 1.3685, 467.349, 360.631)"><svg viewBox="25.512 67.874 48.974 21.262" width="48.974" height="21.262"><defs><linearGradient id="linearGradientSjrx9jtcubf" x1="0" y1="0.5" x2="1" y2="0.5"><stop stop-color="rgb(76, 150, 215)" offset="0%" /><stop stop-color="rgb(76, 150, 215)" offset="100%" /></linearGradient></defs><g><path clip-rule="evenodd" fill="url(#linearGradientSjrx9jtcubf)" fill-rule="evenodd" d="M 65.984 72.874 c -4.531 3.176 -10.039 5.055 -15.995 5.055 c -5.945 0 -11.447 -1.873 -15.976 -5.039 l -3.501 5.138 c 5.524 3.846 12.235 6.108 19.477 6.108 c 7.25 0 13.969 -2.268 19.497 -6.123 L 65.984 72.874 Z" /></g></svg></g><g transform="matrix(1.391, 0, 0, 1.391, 125.6, 400.966)"><svg style="overflow: visible;" width="402.75" height="175"><defs><linearGradient id="linearGradientSjrx9jtcuvt" x1="0.5" y1="1" x2="0.5" y2="0"><stop stop-color="rgb(76, 150, 215)" offset="0%" /><stop stop-color="rgb(8, 59, 102)" offset="100%" /></linearGradient></defs><g><path fill="url(#linearGradientSjrx9jtcuvt)" transform="translate(268.5 86.25)" d="M -156.2 -63.6 L -165.9 -63.6 L -165.9 -70 L -138.6 -70 L -138.6 -63.6 L -148.3 -63.6 L -148.3 0 L -156.2 0 L -156.2 -63.6 Z M -123.3 -27.9 L -123.3 0 L -131 0 L -131 -74 L -123.7 -74 L -123.7 -47.6 Q -121.3 -55.5 -113.8 -55.5 L -113.8 -55.5 Q -108.6 -55.5 -105.85 -50.9 Q -103.1 -46.3 -103.1 -34.1 L -103.1 -34.1 L -103.1 0 L -110.8 0 L -110.8 -36.8 Q -110.8 -49.3 -115.7 -49.3 L -115.7 -49.3 Q -123.1 -49.3 -123.3 -27.9 L -123.3 -27.9 Z M -64.7 -14 Q -65.4 -5.3 -68.8 -1.9 Q -72.2 1.5 -78.65 1.5 Q -85.1 1.5 -88.85 -3.05 Q -92.6 -7.6 -92.6 -19.5 L -92.6 -19.5 L -92.6 -34.5 Q -92.6 -46.4 -88.85 -50.95 Q -85.1 -55.5 -78.3 -55.5 Q -71.5 -55.5 -68 -51 Q -64.5 -46.5 -64.5 -34.5 L -64.5 -34.5 L -64.5 -23.8 L -85 -23.8 L -85 -18.1 Q -85 -4.7 -78.6 -4.7 L -78.6 -4.7 Q -75.5 -4.7 -73.8 -6.9 Q -72.1 -9.1 -71.4 -15.1 L -71.4 -15.1 L -64.7 -14 Z M -85 -35.9 L -85 -35.9 L -85 -30.2 L -72.2 -30.2 L -72.2 -35.9 Q -72.2 -49.3 -78.5 -49.3 L -78.5 -49.3 Q -85 -49.3 -85 -35.9 Z M -45.5 -63.2 L -45.5 0 L -53.3 0 L -53.3 -70 L -41.1 -70 L -32.6 -21.5 L -24 -70 L -11.8 -70 L -11.8 0 L -19.6 0 L -19.6 -63.2 L -28.1 -15 L -37 -15 L -45.5 -63.2 Z M 13.8 0 L 0.8 0 L 0.8 -70 L 12.2 -70 Q 19.7 -70 23.75 -65.8 Q 27.8 -61.6 27.8 -51.1 L 27.8 -51.1 Q 27.8 -38.9 19.3 -36.1 L 19.3 -36.1 Q 29.3 -33.9 29.3 -20 L 29.3 -20 Q 29.3 -8.9 25.2 -4.45 Q 21.1 0 13.8 0 L 13.8 0 Z M 21.5 -18.1 L 21.5 -18.1 L 21.5 -20.8 Q 21.5 -33.3 13.6 -33.3 L 13.6 -33.3 L 8.8 -33.3 L 8.8 -6.3 L 13.6 -6.3 Q 17.4 -6.3 19.45 -8.9 Q 21.5 -11.5 21.5 -18.1 Z M 20.4 -50.3 L 20.4 -50.3 L 20.4 -52.7 Q 20.4 -59 18.4 -61.35 Q 16.4 -63.7 12.7 -63.7 L 12.7 -63.7 L 8.8 -63.7 L 8.8 -38.6 L 12.7 -38.6 Q 20.4 -38.6 20.4 -50.3 Z M 39 -74 L 46.3 -74 L 46.3 -47.5 Q 49 -55.5 55.9 -55.5 L 55.9 -55.5 Q 61.2 -55.5 64 -51 Q 66.8 -46.5 66.8 -34.5 L 66.8 -34.5 L 66.8 -19.5 Q 66.8 -7.5 64 -3 Q 61.2 1.5 55.9 1.5 L 55.9 1.5 Q 48 1.5 45.9 -9.6 L 45.9 -9.6 L 43.7 0 L 39 0 L 39 -74 Z M 46.3 -28.4 L 46.3 -27 Q 46.3 -18 47.45 -12.8 Q 48.6 -7.6 50.1 -6.15 Q 51.6 -4.7 54.1 -4.7 L 54.1 -4.7 Q 59.5 -4.7 59.5 -17.1 L 59.5 -17.1 L 59.5 -36.9 Q 59.5 -49.3 54.2 -49.3 L 54.2 -49.3 Q 51.9 -49.3 50.35 -47.9 Q 48.8 -46.5 47.6 -41.7 Q 46.4 -36.9 46.3 -28.4 L 46.3 -28.4 Z M 85.7 0 L 78 0 L 78 -74 L 85.7 -74 L 85.7 0 Z M 125 -34.5 L 125 -34.5 L 125 -19.5 Q 125 -7.6 121.35 -3.05 Q 117.7 1.5 110.95 1.5 Q 104.2 1.5 100.55 -3.05 Q 96.9 -7.6 96.9 -19.5 L 96.9 -19.5 L 96.9 -34.5 Q 96.9 -46.4 100.55 -50.95 Q 104.2 -55.5 110.95 -55.5 Q 117.7 -55.5 121.35 -50.95 Q 125 -46.4 125 -34.5 Z M 117.3 -18.1 L 117.3 -18.1 L 117.3 -35.9 Q 117.3 -49.3 111 -49.3 L 111 -49.3 Q 104.5 -49.3 104.5 -35.9 L 104.5 -35.9 L 104.5 -18.1 Q 104.5 -4.7 111 -4.7 L 111 -4.7 Q 117.3 -4.7 117.3 -18.1 Z M 165.7 -55.5 L 166.8 -55.5 L 166.8 -47.6 L 160.9 -47.6 Q 162.6 -43.3 162.6 -36.2 L 162.6 -36.2 L 162.6 -35.3 Q 162.6 -24.2 159.15 -20.1 Q 155.7 -16 148.5 -16 L 148.5 -16 Q 145.7 -16 143.4 -16.6 L 143.4 -16.6 Q 141.2 -15 141.2 -11.6 L 141.2 -11.6 Q 141.2 -5.6 146.7 -5.6 L 146.7 -5.6 L 152.9 -5.6 Q 165.3 -5.6 165.3 6.95 Q 165.3 19.5 152.9 19.5 L 152.9 19.5 L 144.1 19.5 Q 131.8 19.5 131.8 6.9 L 131.8 6.9 Q 131.8 -1.7 137.6 -4.4 L 137.6 -4.4 Q 135.2 -6.3 135.2 -11.3 Q 135.2 -16.3 139.5 -18.5 L 139.5 -18.5 Q 134.6 -22.6 134.6 -35.3 L 134.6 -35.3 L 134.6 -36.2 Q 134.6 -47.3 138 -51.4 Q 141.4 -55.5 147.95 -55.5 Q 154.5 -55.5 157.9 -52.4 L 157.9 -52.4 L 165.7 -55.5 Z M 155 -33.5 L 155 -33.5 L 155 -38 Q 155 -44.8 153.35 -47.3 Q 151.7 -49.8 148.65 -49.8 Q 145.6 -49.8 143.9 -47.3 Q 142.2 -44.8 142.2 -38 L 142.2 -38 L 142.2 -33.5 Q 142.2 -26.7 143.9 -24.2 Q 145.6 -21.7 148.65 -21.7 Q 151.7 -21.7 153.35 -24.2 Q 155 -26.7 155 -33.5 Z M 153.5 0.6 L 153.5 0.6 L 143.5 0.6 Q 139 0.6 139 6.85 Q 139 13.1 143.5 13.1 L 143.5 13.1 L 153.5 13.1 Q 158 13.1 158 6.85 Q 158 0.6 153.5 0.6 Z" data-textpath="TheMBblog" data-text-anchor="middle" data-font-size="100" data-letterspacing="0" data-side="left" data-offset="0" data-dx="0" data-dy="86.25" data-xmlspace="preserve" data-href="" data-font="Pathway Gothic One" data-font-src="/Content/clientfonts/pathwaygothicone.woff" data-font-scale="contain" data-x="268.5" data-y="0" /></g></svg></g></g></svg>