<svg xmlns="http://www.w3.org/2000/svg" class="thumb" viewBox="0 0 467 188" width="467" height="188" xmlns:xlink="http://www.w3.org/1999/xlink" xmlns:inkscape="http://www.inkscape.org/namespaces/inkscape" xmlns:sodipodi="http://sodipodi.sourceforge.net/DTD/sodipodi-0.dtd" xmlns:ns1="http://www.inkscape.org/namespaces/inkscape" xmlns:sketch="http://www.bohemiancoding.com/sketch/ns"><defs /><g><g transform="matrix(0.5773, 0, 0, 0.6411, 50.9891, 13.135)"><svg class="thumb" viewBox="-4.609 3 185.988 162.359" width="185.988" height="162.359"><defs><linearGradient id="linearGradientSjrx98071ox" x1="0" y1="0.5" x2="1" y2="0.5"><stop stop-color="rgb(236, 76, 76)" offset="0%" /><stop stop-color="rgb(236, 76, 76)" offset="100%" /></linearGradient></defs><g /><g><polygon fill="url(#linearGradientSjrx98071ox)" points="88.385,8 0.391,160.359 176.379,160.359" /></g></svg></g><g transform="matrix(0.5782, 0, 0, 0.5782, 255.489, 9.4604)"><svg class="thumb" viewBox="-5.13186 -5 187.034 186.77" width="187.034" height="186.77"><defs><linearGradient id="linearGradientSjrx98071p3" x1="0" y1="0.5" x2="1" y2="0.5"><stop stop-color="rgb(141, 202, 255)" offset="0%" /><stop stop-color="rgb(141, 202, 255)" offset="100%" /></linearGradient></defs><g /><g><circle fill="url(#linearGradientSjrx98071p3)" cx="88.385" cy="88.385" r="88.385" /></g></svg></g><g transform="matrix(0.5736, 0, 0, 0.5736, 153.02, 10.3056)"><svg class="thumb" viewBox="-5.013 -5 186.769 186.769" width="186.769" height="186.769"><defs><linearGradient id="linearGradientSjrx98071p9" x1="0" y1="0.5" x2="1" y2="0.5"><stop stop-color="rgb(248, 252, 116)" offset="0%" /><stop stop-color="rgb(248, 252, 116)" offset="100%" /></linearGradient></defs><g /><g><rect fill="url(#linearGradientSjrx98071p9)" x="-0.013" y="0" width="176.769" height="176.769" /></g></svg></g><g transform="matrix(0.4124, 0.589, -0.5856, 0.4101, 341.445, 0.4682)"><svg class="thumb" viewBox="-5 79.525 186.742 17.219" width="186.742" height="17.219"><defs><linearGradient id="linearGradientSjrx98071pf" x1="0" y1="0.5" x2="1" y2="0.5"><stop stop-color="rgb(0, 0, 0)" offset="0%" /><stop stop-color="rgb(0, 0, 0)" offset="100%" /></linearGradient></defs><g /><g><rect fill="url(#linearGradientSjrx98071pf)" y="84.525" width="176.742" height="7.219" /></g></svg></g><g transform="matrix(0.5606, 0, 0, 0.5606, 65.371, 105.794)"><svg style="overflow: visible;" width="453" height="208"><defs><linearGradient id="linearGradientSjrx98071xa" x1="0" y1="0.5" x2="1" y2="0.5"><stop stop-color="rgb(0, 0, 0)" offset="0%" /><stop stop-color="rgb(0, 0, 0)" offset="100%" /></linearGradient></defs><g><path fill="url(#linearGradientSjrx98071xa)" transform="translate(302 111)" d="M -196.146 -70.02 L -161.666 -69.82 L -162.356 -62.99 L -177.686 -62.99 L -177.686 -0.49 L -184.176 -0.49 L -184.176 -62.99 L -196.146 -62.99 L -196.146 -70.02 Z M -119.094 -0.98 L -125.784 -0.59 Q -126.174 -8.01 -126.534 -13.79 Q -126.904 -19.58 -127.194 -23.58 L -127.194 -23.58 Q -127.544 -28.27 -127.884 -31.79 L -127.884 -31.79 Q -128.324 -37.7 -129.394 -40.7 Q -130.464 -43.7 -132.174 -43.7 L -132.174 -43.7 Q -133.794 -43.7 -135.524 -41.6 Q -137.254 -39.5 -138.964 -36.04 Q -140.674 -32.57 -142.264 -28.1 Q -143.844 -23.63 -145.144 -18.9 Q -146.434 -14.16 -147.414 -9.57 Q -148.384 -4.98 -148.874 -1.22 L -148.874 -1.22 L -155.374 -0.98 Q -155.374 -18.36 -155.594 -31.4 Q -155.814 -44.43 -156.054 -53.13 Q -156.294 -61.82 -156.514 -66.16 Q -156.734 -70.51 -156.784 -70.51 L -156.784 -70.51 L -148.384 -70.12 L -148.384 -29.39 Q -147.314 -32.37 -146.294 -34.62 Q -145.264 -36.87 -144.484 -38.38 L -144.484 -38.38 Q -143.604 -40.14 -142.774 -41.41 L -142.774 -41.41 Q -141.304 -43.75 -139.694 -45.61 Q -138.084 -47.46 -136.404 -48.75 Q -134.714 -50.05 -133.084 -50.73 Q -131.444 -51.42 -129.884 -51.42 L -129.884 -51.42 Q -126.804 -51.42 -124.854 -48.56 Q -122.904 -45.7 -121.974 -39.5 L -121.974 -39.5 Q -121.194 -34.52 -120.604 -28.47 L -120.604 -28.47 Q -120.064 -23.29 -119.624 -16.26 Q -119.194 -9.23 -119.094 -0.98 L -119.094 -0.98 Z M -69.8685 -28.71 L -105.369 -28.71 Q -105.469 -28.17 -105.419 -27.66 Q -105.369 -27.15 -105.369 -26.61 L -105.369 -26.61 Q -105.369 -21.73 -104.399 -18.38 Q -103.419 -15.04 -101.929 -12.84 Q -100.439 -10.64 -98.6585 -9.47 Q -96.8785 -8.3 -95.3085 -7.74 Q -93.7485 -7.18 -92.6285 -7.08 Q -91.5085 -6.98 -91.2585 -6.98 L -91.2585 -6.98 Q -91.3085 -6.98 -90.5785 -7.06 Q -89.8485 -7.13 -88.6485 -7.45 Q -87.4485 -7.76 -85.9385 -8.45 Q -84.4285 -9.13 -82.9385 -10.38 Q -81.4485 -11.62 -80.1285 -13.5 Q -78.8085 -15.38 -77.9785 -18.12 L -77.9785 -18.12 L -71.9685 -16.41 Q -72.7085 -13.38 -73.9285 -11.04 Q -75.1485 -8.69 -76.6385 -6.93 Q -78.1285 -5.18 -79.8085 -3.93 Q -81.4985 -2.69 -83.1085 -1.9 L -83.1085 -1.9 Q -86.9185 0.05 -91.2585 0.39 L -91.2585 0.39 Q -95.5585 0.39 -98.8485 -0.9 Q -102.149 -2.2 -104.539 -4.39 Q -106.939 -6.59 -108.549 -9.42 Q -110.159 -12.26 -111.109 -15.36 Q -112.059 -18.46 -112.479 -21.56 Q -112.889 -24.66 -112.889 -27.39 L -112.889 -27.39 Q -112.889 -29.93 -112.599 -32.96 Q -112.309 -35.99 -111.479 -39.06 Q -110.649 -42.14 -109.129 -45.02 Q -107.619 -47.9 -105.179 -50.15 Q -102.739 -52.39 -99.2385 -53.74 Q -95.7485 -55.08 -90.9685 -55.08 L -90.9685 -55.08 Q -90.1385 -55.08 -88.2585 -54.91 Q -86.3785 -54.74 -84.0285 -53.93 Q -81.6885 -53.13 -79.1985 -51.49 Q -76.7085 -49.85 -74.6385 -46.92 Q -72.5585 -43.99 -71.2185 -39.55 Q -69.8685 -35.11 -69.8685 -28.71 L -69.8685 -28.71 Z M -91.2585 -47.61 L -91.2585 -47.61 Q -94.6285 -47.36 -97.4585 -46 L -97.4585 -46 Q -98.6785 -45.41 -99.8785 -44.51 Q -101.079 -43.6 -102.099 -42.31 Q -103.129 -41.02 -103.909 -39.26 Q -104.689 -37.5 -104.979 -35.21 L -104.979 -35.21 L -78.1785 -35.21 Q -78.4685 -38.09 -79.7385 -40.38 Q -81.0085 -42.68 -82.8385 -44.29 Q -84.6685 -45.9 -86.8885 -46.75 Q -89.1085 -47.61 -91.2585 -47.61 Z M -18.3617 -71.09 L -18.3617 -0.68 L -22.5617 -0.68 L -26.9517 -54 L -35.0617 -5.52 L -44.3817 -5.52 L -51.4617 -52.88 L -57.6617 -1.22 L -65.5717 -1.71 L -59.2817 -70.9 L -45.5517 -70.9 L -39.0617 -21 L -31.9817 -71.09 L -18.3617 -71.09 Z M 30.0341 -48 L 30.0341 -48 Q 29.6341 -44.09 27.7841 -40.33 L 27.7841 -40.33 Q 27.0041 -38.72 25.8041 -36.99 Q 24.6141 -35.25 22.9241 -33.54 Q 21.2441 -31.84 18.9941 -30.25 Q 16.7441 -28.66 13.8141 -27.29 L 13.8141 -27.29 Q 17.0941 -26.9 19.3841 -25.83 Q 21.6841 -24.76 23.1941 -23.34 Q 24.7041 -21.92 25.5641 -20.39 Q 26.4141 -18.85 26.8041 -17.5 Q 27.1941 -16.16 27.2941 -15.19 Q 27.3941 -14.21 27.3941 -14.01 L 27.3941 -14.01 Q 27.3941 -10.99 26.2741 -8.72 Q 25.1441 -6.45 23.3641 -4.76 Q 21.5841 -3.08 19.3341 -1.95 Q 17.0941 -0.83 14.8441 -0.15 Q 12.5941 0.54 10.5441 0.83 Q 8.49406 1.12 7.12406 1.12 L 7.12406 1.12 Q 6.78406 1.12 5.61406 1.07 Q 4.44406 1.03 2.54406 0.81 Q 0.634063 0.59 -1.95594 0.17 Q -4.54594 -0.24 -7.66594 -0.98 L -7.66594 -0.98 L -7.66594 -68.99 Q -5.71594 -69.87 -3.44594 -70.39 Q -1.17594 -70.9 1.00406 -71.17 Q 3.17406 -71.44 5.07406 -71.51 Q 6.98406 -71.58 8.20406 -71.58 L 8.20406 -71.58 Q 12.6441 -71.58 16.6241 -70.34 Q 20.6041 -69.09 23.5841 -66.31 Q 26.5641 -63.53 28.2941 -59.01 Q 30.0341 -54.49 30.0341 -48 Z M 20.5041 -49.71 L 20.5041 -49.71 Q 20.3641 -54.15 18.7941 -57.62 L 18.7941 -57.62 Q 18.1141 -59.08 17.1141 -60.52 Q 16.1141 -61.96 14.6041 -63.09 Q 13.0841 -64.21 11.0641 -64.89 Q 9.03406 -65.58 6.39406 -65.58 L 6.39406 -65.58 Q 5.27406 -65.58 4.07406 -65.48 Q 2.88406 -65.38 1.51406 -65.09 L 1.51406 -65.09 L 1.51406 -26.22 Q 5.03406 -27 7.71406 -28.44 Q 10.4041 -29.88 12.4041 -31.67 Q 14.4041 -33.45 15.7941 -35.5 Q 17.1841 -37.55 18.0641 -39.55 L 18.0641 -39.55 Q 20.1641 -44.24 20.5041 -49.71 Z M 7.32406 -23 L 7.32406 -23 Q 5.95406 -23 4.51406 -22.88 Q 3.07406 -22.75 1.51406 -22.51 L 1.51406 -22.51 L 1.51406 -4.98 Q 2.93406 -4.69 4.49406 -4.49 Q 6.05406 -4.3 7.61406 -4.3 L 7.61406 -4.3 Q 9.91406 -4.3 12.0341 -4.79 Q 14.1641 -5.27 15.8241 -6.49 Q 17.4841 -7.71 18.4541 -9.74 Q 19.4341 -11.77 19.4341 -14.79 L 19.4341 -14.79 Q 19.2341 -17.09 17.9241 -18.9 L 17.9241 -18.9 Q 17.3341 -19.68 16.4841 -20.41 Q 15.6241 -21.14 14.3341 -21.73 Q 13.0341 -22.31 11.3041 -22.66 Q 9.57406 -23 7.32406 -23 Z M 79.8389 -29.39 L 79.8389 -29.39 Q 79.8389 -26.17 79.3989 -22.68 Q 78.9589 -19.19 77.9589 -15.8 Q 76.9489 -12.4 75.3389 -9.33 Q 73.7289 -6.25 71.3089 -3.93 Q 68.8989 -1.61 65.6689 -0.24 Q 62.4489 1.12 58.2489 1.12 L 58.2489 1.12 Q 55.0789 1.12 52.2189 0.61 Q 49.3689 0.1 46.9189 -1.2 Q 44.4789 -2.49 42.5489 -4.69 Q 40.6289 -6.88 39.2589 -10.25 Q 37.8889 -13.62 37.1589 -18.33 Q 36.4289 -23.05 36.4289 -29.3 L 36.4289 -29.3 L 37.4489 -70.51 L 45.3089 -70.51 L 44.2389 -45.9 Q 45.4089 -47.66 46.6789 -48.97 Q 47.9489 -50.29 49.2389 -51.25 Q 50.5389 -52.2 51.8089 -52.86 Q 53.0789 -53.52 54.1989 -53.96 L 54.1989 -53.96 Q 56.8889 -54.93 59.5189 -55.08 L 59.5189 -55.08 Q 65.1389 -54.98 69.0189 -53.13 Q 72.8989 -51.27 75.2889 -47.92 Q 77.6889 -44.58 78.7589 -39.87 Q 79.8389 -35.16 79.8389 -29.39 Z M 72.4089 -25.2 L 72.4089 -25.2 Q 72.4089 -27.05 72.3189 -29.39 Q 72.2189 -31.74 71.7989 -34.2 Q 71.3889 -36.67 70.5789 -38.99 Q 69.7789 -41.31 68.3389 -43.14 Q 66.8989 -44.97 64.7489 -46.09 Q 62.5989 -47.22 59.5189 -47.22 L 59.5189 -47.22 Q 57.2289 -47.17 55.1789 -46.19 Q 53.1289 -45.21 51.3689 -43.6 Q 49.6089 -41.99 48.1889 -39.92 Q 46.7789 -37.84 45.7989 -35.62 Q 44.8289 -33.4 44.2889 -31.18 Q 43.7489 -28.96 43.7489 -27 L 43.7489 -27 Q 43.7489 -22.02 44.4089 -18.12 Q 45.0689 -14.21 46.7089 -11.52 Q 48.3389 -8.84 51.1489 -7.42 Q 53.9589 -6.01 58.2489 -6.01 L 58.2489 -6.01 Q 61.0389 -6.01 63.1389 -6.93 Q 65.2389 -7.86 66.7989 -9.4 Q 68.3589 -10.94 69.4089 -12.94 Q 70.4589 -14.94 71.1189 -17.07 Q 71.7789 -19.19 72.0689 -21.31 Q 72.3589 -23.44 72.4089 -25.2 Z M 87.9395 -69.48 L 95.6995 -68.9 L 94.7295 -0.29 L 88.9195 -0.29 L 87.9395 -69.48 Z M 146.829 -29.1 L 146.829 -29.1 Q 146.829 -22.07 145.189 -16.5 Q 143.559 -10.94 140.749 -7.06 Q 137.939 -3.17 134.129 -1.1 Q 130.319 0.98 126.029 0.98 L 126.029 0.98 Q 121.679 0.98 117.869 -1.17 Q 114.059 -3.32 111.229 -7.28 Q 108.399 -11.23 106.759 -16.77 Q 105.129 -22.31 105.129 -29.1 L 105.129 -29.1 Q 105.129 -34.91 106.569 -39.72 Q 108.009 -44.53 110.719 -48 Q 113.429 -51.46 117.309 -53.39 Q 121.189 -55.32 126.029 -55.32 L 126.029 -55.32 Q 131.399 -55.32 135.299 -53.39 Q 139.209 -51.46 141.769 -48 Q 144.339 -44.53 145.579 -39.72 Q 146.829 -34.91 146.829 -29.1 Z M 139.259 -29 L 139.259 -29 Q 139.259 -33.4 138.479 -37.01 Q 137.699 -40.63 136.059 -43.24 Q 134.419 -45.85 131.929 -47.27 Q 129.439 -48.68 126.029 -48.68 L 126.029 -48.68 Q 122.949 -48.68 120.479 -47.27 Q 118.019 -45.85 116.309 -43.24 Q 114.599 -40.63 113.669 -37.01 Q 112.749 -33.4 112.749 -29 L 112.749 -29 Q 112.749 -23.88 113.789 -19.73 Q 114.839 -15.58 116.629 -12.6 Q 118.409 -9.62 120.829 -8.01 Q 123.239 -6.4 126.029 -6.4 L 126.029 -6.4 Q 128.759 -6.4 131.179 -7.96 Q 133.589 -9.52 135.379 -12.45 Q 137.159 -15.38 138.209 -19.56 Q 139.259 -23.73 139.259 -29 Z M 193.653 -60.5 L 187.453 -49.51 Q 189.603 -47.31 190.963 -44.6 Q 192.333 -41.89 193.113 -39.01 Q 193.893 -36.13 194.193 -33.25 Q 194.483 -30.37 194.483 -27.88 L 194.483 -27.88 Q 194.433 -22.66 193.483 -18.48 Q 192.533 -14.31 190.963 -11.06 Q 189.403 -7.81 187.353 -5.47 Q 185.303 -3.13 183.033 -1.61 Q 180.763 -0.1 178.393 0.61 Q 176.023 1.32 173.873 1.32 L 173.873 1.32 Q 172.073 1.32 170.433 1.03 Q 168.803 0.73 167.383 0.29 L 167.383 0.29 Q 166.113 1.22 165.113 2.29 Q 164.113 3.37 163.383 4.47 Q 162.643 5.57 162.253 6.64 Q 161.863 7.71 161.863 8.69 L 161.863 8.69 Q 161.863 10.35 162.813 11.23 Q 163.773 12.11 164.653 12.11 L 164.653 12.11 Q 165.923 12.11 167.233 11.4 Q 168.553 10.69 169.993 9.62 Q 171.433 8.54 173.023 7.3 Q 174.613 6.05 176.343 4.98 Q 178.073 3.91 180.033 3.2 Q 181.983 2.49 184.183 2.49 L 184.183 2.49 Q 186.133 2.49 187.943 3.03 Q 189.743 3.56 191.283 4.61 Q 192.823 5.66 193.943 7.23 Q 195.073 8.79 195.653 10.89 L 195.653 10.89 Q 195.903 11.72 195.973 12.5 Q 196.043 13.28 196.043 14.11 L 196.043 14.11 Q 196.043 18.21 194.163 21.39 Q 192.283 24.56 189.113 26.73 Q 185.933 28.91 181.713 30 Q 177.493 31.1 172.753 31.1 L 172.753 31.1 Q 170.943 31.1 169.113 30.88 Q 167.283 30.66 165.483 30.18 L 165.483 30.18 L 166.353 25.78 Q 167.333 26.03 168.283 26.12 Q 169.243 26.22 170.163 26.22 L 170.163 26.22 Q 172.513 26.22 174.513 25.81 Q 176.513 25.39 177.983 24.85 L 177.983 24.85 Q 179.683 24.27 181.153 23.49 L 181.153 23.49 Q 185.103 21.29 186.793 19.24 Q 188.473 17.19 188.473 15.19 L 188.473 15.19 Q 188.473 14.16 188.113 13.26 Q 187.743 12.35 187.113 11.65 Q 186.473 10.94 185.593 10.52 Q 184.713 10.11 183.643 10.11 L 183.643 10.11 Q 181.933 10.11 179.683 11.21 Q 177.443 12.3 174.663 14.79 L 174.663 14.79 Q 172.313 16.85 169.773 17.82 Q 167.233 18.8 164.653 18.8 L 164.653 18.8 Q 162.943 18.8 161.203 18.29 Q 159.473 17.77 158.083 16.8 Q 156.693 15.82 155.783 14.33 Q 154.883 12.84 154.883 10.89 L 154.883 10.89 Q 154.883 9.38 155.373 7.69 Q 155.863 6.01 156.833 4.32 Q 157.813 2.64 159.253 1.03 Q 160.693 -0.59 162.553 -2 L 162.553 -2 Q 159.623 -4.1 157.663 -7.15 Q 155.713 -10.21 154.493 -13.72 Q 153.273 -17.24 152.763 -20.97 Q 152.243 -24.71 152.243 -28.22 L 152.243 -28.22 Q 152.243 -35.16 153.833 -40.19 Q 155.423 -45.21 158.183 -48.49 Q 160.933 -51.76 164.673 -53.32 Q 168.413 -54.88 172.753 -54.88 L 172.753 -54.88 Q 175.393 -54.88 177.633 -54.47 Q 179.883 -54.05 181.783 -53.32 L 181.783 -53.32 L 186.573 -65.48 L 193.653 -60.5 Z M 187.453 -27.98 L 187.453 -27.98 Q 187.453 -29.49 187.333 -31.4 Q 187.203 -33.3 186.793 -35.3 Q 186.373 -37.3 185.623 -39.28 Q 184.863 -41.26 183.643 -42.92 L 183.643 -42.92 L 179.253 -35.11 L 175.443 -37.21 L 179.153 -46.68 Q 177.883 -47.22 176.363 -47.56 Q 174.853 -47.9 173.043 -47.9 L 173.043 -47.9 Q 165.923 -47.61 162.593 -42.58 Q 159.273 -37.55 159.273 -28.32 L 159.273 -28.32 Q 159.273 -21.97 160.473 -17.63 Q 161.673 -13.28 163.573 -10.62 Q 165.483 -7.96 167.843 -6.79 Q 170.213 -5.62 172.563 -5.62 L 172.563 -5.62 Q 175.053 -5.62 177.663 -6.86 Q 180.273 -8.11 182.443 -10.82 Q 184.623 -13.53 186.013 -17.75 Q 187.403 -21.97 187.453 -27.98 Z" data-textpath="TheMBblog" data-text-anchor="middle" data-font-size="100" data-letterspacing="0" data-side="left" data-offset="0" data-dx="0" data-dy="111" data-xmlspace="preserve" data-href="" data-font="Englebert" data-font-src="/Content/clientfonts/englebert.woff" data-font-scale="contain" data-x="302" data-y="0" /></g></svg></g></g></svg>