<svg xmlns="http://www.w3.org/2000/svg" class="thumb" viewBox="0 0 966 322" width="966" height="322" xmlns:xlink="http://www.w3.org/1999/xlink" xmlns:inkscape="http://www.inkscape.org/namespaces/inkscape" xmlns:sodipodi="http://sodipodi.sourceforge.net/DTD/sodipodi-0.dtd" xmlns:ns1="http://www.inkscape.org/namespaces/inkscape" xmlns:sketch="http://www.bohemiancoding.com/sketch/ns"><defs /><g><g transform="matrix(2.7273, 0, 0, 2.7273, 441.655, 7.3344)"><svg viewBox="8.51869 -3.56259 78.7502 108.563" width="78.7502" height="108.563"><defs><linearGradient id="linearGradientSjrx98071ob" x1="0" y1="0.5" x2="1" y2="0.5"><stop stop-color="rgb(116, 209, 76)" offset="0%" /><stop stop-color="rgb(116, 209, 76)" offset="100%" /></linearGradient></defs><path fill="url(#linearGradientSjrx98071ob)" d="M 79.925 75.221 l -1.3 0.551 l -1.741 -4.104 l -1.362 0.578 l 1.74 4.105 l -7.084 3.008 c -19.45 8.254 -41.993 -0.852 -50.249 -20.305 c -8.256 -19.451 0.851 -41.992 20.302 -50.25 L 47.315 5.8 l 1.758 4.144 l 1.366 -0.578 l -1.761 -4.145 l 1.302 -0.551 c 0.853 -0.363 1.252 -1.35 0.889 -2.208 c -0.363 -0.854 -1.348 -1.253 -2.206 -0.891 l -9.747 4.138 C 17.757 14.69 7.852 39.21 16.832 60.371 c 6.536 15.396 21.305 24.828 37.016 25.363 v 5.645 l -8.026 -0.002 c -1.547 0.002 -2.804 1.258 -2.804 2.805 v 0.889 v 2.125 V 100 h 2.804 h 19.417 h 2.806 l 0.003 -2.805 l -0.003 -2.125 l 0.003 -0.889 c -0.003 -1.547 -1.26 -2.803 -2.809 -2.803 h -8.022 v -5.658 c 4.786 -0.229 9.614 -1.285 14.278 -3.264 l 6.215 -2.643 l 3.098 -1.314 l 0.436 -0.182 c 0.853 -0.363 1.254 -1.352 0.891 -2.207 C 81.771 75.256 80.783 74.859 79.925 75.221 Z" /></svg></g><g transform="matrix(1.6655, -0.6393, 0.6452, 1.6808, 462.192, 70.3256)"><svg viewBox="-5 -5 110 110" width="110" height="110"><defs><linearGradient id="linearGradientSjrx98071oh" x1="0" y1="0.5" x2="1" y2="0.5"><stop stop-color="rgb(23, 97, 160)" offset="0%" /><stop stop-color="rgb(23, 97, 160)" offset="100%" /></linearGradient></defs><path fill="url(#linearGradientSjrx98071oh)" d="M 93.262 75 C 97.547 67.639 100 59.131 100 50 c 0 -27.612 -22.388 -50 -50 -50 S 0 22.388 0 50 s 22.388 50 50 50 c 13.807 0 26.307 -5.591 35.352 -14.648 l -8.85 -8.85 C 69.715 83.301 60.34 87.5 50 87.5 c -20.679 0 -37.5 -16.821 -37.5 -37.5 S 29.321 12.5 50 12.5 S 87.5 29.321 87.5 50 c 0 4.443 -0.854 8.691 -2.283 12.646 L 85.119 62.5 H 75 V 25.135 H 50 c -13.807 0 -25 11.193 -25 25 c 0 13.806 11.193 25 25 25 c 5.737 0 10.962 -2.015 15.186 -5.262 C 67.456 72.9 70.923 75 75 75 H 93.262 Z M 62.5 43.774 v 6.36 c 0 6.896 -5.615 12.5 -12.5 12.5 s -12.5 -5.604 -12.5 -12.5 c 0 -6.897 5.615 -12.5 12.5 -12.5 h 12.5 V 43.774 Z" /></svg></g><g transform="matrix(1.0004, 0, 0, 1.0004, 664.224, 194.583)"><svg style="overflow: visible;" width="0" height="188"><defs><linearGradient id="linearGradientSjrx98071ws" x1="0" y1="0.5" x2="1" y2="0.5"><stop stop-color="rgb(116, 209, 76)" offset="0%" /><stop stop-color="rgb(116, 209, 76)" offset="100%" /></linearGradient></defs><g><path fill="url(#linearGradientSjrx98071ws)" transform="translate(151 96)" d="" data-textpath="" data-text-anchor="middle" data-font-size="100" data-letterspacing="0" data-side="left" data-offset="0" data-dx="0" data-dy="96" data-xmlspace="preserve" data-href="" data-font="Audiowide" data-font-src="/Content/clientfonts/audiowide.woff" data-font-scale="contain" data-x="151" data-y="0" /></g></svg></g><g transform="matrix(0.9417, 0, 0, 0.9417, 0.4555, 199.341)"><svg style="overflow: visible;" width="646.714" height="188"><defs><linearGradient id="linearGradientSjrx98071wv" x1="0" y1="0.5" x2="1" y2="0.5"><stop stop-color="rgb(116, 209, 76)" offset="0%" /><stop stop-color="rgb(116, 209, 76)" offset="100%" /></linearGradient></defs><g><path fill="url(#linearGradientSjrx98071wv)" transform="translate(251.5 96)" d="M -240.873 -70.02 L -240.873 -57.32 L -268.843 -57.32 L -268.843 0 L -281.543 0 L -281.543 -57.32 L -309.573 -57.32 L -309.573 -70.02 L -240.873 -70.02 Z M -174.266 -35.01 L -174.266 0 L -186.966 0 L -186.966 -35.01 Q -186.966 -37.5 -188.236 -38.79 Q -189.506 -40.09 -192.036 -40.09 L -192.036 -40.09 L -214.946 -40.09 L -214.946 -52.78 L -192.036 -52.78 Q -190.236 -52.78 -188.236 -52.37 Q -186.226 -51.95 -184.256 -51.07 Q -182.276 -50.2 -180.466 -48.8 Q -178.666 -47.41 -177.296 -45.43 Q -175.926 -43.46 -175.096 -40.87 Q -174.266 -38.28 -174.266 -35.01 L -174.266 -35.01 Z M -220.066 -75.1 L -220.066 0 L -232.766 0 L -232.766 -75.1 L -220.066 -75.1 Z M -105.864 -35.3 L -105.864 -35.3 Q -105.864 -32.67 -106.784 -29.61 Q -107.714 -26.56 -109.794 -23.95 Q -111.864 -21.34 -115.214 -19.58 Q -118.554 -17.82 -123.344 -17.82 L -123.344 -17.82 L -146.244 -17.82 L -146.244 -29.88 L -123.344 -29.88 Q -120.754 -29.88 -119.334 -31.47 Q -117.924 -33.06 -117.924 -35.4 L -117.924 -35.4 Q -117.924 -37.89 -119.504 -39.31 Q -121.094 -40.72 -123.344 -40.72 L -123.344 -40.72 L -146.244 -40.72 Q -148.824 -40.72 -150.244 -39.14 Q -151.664 -37.55 -151.664 -35.21 L -151.664 -35.21 L -151.664 -17.48 Q -151.664 -14.94 -150.074 -13.53 Q -148.484 -12.11 -146.144 -12.11 L -146.144 -12.11 L -123.344 -12.11 L -123.344 0 L -146.244 0 Q -148.874 0 -151.934 -0.93 Q -154.984 -1.86 -157.594 -3.93 Q -160.204 -6.01 -161.964 -9.35 Q -163.724 -12.7 -163.724 -17.48 L -163.724 -17.48 L -163.724 -35.3 Q -163.724 -37.94 -162.794 -40.99 Q -161.864 -44.04 -159.794 -46.66 Q -157.714 -49.27 -154.374 -51.03 Q -151.024 -52.78 -146.244 -52.78 L -146.244 -52.78 L -123.344 -52.78 Q -120.704 -52.78 -117.654 -51.86 Q -114.604 -50.93 -111.984 -48.85 Q -109.374 -46.78 -107.614 -43.43 Q -105.864 -40.09 -105.864 -35.3 Z M -14.4015 -64.6 L -14.4015 0 L -27.2015 0 L -27.2015 -41.7 L -49.7115 -2.1 Q -50.5415 -0.59 -52.0215 0.2 Q -53.5115 0.98 -55.2215 0.98 L -55.2215 0.98 Q -56.8815 0.98 -58.3215 0.2 Q -59.7615 -0.59 -60.5915 -2.1 L -60.5915 -2.1 L -83.2015 -41.7 L -83.2015 0 L -95.9015 0 L -95.9015 -64.6 Q -95.9015 -66.8 -94.6015 -68.51 Q -93.3115 -70.21 -91.2115 -70.8 L -91.2115 -70.8 Q -90.1815 -71.04 -89.1615 -70.97 Q -88.1315 -70.9 -87.1815 -70.53 Q -86.2315 -70.17 -85.4515 -69.51 Q -84.6715 -68.85 -84.1315 -67.92 L -84.1315 -67.92 L -55.2215 -17.68 L -26.3215 -67.92 Q -25.1915 -69.78 -23.2215 -70.56 Q -21.2415 -71.34 -19.0915 -70.8 L -19.0915 -70.8 Q -17.0415 -70.21 -15.7215 -68.51 Q -14.4015 -66.8 -14.4015 -64.6 L -14.4015 -64.6 Z M 70.2188 -17.82 L 70.2188 -15.38 Q 70.2188 -13.04 69.4088 -10.35 Q 68.5987 -7.67 66.7688 -5.37 Q 64.9388 -3.08 62.0088 -1.54 Q 59.0788 0 54.8387 0 L 54.8387 0 L 6.63875 0 Q 5.26875 0 4.09875 -0.49 Q 2.92875 -0.98 2.07875 -1.83 Q 1.21875 -2.69 0.72875 -3.86 Q 0.24875 -5.03 0.24875 -6.4 L 0.24875 -6.4 L 0.24875 -63.62 Q 0.24875 -64.94 0.72875 -66.11 Q 1.21875 -67.29 2.07875 -68.16 Q 2.92875 -69.04 4.09875 -69.53 Q 5.26875 -70.02 6.63875 -70.02 L 6.63875 -70.02 L 49.1188 -70.02 Q 51.4688 -70.02 54.1488 -69.19 Q 56.8387 -68.36 59.1587 -66.53 Q 61.4787 -64.7 63.0088 -61.77 Q 64.5488 -58.84 64.5488 -54.59 L 64.5488 -54.59 L 64.5488 -52.2 Q 64.5488 -48.83 63.4287 -44.95 Q 62.3088 -41.06 59.8187 -37.6 L 59.8187 -37.6 Q 61.9588 -36.28 63.8387 -34.42 Q 65.7188 -32.57 67.1387 -30.13 Q 68.5587 -27.69 69.3887 -24.61 Q 70.2188 -21.53 70.2188 -17.82 L 70.2188 -17.82 Z M 57.5187 -15.48 L 57.5187 -17.82 Q 57.5187 -20.31 56.7388 -22.29 Q 55.9588 -24.27 54.5387 -25.68 Q 53.1287 -27.1 51.1188 -27.86 Q 49.1188 -28.61 46.6287 -28.61 L 46.6287 -28.61 L 18.0187 -28.61 L 18.0187 -41.41 L 40.9188 -41.41 Q 43.4087 -41.41 45.4087 -42.16 Q 47.4087 -42.92 48.8288 -44.34 Q 50.2487 -45.75 50.9987 -47.73 Q 51.7588 -49.71 51.7588 -52.2 L 51.7588 -52.2 L 51.7588 -54.59 Q 51.7588 -57.32 49.1188 -57.32 L 49.1188 -57.32 L 12.9388 -57.32 L 12.9388 -12.7 L 54.8387 -12.7 Q 55.1787 -12.7 55.6688 -12.74 Q 56.1488 -12.79 56.5387 -13.04 Q 56.9287 -13.28 57.2287 -13.87 Q 57.5187 -14.45 57.5187 -15.48 L 57.5187 -15.48 Z M 138.037 -35.01 L 138.037 -17.82 Q 138.037 -16.02 137.627 -14.01 Q 137.207 -12.01 136.327 -10.03 Q 135.447 -8.06 134.057 -6.25 Q 132.667 -4.44 130.687 -3.05 Q 128.707 -1.66 126.127 -0.83 Q 123.537 0 120.267 0 L 120.267 0 L 97.367 0 Q 95.557 0 93.557 -0.42 Q 91.557 -0.83 89.577 -1.71 Q 87.597 -2.59 85.787 -3.98 Q 83.987 -5.37 82.597 -7.35 Q 81.197 -9.33 80.367 -11.94 Q 79.537 -14.55 79.537 -17.82 L 79.537 -17.82 L 79.537 -75.1 L 92.237 -75.1 L 92.237 -17.82 Q 92.237 -15.48 93.697 -14.09 Q 95.167 -12.7 97.367 -12.7 L 97.367 -12.7 L 120.267 -12.7 Q 122.657 -12.7 123.997 -14.11 Q 125.337 -15.53 125.337 -17.82 L 125.337 -17.82 L 125.337 -35.01 Q 125.337 -37.4 123.927 -38.75 Q 122.507 -40.09 120.267 -40.09 L 120.267 -40.09 L 97.367 -40.09 L 97.367 -52.78 L 120.267 -52.78 Q 122.067 -52.78 124.077 -52.37 Q 126.077 -51.95 128.047 -51.07 Q 130.027 -50.2 131.837 -48.8 Q 133.647 -47.41 135.007 -45.43 Q 136.377 -43.46 137.207 -40.87 Q 138.037 -38.28 138.037 -35.01 L 138.037 -35.01 Z M 172.07 -12.7 L 172.07 0 L 166.41 0 Q 163.67 0 160.57 -0.93 Q 157.47 -1.86 154.79 -3.98 Q 152.1 -6.1 150.34 -9.5 Q 148.58 -12.89 148.58 -17.82 L 148.58 -17.82 L 148.58 -75.1 L 161.28 -75.1 L 161.28 -17.82 Q 161.28 -15.48 162.74 -14.09 Q 164.21 -12.7 166.41 -12.7 L 166.41 -12.7 L 172.07 -12.7 Z M 237.648 -35.01 L 237.648 -17.82 Q 237.648 -14.55 236.818 -11.94 Q 235.988 -9.33 234.618 -7.35 Q 233.248 -5.37 231.448 -3.98 Q 229.638 -2.59 227.658 -1.71 Q 225.688 -0.83 223.658 -0.42 Q 221.628 0 219.828 0 L 219.828 0 L 196.928 0 Q 194.288 0 191.158 -0.93 Q 188.038 -1.86 185.378 -3.98 Q 182.718 -6.1 180.938 -9.5 Q 179.148 -12.89 179.148 -17.82 L 179.148 -17.82 L 179.148 -35.01 Q 179.148 -39.89 180.938 -43.29 Q 182.718 -46.68 185.378 -48.8 Q 188.038 -50.93 191.158 -51.86 Q 194.288 -52.78 196.928 -52.78 L 196.928 -52.78 L 219.828 -52.78 Q 224.708 -52.78 228.128 -51.03 Q 231.548 -49.27 233.648 -46.61 Q 235.738 -43.95 236.698 -40.82 Q 237.648 -37.7 237.648 -35.01 L 237.648 -35.01 Z M 224.948 -17.82 L 224.948 -34.91 Q 224.948 -37.55 223.638 -38.82 Q 222.318 -40.09 219.828 -40.09 L 219.828 -40.09 L 197.018 -40.09 Q 194.478 -40.09 193.168 -38.79 Q 191.848 -37.5 191.848 -35.01 L 191.848 -35.01 L 191.848 -17.82 Q 191.848 -15.33 193.168 -14.01 Q 194.478 -12.7 197.018 -12.7 L 197.018 -12.7 L 219.828 -12.7 Q 222.408 -12.7 223.678 -14.01 Q 224.948 -15.33 224.948 -17.82 L 224.948 -17.82 Z M 305.86 -35.01 L 305.86 5.08 Q 305.86 8.35 305.03 10.96 Q 304.2 13.57 302.83 15.55 Q 301.46 17.53 299.66 18.92 Q 297.85 20.31 295.87 21.19 Q 293.9 22.07 291.87 22.49 Q 289.84 22.9 288.04 22.9 L 288.04 22.9 L 265.14 22.9 L 265.14 10.21 L 288.04 10.21 Q 290.62 10.21 291.89 8.89 Q 293.16 7.57 293.16 5.08 L 293.16 5.08 L 293.16 -35.01 Q 293.16 -37.5 291.89 -38.79 Q 290.62 -40.09 288.04 -40.09 L 288.04 -40.09 L 265.14 -40.09 Q 262.79 -40.09 261.43 -38.65 Q 260.06 -37.21 260.06 -35.01 L 260.06 -35.01 L 260.06 -17.82 Q 260.06 -15.33 261.38 -14.01 Q 262.69 -12.7 265.23 -12.7 L 265.23 -12.7 L 288.04 -12.7 L 288.04 0 L 265.14 0 Q 263.33 0 261.33 -0.42 Q 259.33 -0.83 257.35 -1.71 Q 255.37 -2.59 253.56 -3.98 Q 251.76 -5.37 250.39 -7.35 Q 249.02 -9.33 248.19 -11.94 Q 247.36 -14.55 247.36 -17.82 L 247.36 -17.82 L 247.36 -35.01 Q 247.36 -36.82 247.78 -38.82 Q 248.19 -40.82 249.07 -42.8 Q 249.95 -44.78 251.34 -46.58 Q 252.73 -48.39 254.71 -49.76 Q 256.69 -51.12 259.28 -51.95 Q 261.86 -52.78 265.14 -52.78 L 265.14 -52.78 L 288.04 -52.78 Q 289.84 -52.78 291.87 -52.37 Q 293.9 -51.95 295.87 -51.07 Q 297.85 -50.2 299.66 -48.8 Q 301.46 -47.41 302.83 -45.43 Q 304.2 -43.46 305.03 -40.87 Q 305.86 -38.28 305.86 -35.01 L 305.86 -35.01 Z" data-textpath="TheMBblog" data-text-anchor="middle" data-font-size="100" data-letterspacing="0" data-side="left" data-offset="0" data-dx="0" data-dy="96" data-xmlspace="preserve" data-href="" data-font="Audiowide" data-font-src="/Content/clientfonts/audiowide.woff" data-font-scale="contain" data-x="251.5" data-y="0" /></g></svg></g></g></svg>